solid CATIA STL
  facet normal  0.000000e+000  0.000000e+000 -1.000000e+000
    outer loop
      vertex  1.642256e+001 -1.977715e+001 -4.000000e+000
      vertex  3.344457e+001 -1.945638e+001 -4.000000e+000
      vertex  1.545638e+001 -2.055543e+001 -4.000000e+000
    endloop
  endfacet
  facet normal  -0.000000e+000  0.000000e+000 -1.000000e+000
    outer loop
      vertex  0.000000e+000 -1.549193e+001 -4.000000e+000
      vertex  3.454362e+001 -1.744457e+001 -4.000000e+000
      vertex  3.357744e+001 -1.822285e+001 -4.000000e+000
    endloop
  endfacet
  facet normal  0.000000e+000  0.000000e+000 -1.000000e+000
    outer loop
      vertex  0.000000e+000 -1.549193e+001 -4.000000e+000
      vertex  3.357744e+001 -1.822285e+001 -4.000000e+000
      vertex  1.577715e+001 -1.757744e+001 -4.000000e+000
    endloop
  endfacet
  facet normal  0.000000e+000  0.000000e+000 -1.000000e+000
    outer loop
      vertex  0.000000e+000 -1.549193e+001 -4.000000e+000
      vertex  1.577715e+001 -1.757744e+001 -4.000000e+000
      vertex  1.454362e+001 -1.744457e+001 -4.000000e+000
    endloop
  endfacet
  facet normal  -0.000000e+000  0.000000e+000 -1.000000e+000
    outer loop
      vertex  0.000000e+000 -1.549193e+001 -4.000000e+000
      vertex  1.454362e+001 -1.744457e+001 -4.000000e+000
      vertex  1.357744e+001 -1.822285e+001 -4.000000e+000
    endloop
  endfacet
  facet normal  -0.000000e+000  0.000000e+000 -1.000000e+000
    outer loop
      vertex  0.000000e+000 -1.549193e+001 -4.000000e+000
      vertex  1.357744e+001 -1.822285e+001 -4.000000e+000
      vertex  1.344457e+001 -1.945638e+001 -4.000000e+000
    endloop
  endfacet
  facet normal  -0.000000e+000  0.000000e+000 -1.000000e+000
    outer loop
      vertex  0.000000e+000 -1.549193e+001 -4.000000e+000
      vertex  1.344457e+001 -1.945638e+001 -4.000000e+000
      vertex  0.000000e+000 -2.200000e+001 -4.000000e+000
    endloop
  endfacet
  facet normal  0.000000e+000  -0.000000e+000 -1.000000e+000
    outer loop
      vertex  0.000000e+000 -2.200000e+001 -4.000000e+000
      vertex  1.344457e+001 -1.945638e+001 -4.000000e+000
      vertex  1.422285e+001 -2.042256e+001 -4.000000e+000
    endloop
  endfacet
  facet normal  0.000000e+000  -0.000000e+000 -9.999999e-001
    outer loop
      vertex  0.000000e+000 -2.200000e+001 -4.000000e+000
      vertex  1.422285e+001 -2.042256e+001 -4.000000e+000
      vertex  1.545638e+001 -2.055543e+001 -4.000000e+000
    endloop
  endfacet
  facet normal  0.000000e+000  -0.000000e+000 -1.000000e+000
    outer loop
      vertex  0.000000e+000 -2.200000e+001 -4.000000e+000
      vertex  1.545638e+001 -2.055543e+001 -4.000000e+000
      vertex  3.344457e+001 -1.945638e+001 -4.000000e+000
    endloop
  endfacet
  facet normal  0.000000e+000  -0.000000e+000 -1.000000e+000
    outer loop
      vertex  0.000000e+000 -2.200000e+001 -4.000000e+000
      vertex  3.344457e+001 -1.945638e+001 -4.000000e+000
      vertex  3.422285e+001 -2.042256e+001 -4.000000e+000
    endloop
  endfacet
  facet normal  0.000000e+000  -0.000000e+000 -1.000000e+000
    outer loop
      vertex  0.000000e+000 -2.200000e+001 -4.000000e+000
      vertex  3.422285e+001 -2.042256e+001 -4.000000e+000
      vertex  3.545638e+001 -2.055543e+001 -4.000000e+000
    endloop
  endfacet
  facet normal  0.000000e+000  -0.000000e+000 -1.000000e+000
    outer loop
      vertex  0.000000e+000 -2.200000e+001 -4.000000e+000
      vertex  3.545638e+001 -2.055543e+001 -4.000000e+000
      vertex  5.000000e+001 -2.200000e+001 -4.000000e+000
    endloop
  endfacet
  facet normal  0.000000e+000  0.000000e+000 -1.000000e+000
    outer loop
      vertex  5.000000e+001 -2.200000e+001 -4.000000e+000
      vertex  3.545638e+001 -2.055543e+001 -4.000000e+000
      vertex  3.642256e+001 -1.977715e+001 -4.000000e+000
    endloop
  endfacet
  facet normal  0.000000e+000  0.000000e+000 -1.000000e+000
    outer loop
      vertex  5.000000e+001 -2.200000e+001 -4.000000e+000
      vertex  3.642256e+001 -1.977715e+001 -4.000000e+000
      vertex  3.655543e+001 -1.854362e+001 -4.000000e+000
    endloop
  endfacet
  facet normal  0.000000e+000  0.000000e+000 -1.000000e+000
    outer loop
      vertex  5.000000e+001 -2.200000e+001 -4.000000e+000
      vertex  3.655543e+001 -1.854362e+001 -4.000000e+000
      vertex  5.000000e+001 -1.549193e+001 -4.000000e+000
    endloop
  endfacet
  facet normal  0.000000e+000  0.000000e+000 -1.000000e+000
    outer loop
      vertex  5.000000e+001 -1.549193e+001 -4.000000e+000
      vertex  3.655543e+001 -1.854362e+001 -4.000000e+000
      vertex  3.577715e+001 -1.757744e+001 -4.000000e+000
    endloop
  endfacet
  facet normal  0.000000e+000  0.000000e+000 -1.000000e+000
    outer loop
      vertex  5.000000e+001 -1.549193e+001 -4.000000e+000
      vertex  3.577715e+001 -1.757744e+001 -4.000000e+000
      vertex  3.454362e+001 -1.744457e+001 -4.000000e+000
    endloop
  endfacet
  facet normal  0.000000e+000  0.000000e+000 -1.000000e+000
    outer loop
      vertex  5.000000e+001 -1.549193e+001 -4.000000e+000
      vertex  3.454362e+001 -1.744457e+001 -4.000000e+000
      vertex  0.000000e+000 -1.549193e+001 -4.000000e+000
    endloop
  endfacet
  facet normal  -0.000000e+000  0.000000e+000 -1.000000e+000
    outer loop
      vertex  1.577715e+001 -1.757744e+001 -4.000000e+000
      vertex  3.357744e+001 -1.822285e+001 -4.000000e+000
      vertex  1.655543e+001 -1.854362e+001 -4.000000e+000
    endloop
  endfacet
  facet normal  0.000000e+000  0.000000e+000 -1.000000e+000
    outer loop
      vertex  1.655543e+001 -1.854362e+001 -4.000000e+000
      vertex  3.357744e+001 -1.822285e+001 -4.000000e+000
      vertex  3.344457e+001 -1.945638e+001 -4.000000e+000
    endloop
  endfacet
  facet normal  -0.000000e+000  0.000000e+000 -1.000000e+000
    outer loop
      vertex  1.655543e+001 -1.854362e+001 -4.000000e+000
      vertex  3.344457e+001 -1.945638e+001 -4.000000e+000
      vertex  1.642256e+001 -1.977715e+001 -4.000000e+000
    endloop
  endfacet
  facet normal  0.000000e+000  -0.000000e+000  1.000000e+000
    outer loop
      vertex  0.000000e+000 -1.100000e+001  2.220446e-016
      vertex  3.577715e+001 -1.757744e+001  2.220446e-016
      vertex  5.000000e+001 -1.100000e+001  2.220446e-016
    endloop
  endfacet
  facet normal  0.000000e+000  -0.000000e+000  1.000000e+000
    outer loop
      vertex  3.577715e+001 -1.757744e+001  2.220446e-016
      vertex  3.655543e+001 -1.854362e+001  2.220446e-016
      vertex  5.000000e+001 -1.100000e+001  2.220446e-016
    endloop
  endfacet
  facet normal  0.000000e+000  0.000000e+000  1.000000e+000
    outer loop
      vertex  1.545638e+001 -2.055543e+001  2.220446e-016
      vertex  3.344457e+001 -1.945638e+001  2.220446e-016
      vertex  1.642256e+001 -1.977715e+001  2.220446e-016
    endloop
  endfacet
  facet normal  0.000000e+000  0.000000e+000  1.000000e+000
    outer loop
      vertex  0.000000e+000 -1.100000e+001  2.220446e-016
      vertex  0.000000e+000 -2.200000e+001  2.220446e-016
      vertex  1.344457e+001 -1.945638e+001  2.220446e-016
    endloop
  endfacet
  facet normal  0.000000e+000  -0.000000e+000  1.000000e+000
    outer loop
      vertex  0.000000e+000 -1.100000e+001  2.220446e-016
      vertex  1.344457e+001 -1.945638e+001  2.220446e-016
      vertex  1.357744e+001 -1.822285e+001  2.220446e-016
    endloop
  endfacet
  facet normal  0.000000e+000  -0.000000e+000  1.000000e+000
    outer loop
      vertex  0.000000e+000 -1.100000e+001  2.220446e-016
      vertex  1.357744e+001 -1.822285e+001  2.220446e-016
      vertex  1.454362e+001 -1.744457e+001  2.220446e-016
    endloop
  endfacet
  facet normal  -0.000000e+000  -0.000000e+000  1.000000e+000
    outer loop
      vertex  0.000000e+000 -1.100000e+001  2.220446e-016
      vertex  1.454362e+001 -1.744457e+001  2.220446e-016
      vertex  1.577715e+001 -1.757744e+001  2.220446e-016
    endloop
  endfacet
  facet normal  -0.000000e+000  -0.000000e+000  1.000000e+000
    outer loop
      vertex  0.000000e+000 -1.100000e+001  2.220446e-016
      vertex  1.577715e+001 -1.757744e+001  2.220446e-016
      vertex  3.357744e+001 -1.822285e+001  2.220446e-016
    endloop
  endfacet
  facet normal  0.000000e+000  -0.000000e+000  1.000000e+000
    outer loop
      vertex  0.000000e+000 -1.100000e+001  2.220446e-016
      vertex  3.357744e+001 -1.822285e+001  2.220446e-016
      vertex  3.454362e+001 -1.744457e+001  2.220446e-016
    endloop
  endfacet
  facet normal  -0.000000e+000  -0.000000e+000  1.000000e+000
    outer loop
      vertex  0.000000e+000 -1.100000e+001  2.220446e-016
      vertex  3.454362e+001 -1.744457e+001  2.220446e-016
      vertex  3.577715e+001 -1.757744e+001  2.220446e-016
    endloop
  endfacet
  facet normal  0.000000e+000  0.000000e+000  1.000000e+000
    outer loop
      vertex  0.000000e+000 -2.200000e+001  2.220446e-016
      vertex  5.000000e+001 -2.200000e+001  2.220446e-016
      vertex  3.545638e+001 -2.055543e+001  2.220446e-016
    endloop
  endfacet
  facet normal  0.000000e+000  0.000000e+000  1.000000e+000
    outer loop
      vertex  0.000000e+000 -2.200000e+001  2.220446e-016
      vertex  3.545638e+001 -2.055543e+001  2.220446e-016
      vertex  3.422285e+001 -2.042256e+001  2.220446e-016
    endloop
  endfacet
  facet normal  0.000000e+000  0.000000e+000  1.000000e+000
    outer loop
      vertex  0.000000e+000 -2.200000e+001  2.220446e-016
      vertex  3.422285e+001 -2.042256e+001  2.220446e-016
      vertex  3.344457e+001 -1.945638e+001  2.220446e-016
    endloop
  endfacet
  facet normal  0.000000e+000  0.000000e+000  1.000000e+000
    outer loop
      vertex  0.000000e+000 -2.200000e+001  2.220446e-016
      vertex  3.344457e+001 -1.945638e+001  2.220446e-016
      vertex  1.545638e+001 -2.055543e+001  2.220446e-016
    endloop
  endfacet
  facet normal  0.000000e+000  0.000000e+000  9.999999e-001
    outer loop
      vertex  0.000000e+000 -2.200000e+001  2.220446e-016
      vertex  1.545638e+001 -2.055543e+001  2.220446e-016
      vertex  1.422285e+001 -2.042256e+001  2.220446e-016
    endloop
  endfacet
  facet normal  0.000000e+000  0.000000e+000  1.000000e+000
    outer loop
      vertex  0.000000e+000 -2.200000e+001  2.220446e-016
      vertex  1.422285e+001 -2.042256e+001  2.220446e-016
      vertex  1.344457e+001 -1.945638e+001  2.220446e-016
    endloop
  endfacet
  facet normal  0.000000e+000  0.000000e+000  1.000000e+000
    outer loop
      vertex  5.000000e+001 -2.200000e+001  2.220446e-016
      vertex  5.000000e+001 -1.100000e+001  2.220446e-016
      vertex  3.655543e+001 -1.854362e+001  2.220446e-016
    endloop
  endfacet
  facet normal  0.000000e+000  0.000000e+000  1.000000e+000
    outer loop
      vertex  5.000000e+001 -2.200000e+001  2.220446e-016
      vertex  3.655543e+001 -1.854362e+001  2.220446e-016
      vertex  3.642256e+001 -1.977715e+001  2.220446e-016
    endloop
  endfacet
  facet normal  0.000000e+000  0.000000e+000  1.000000e+000
    outer loop
      vertex  5.000000e+001 -2.200000e+001  2.220446e-016
      vertex  3.642256e+001 -1.977715e+001  2.220446e-016
      vertex  3.545638e+001 -2.055543e+001  2.220446e-016
    endloop
  endfacet
  facet normal  0.000000e+000  0.000000e+000  1.000000e+000
    outer loop
      vertex  1.642256e+001 -1.977715e+001  2.220446e-016
      vertex  3.344457e+001 -1.945638e+001  2.220446e-016
      vertex  1.655543e+001 -1.854362e+001  2.220446e-016
    endloop
  endfacet
  facet normal  -0.000000e+000  0.000000e+000  1.000000e+000
    outer loop
      vertex  1.655543e+001 -1.854362e+001  2.220446e-016
      vertex  3.344457e+001 -1.945638e+001  2.220446e-016
      vertex  3.357744e+001 -1.822285e+001  2.220446e-016
    endloop
  endfacet
  facet normal  0.000000e+000  0.000000e+000  1.000000e+000
    outer loop
      vertex  1.655543e+001 -1.854362e+001  2.220446e-016
      vertex  3.357744e+001 -1.822285e+001  2.220446e-016
      vertex  1.577715e+001 -1.757744e+001  2.220446e-016
    endloop
  endfacet
  facet normal  7.787676e-001  6.273125e-001  -0.000000e+000
    outer loop
      vertex  3.422285e+001 -2.042256e+001  2.220446e-016
      vertex  3.344457e+001 -1.945638e+001 -4.000000e+000
      vertex  3.344457e+001 -1.945638e+001  2.220446e-016
    endloop
  endfacet
  facet normal  9.942487e-001 -1.070960e-001  0.000000e+000
    outer loop
      vertex  3.344457e+001 -1.945638e+001  2.220446e-016
      vertex  3.344457e+001 -1.945638e+001 -4.000000e+000
      vertex  3.357744e+001 -1.822285e+001 -4.000000e+000
    endloop
  endfacet
  facet normal  9.942487e-001 -1.070960e-001  0.000000e+000
    outer loop
      vertex  3.344457e+001 -1.945638e+001  2.220446e-016
      vertex  3.357744e+001 -1.822285e+001 -4.000000e+000
      vertex  3.357744e+001 -1.822285e+001  2.220446e-016
    endloop
  endfacet
  facet normal  7.787676e-001  6.273125e-001  0.000000e+000
    outer loop
      vertex  3.344457e+001 -1.945638e+001 -4.000000e+000
      vertex  3.422285e+001 -2.042256e+001  2.220446e-016
      vertex  3.422285e+001 -2.042256e+001 -4.000000e+000
    endloop
  endfacet
  facet normal  1.070945e-001  9.942489e-001  -0.000000e+000
    outer loop
      vertex  3.422285e+001 -2.042256e+001 -4.000000e+000
      vertex  3.422285e+001 -2.042256e+001  2.220446e-016
      vertex  3.545638e+001 -2.055543e+001  2.220446e-016
    endloop
  endfacet
  facet normal  1.070945e-001  9.942489e-001  0.000000e+000
    outer loop
      vertex  3.422285e+001 -2.042256e+001 -4.000000e+000
      vertex  3.545638e+001 -2.055543e+001  2.220446e-016
      vertex  3.545638e+001 -2.055543e+001 -4.000000e+000
    endloop
  endfacet
  facet normal -6.273116e-001  7.787684e-001  0.000000e+000
    outer loop
      vertex  3.545638e+001 -2.055543e+001 -4.000000e+000
      vertex  3.545638e+001 -2.055543e+001  2.220446e-016
      vertex  3.642256e+001 -1.977715e+001  2.220446e-016
    endloop
  endfacet
  facet normal -6.273116e-001  7.787684e-001  0.000000e+000
    outer loop
      vertex  3.545638e+001 -2.055543e+001 -4.000000e+000
      vertex  3.642256e+001 -1.977715e+001  2.220446e-016
      vertex  3.642256e+001 -1.977715e+001 -4.000000e+000
    endloop
  endfacet
  facet normal -7.787676e-001 -6.273125e-001  0.000000e+000
    outer loop
      vertex  3.577715e+001 -1.757744e+001  2.220446e-016
      vertex  3.655543e+001 -1.854362e+001 -4.000000e+000
      vertex  3.655543e+001 -1.854362e+001  2.220446e-016
    endloop
  endfacet
  facet normal -9.942487e-001  1.070960e-001  0.000000e+000
    outer loop
      vertex  3.655543e+001 -1.854362e+001  2.220446e-016
      vertex  3.655543e+001 -1.854362e+001 -4.000000e+000
      vertex  3.642256e+001 -1.977715e+001 -4.000000e+000
    endloop
  endfacet
  facet normal -9.942487e-001  1.070960e-001  0.000000e+000
    outer loop
      vertex  3.655543e+001 -1.854362e+001  2.220446e-016
      vertex  3.642256e+001 -1.977715e+001 -4.000000e+000
      vertex  3.642256e+001 -1.977715e+001  2.220446e-016
    endloop
  endfacet
  facet normal -7.787676e-001 -6.273125e-001  -0.000000e+000
    outer loop
      vertex  3.655543e+001 -1.854362e+001 -4.000000e+000
      vertex  3.577715e+001 -1.757744e+001  2.220446e-016
      vertex  3.577715e+001 -1.757744e+001 -4.000000e+000
    endloop
  endfacet
  facet normal -1.070945e-001 -9.942489e-001  0.000000e+000
    outer loop
      vertex  3.577715e+001 -1.757744e+001 -4.000000e+000
      vertex  3.577715e+001 -1.757744e+001  2.220446e-016
      vertex  3.454362e+001 -1.744457e+001  2.220446e-016
    endloop
  endfacet
  facet normal -1.070945e-001 -9.942489e-001  -0.000000e+000
    outer loop
      vertex  3.577715e+001 -1.757744e+001 -4.000000e+000
      vertex  3.454362e+001 -1.744457e+001  2.220446e-016
      vertex  3.454362e+001 -1.744457e+001 -4.000000e+000
    endloop
  endfacet
  facet normal  6.273116e-001 -7.787684e-001  0.000000e+000
    outer loop
      vertex  3.454362e+001 -1.744457e+001 -4.000000e+000
      vertex  3.454362e+001 -1.744457e+001  2.220446e-016
      vertex  3.357744e+001 -1.822285e+001  2.220446e-016
    endloop
  endfacet
  facet normal  6.273116e-001 -7.787684e-001  0.000000e+000
    outer loop
      vertex  3.454362e+001 -1.744457e+001 -4.000000e+000
      vertex  3.357744e+001 -1.822285e+001  2.220446e-016
      vertex  3.357744e+001 -1.822285e+001 -4.000000e+000
    endloop
  endfacet
  facet normal  7.787680e-001  6.273121e-001  -0.000000e+000
    outer loop
      vertex  1.422285e+001 -2.042256e+001  2.220446e-016
      vertex  1.344457e+001 -1.945638e+001 -4.000000e+000
      vertex  1.344457e+001 -1.945638e+001  2.220446e-016
    endloop
  endfacet
  facet normal  9.942488e-001 -1.070953e-001  0.000000e+000
    outer loop
      vertex  1.344457e+001 -1.945638e+001  2.220446e-016
      vertex  1.344457e+001 -1.945638e+001 -4.000000e+000
      vertex  1.357744e+001 -1.822285e+001 -4.000000e+000
    endloop
  endfacet
  facet normal  9.942488e-001 -1.070953e-001  0.000000e+000
    outer loop
      vertex  1.344457e+001 -1.945638e+001  2.220446e-016
      vertex  1.357744e+001 -1.822285e+001 -4.000000e+000
      vertex  1.357744e+001 -1.822285e+001  2.220446e-016
    endloop
  endfacet
  facet normal  7.787680e-001  6.273121e-001  0.000000e+000
    outer loop
      vertex  1.344457e+001 -1.945638e+001 -4.000000e+000
      vertex  1.422285e+001 -2.042256e+001  2.220446e-016
      vertex  1.422285e+001 -2.042256e+001 -4.000000e+000
    endloop
  endfacet
  facet normal  1.070945e-001  9.942489e-001  -0.000000e+000
    outer loop
      vertex  1.422285e+001 -2.042256e+001 -4.000000e+000
      vertex  1.422285e+001 -2.042256e+001  2.220446e-016
      vertex  1.545638e+001 -2.055543e+001  2.220446e-016
    endloop
  endfacet
  facet normal  1.070945e-001  9.942489e-001  0.000000e+000
    outer loop
      vertex  1.422285e+001 -2.042256e+001 -4.000000e+000
      vertex  1.545638e+001 -2.055543e+001  2.220446e-016
      vertex  1.545638e+001 -2.055543e+001 -4.000000e+000
    endloop
  endfacet
  facet normal -6.273116e-001  7.787684e-001  0.000000e+000
    outer loop
      vertex  1.545638e+001 -2.055543e+001 -4.000000e+000
      vertex  1.545638e+001 -2.055543e+001  2.220446e-016
      vertex  1.642256e+001 -1.977715e+001  2.220446e-016
    endloop
  endfacet
  facet normal -6.273116e-001  7.787684e-001  0.000000e+000
    outer loop
      vertex  1.545638e+001 -2.055543e+001 -4.000000e+000
      vertex  1.642256e+001 -1.977715e+001  2.220446e-016
      vertex  1.642256e+001 -1.977715e+001 -4.000000e+000
    endloop
  endfacet
  facet normal -7.787684e-001 -6.273116e-001  0.000000e+000
    outer loop
      vertex  1.577715e+001 -1.757744e+001  2.220446e-016
      vertex  1.655543e+001 -1.854362e+001 -4.000000e+000
      vertex  1.655543e+001 -1.854362e+001  2.220446e-016
    endloop
  endfacet
  facet normal -9.942489e-001  1.070945e-001  0.000000e+000
    outer loop
      vertex  1.655543e+001 -1.854362e+001  2.220446e-016
      vertex  1.655543e+001 -1.854362e+001 -4.000000e+000
      vertex  1.642256e+001 -1.977715e+001 -4.000000e+000
    endloop
  endfacet
  facet normal -9.942489e-001  1.070945e-001  0.000000e+000
    outer loop
      vertex  1.655543e+001 -1.854362e+001  2.220446e-016
      vertex  1.642256e+001 -1.977715e+001 -4.000000e+000
      vertex  1.642256e+001 -1.977715e+001  2.220446e-016
    endloop
  endfacet
  facet normal -7.787684e-001 -6.273116e-001  -0.000000e+000
    outer loop
      vertex  1.655543e+001 -1.854362e+001 -4.000000e+000
      vertex  1.577715e+001 -1.757744e+001  2.220446e-016
      vertex  1.577715e+001 -1.757744e+001 -4.000000e+000
    endloop
  endfacet
  facet normal -1.070945e-001 -9.942489e-001  0.000000e+000
    outer loop
      vertex  1.577715e+001 -1.757744e+001 -4.000000e+000
      vertex  1.577715e+001 -1.757744e+001  2.220446e-016
      vertex  1.454362e+001 -1.744457e+001  2.220446e-016
    endloop
  endfacet
  facet normal -1.070945e-001 -9.942489e-001  -0.000000e+000
    outer loop
      vertex  1.577715e+001 -1.757744e+001 -4.000000e+000
      vertex  1.454362e+001 -1.744457e+001  2.220446e-016
      vertex  1.454362e+001 -1.744457e+001 -4.000000e+000
    endloop
  endfacet
  facet normal  6.273116e-001 -7.787684e-001  0.000000e+000
    outer loop
      vertex  1.454362e+001 -1.744457e+001 -4.000000e+000
      vertex  1.454362e+001 -1.744457e+001  2.220446e-016
      vertex  1.357744e+001 -1.822285e+001  2.220446e-016
    endloop
  endfacet
  facet normal  6.273116e-001 -7.787684e-001  0.000000e+000
    outer loop
      vertex  1.454362e+001 -1.744457e+001 -4.000000e+000
      vertex  1.357744e+001 -1.822285e+001  2.220446e-016
      vertex  1.357744e+001 -1.822285e+001 -4.000000e+000
    endloop
  endfacet
  facet normal  0.000000e+000  0.000000e+000 -1.000000e+000
    outer loop
      vertex  1.642256e+001  1.822285e+001 -4.000000e+000
      vertex  3.344457e+001  1.854362e+001 -4.000000e+000
      vertex  1.545638e+001  1.744457e+001 -4.000000e+000
    endloop
  endfacet
  facet normal  0.000000e+000  -0.000000e+000 -1.000000e+000
    outer loop
      vertex  1.642256e+001  1.822285e+001 -4.000000e+000
      vertex  1.655543e+001  1.945638e+001 -4.000000e+000
      vertex  3.344457e+001  1.854362e+001 -4.000000e+000
    endloop
  endfacet
  facet normal  -0.000000e+000  0.000000e+000 -1.000000e+000
    outer loop
      vertex  0.000000e+000  2.200000e+001 -4.000000e+000
      vertex  3.454362e+001  2.055543e+001 -4.000000e+000
      vertex  3.357744e+001  1.977715e+001 -4.000000e+000
    endloop
  endfacet
  facet normal  0.000000e+000  0.000000e+000 -1.000000e+000
    outer loop
      vertex  0.000000e+000  2.200000e+001 -4.000000e+000
      vertex  3.357744e+001  1.977715e+001 -4.000000e+000
      vertex  1.454362e+001  2.055543e+001 -4.000000e+000
    endloop
  endfacet
  facet normal  -0.000000e+000  0.000000e+000 -1.000000e+000
    outer loop
      vertex  0.000000e+000  2.200000e+001 -4.000000e+000
      vertex  1.454362e+001  2.055543e+001 -4.000000e+000
      vertex  1.357744e+001  1.977715e+001 -4.000000e+000
    endloop
  endfacet
  facet normal  -0.000000e+000  0.000000e+000 -1.000000e+000
    outer loop
      vertex  0.000000e+000  2.200000e+001 -4.000000e+000
      vertex  1.357744e+001  1.977715e+001 -4.000000e+000
      vertex  1.344457e+001  1.854362e+001 -4.000000e+000
    endloop
  endfacet
  facet normal  -0.000000e+000  0.000000e+000 -1.000000e+000
    outer loop
      vertex  0.000000e+000  2.200000e+001 -4.000000e+000
      vertex  1.344457e+001  1.854362e+001 -4.000000e+000
      vertex  0.000000e+000  1.549193e+001 -4.000000e+000
    endloop
  endfacet
  facet normal  0.000000e+000  -0.000000e+000 -9.999999e-001
    outer loop
      vertex  0.000000e+000  1.549193e+001 -4.000000e+000
      vertex  1.344457e+001  1.854362e+001 -4.000000e+000
      vertex  1.422285e+001  1.757744e+001 -4.000000e+000
    endloop
  endfacet
  facet normal  0.000000e+000  -0.000000e+000 -1.000000e+000
    outer loop
      vertex  0.000000e+000  1.549193e+001 -4.000000e+000
      vertex  1.422285e+001  1.757744e+001 -4.000000e+000
      vertex  1.545638e+001  1.744457e+001 -4.000000e+000
    endloop
  endfacet
  facet normal  0.000000e+000  -0.000000e+000 -1.000000e+000
    outer loop
      vertex  0.000000e+000  1.549193e+001 -4.000000e+000
      vertex  1.545638e+001  1.744457e+001 -4.000000e+000
      vertex  3.344457e+001  1.854362e+001 -4.000000e+000
    endloop
  endfacet
  facet normal  0.000000e+000  -0.000000e+000 -1.000000e+000
    outer loop
      vertex  0.000000e+000  1.549193e+001 -4.000000e+000
      vertex  3.344457e+001  1.854362e+001 -4.000000e+000
      vertex  3.422285e+001  1.757744e+001 -4.000000e+000
    endloop
  endfacet
  facet normal  0.000000e+000  -0.000000e+000 -1.000000e+000
    outer loop
      vertex  0.000000e+000  1.549193e+001 -4.000000e+000
      vertex  3.422285e+001  1.757744e+001 -4.000000e+000
      vertex  3.545638e+001  1.744457e+001 -4.000000e+000
    endloop
  endfacet
  facet normal  0.000000e+000  -0.000000e+000 -1.000000e+000
    outer loop
      vertex  0.000000e+000  1.549193e+001 -4.000000e+000
      vertex  3.545638e+001  1.744457e+001 -4.000000e+000
      vertex  5.000000e+001  1.549193e+001 -4.000000e+000
    endloop
  endfacet
  facet normal  0.000000e+000  0.000000e+000 -1.000000e+000
    outer loop
      vertex  5.000000e+001  1.549193e+001 -4.000000e+000
      vertex  3.545638e+001  1.744457e+001 -4.000000e+000
      vertex  3.642256e+001  1.822285e+001 -4.000000e+000
    endloop
  endfacet
  facet normal  0.000000e+000  0.000000e+000 -1.000000e+000
    outer loop
      vertex  5.000000e+001  1.549193e+001 -4.000000e+000
      vertex  3.642256e+001  1.822285e+001 -4.000000e+000
      vertex  3.655543e+001  1.945638e+001 -4.000000e+000
    endloop
  endfacet
  facet normal  0.000000e+000  0.000000e+000 -1.000000e+000
    outer loop
      vertex  5.000000e+001  1.549193e+001 -4.000000e+000
      vertex  3.655543e+001  1.945638e+001 -4.000000e+000
      vertex  5.000000e+001  2.200000e+001 -4.000000e+000
    endloop
  endfacet
  facet normal  0.000000e+000  0.000000e+000 -9.999999e-001
    outer loop
      vertex  5.000000e+001  2.200000e+001 -4.000000e+000
      vertex  3.655543e+001  1.945638e+001 -4.000000e+000
      vertex  3.577715e+001  2.042256e+001 -4.000000e+000
    endloop
  endfacet
  facet normal  0.000000e+000  0.000000e+000 -9.999999e-001
    outer loop
      vertex  5.000000e+001  2.200000e+001 -4.000000e+000
      vertex  3.577715e+001  2.042256e+001 -4.000000e+000
      vertex  3.454362e+001  2.055543e+001 -4.000000e+000
    endloop
  endfacet
  facet normal  0.000000e+000  0.000000e+000 -1.000000e+000
    outer loop
      vertex  5.000000e+001  2.200000e+001 -4.000000e+000
      vertex  3.454362e+001  2.055543e+001 -4.000000e+000
      vertex  0.000000e+000  2.200000e+001 -4.000000e+000
    endloop
  endfacet
  facet normal  0.000000e+000  0.000000e+000 -1.000000e+000
    outer loop
      vertex  3.344457e+001  1.854362e+001 -4.000000e+000
      vertex  1.655543e+001  1.945638e+001 -4.000000e+000
      vertex  3.357744e+001  1.977715e+001 -4.000000e+000
    endloop
  endfacet
  facet normal  -0.000000e+000  0.000000e+000 -1.000000e+000
    outer loop
      vertex  3.357744e+001  1.977715e+001 -4.000000e+000
      vertex  1.655543e+001  1.945638e+001 -4.000000e+000
      vertex  1.577715e+001  2.042256e+001 -4.000000e+000
    endloop
  endfacet
  facet normal  0.000000e+000  0.000000e+000 -1.000000e+000
    outer loop
      vertex  3.357744e+001  1.977715e+001 -4.000000e+000
      vertex  1.577715e+001  2.042256e+001 -4.000000e+000
      vertex  1.454362e+001  2.055543e+001 -4.000000e+000
    endloop
  endfacet
  facet normal  0.000000e+000  0.000000e+000  1.000000e+000
    outer loop
      vertex  1.545638e+001  1.744457e+001  2.220446e-016
      vertex  3.344457e+001  1.854362e+001  2.220446e-016
      vertex  1.642256e+001  1.822285e+001  2.220446e-016
    endloop
  endfacet
  facet normal  0.000000e+000  0.000000e+000  1.000000e+000
    outer loop
      vertex  3.344457e+001  1.854362e+001  2.220446e-016
      vertex  1.655543e+001  1.945638e+001  2.220446e-016
      vertex  1.642256e+001  1.822285e+001  2.220446e-016
    endloop
  endfacet
  facet normal -1.132611e-017  2.018587e-017  1.000000e+000
    outer loop
      vertex  0.000000e+000  2.200000e+001  0.000000e+000
      vertex  0.000000e+000  1.100000e+001  2.220446e-016
      vertex  1.344457e+001  1.854362e+001  2.220446e-016
    endloop
  endfacet
  facet normal -1.607054e-017  1.731034e-018  1.000000e+000
    outer loop
      vertex  0.000000e+000  2.200000e+001  0.000000e+000
      vertex  1.344457e+001  1.854362e+001  2.220446e-016
      vertex  1.357744e+001  1.977715e+001  2.220446e-016
    endloop
  endfacet
  facet normal -1.359154e-017  1.687305e-017  1.000000e+000
    outer loop
      vertex  0.000000e+000  2.200000e+001  0.000000e+000
      vertex  1.357744e+001  1.977715e+001  2.220446e-016
      vertex  1.454362e+001  2.055543e+001  2.220446e-016
    endloop
  endfacet
  facet normal  1.068285e-017  2.612624e-016  1.000000e+000
    outer loop
      vertex  0.000000e+000  2.200000e+001  0.000000e+000
      vertex  1.454362e+001  2.055543e+001  2.220446e-016
      vertex  3.357744e+001  1.977715e+001  2.220446e-016
    endloop
  endfacet
  facet normal -6.110708e-018  7.586063e-018  1.000000e+000
    outer loop
      vertex  0.000000e+000  2.200000e+001  0.000000e+000
      vertex  3.357744e+001  1.977715e+001  2.220446e-016
      vertex  3.454362e+001  2.055543e+001  2.220446e-016
    endloop
  endfacet
  facet normal  0.000000e+000  0.000000e+000  1.000000e+000
    outer loop
      vertex  0.000000e+000  1.100000e+001  2.220446e-016
      vertex  5.000000e+001  1.100000e+001  2.220446e-016
      vertex  3.545638e+001  1.744457e+001  2.220446e-016
    endloop
  endfacet
  facet normal  0.000000e+000  0.000000e+000  1.000000e+000
    outer loop
      vertex  0.000000e+000  1.100000e+001  2.220446e-016
      vertex  3.545638e+001  1.744457e+001  2.220446e-016
      vertex  3.422285e+001  1.757744e+001  2.220446e-016
    endloop
  endfacet
  facet normal  0.000000e+000  0.000000e+000  1.000000e+000
    outer loop
      vertex  0.000000e+000  1.100000e+001  2.220446e-016
      vertex  3.422285e+001  1.757744e+001  2.220446e-016
      vertex  3.344457e+001  1.854362e+001  2.220446e-016
    endloop
  endfacet
  facet normal  0.000000e+000  0.000000e+000  1.000000e+000
    outer loop
      vertex  0.000000e+000  1.100000e+001  2.220446e-016
      vertex  3.344457e+001  1.854362e+001  2.220446e-016
      vertex  1.545638e+001  1.744457e+001  2.220446e-016
    endloop
  endfacet
  facet normal  0.000000e+000  0.000000e+000  1.000000e+000
    outer loop
      vertex  0.000000e+000  1.100000e+001  2.220446e-016
      vertex  1.545638e+001  1.744457e+001  2.220446e-016
      vertex  1.422285e+001  1.757744e+001  2.220446e-016
    endloop
  endfacet
  facet normal  0.000000e+000  0.000000e+000  1.000000e+000
    outer loop
      vertex  0.000000e+000  1.100000e+001  2.220446e-016
      vertex  1.422285e+001  1.757744e+001  2.220446e-016
      vertex  1.344457e+001  1.854362e+001  2.220446e-016
    endloop
  endfacet
  facet normal  1.269653e-017  2.018587e-017  1.000000e+000
    outer loop
      vertex  5.000000e+001  1.100000e+001  2.220446e-016
      vertex  5.000000e+001  2.200000e+001  0.000000e+000
      vertex  3.655543e+001  1.945638e+001  2.220446e-016
    endloop
  endfacet
  facet normal  0.000000e+000  0.000000e+000  1.000000e+000
    outer loop
      vertex  5.000000e+001  1.100000e+001  2.220446e-016
      vertex  3.655543e+001  1.945638e+001  2.220446e-016
      vertex  3.642256e+001  1.822285e+001  2.220446e-016
    endloop
  endfacet
  facet normal  0.000000e+000  0.000000e+000  1.000000e+000
    outer loop
      vertex  5.000000e+001  1.100000e+001  2.220446e-016
      vertex  3.642256e+001  1.822285e+001  2.220446e-016
      vertex  3.545638e+001  1.744457e+001  2.220446e-016
    endloop
  endfacet
  facet normal  -0.000000e+000  1.537098e-016  1.000000e+000
    outer loop
      vertex  5.000000e+001  2.200000e+001  0.000000e+000
      vertex  0.000000e+000  2.200000e+001  0.000000e+000
      vertex  3.454362e+001  2.055543e+001  2.220446e-016
    endloop
  endfacet
  facet normal  7.691843e-018  7.140988e-017  9.999999e-001
    outer loop
      vertex  5.000000e+001  2.200000e+001  0.000000e+000
      vertex  3.454362e+001  2.055543e+001  2.220446e-016
      vertex  3.577715e+001  2.042256e+001  2.220446e-016
    endloop
  endfacet
  facet normal  1.433146e-017  1.154427e-017  1.000000e+000
    outer loop
      vertex  5.000000e+001  2.200000e+001  0.000000e+000
      vertex  3.577715e+001  2.042256e+001  2.220446e-016
      vertex  3.655543e+001  1.945638e+001  2.220446e-016
    endloop
  endfacet
  facet normal  -0.000000e+000  -0.000000e+000  1.000000e+000
    outer loop
      vertex  1.454362e+001  2.055543e+001  2.220446e-016
      vertex  1.577715e+001  2.042256e+001  2.220446e-016
      vertex  3.357744e+001  1.977715e+001  2.220446e-016
    endloop
  endfacet
  facet normal  0.000000e+000  0.000000e+000  1.000000e+000
    outer loop
      vertex  3.357744e+001  1.977715e+001  2.220446e-016
      vertex  1.577715e+001  2.042256e+001  2.220446e-016
      vertex  1.655543e+001  1.945638e+001  2.220446e-016
    endloop
  endfacet
  facet normal  -0.000000e+000  0.000000e+000  1.000000e+000
    outer loop
      vertex  3.357744e+001  1.977715e+001  2.220446e-016
      vertex  1.655543e+001  1.945638e+001  2.220446e-016
      vertex  3.344457e+001  1.854362e+001  2.220446e-016
    endloop
  endfacet
  facet normal  7.787680e-001  6.273121e-001  -0.000000e+000
    outer loop
      vertex  1.422285e+001  1.757744e+001  2.220446e-016
      vertex  1.344457e+001  1.854362e+001 -4.000000e+000
      vertex  1.344457e+001  1.854362e+001  2.220446e-016
    endloop
  endfacet
  facet normal  9.942488e-001 -1.070953e-001  0.000000e+000
    outer loop
      vertex  1.344457e+001  1.854362e+001  2.220446e-016
      vertex  1.344457e+001  1.854362e+001 -4.000000e+000
      vertex  1.357744e+001  1.977715e+001 -4.000000e+000
    endloop
  endfacet
  facet normal  9.942488e-001 -1.070953e-001  0.000000e+000
    outer loop
      vertex  1.344457e+001  1.854362e+001  2.220446e-016
      vertex  1.357744e+001  1.977715e+001 -4.000000e+000
      vertex  1.357744e+001  1.977715e+001  2.220446e-016
    endloop
  endfacet
  facet normal  7.787680e-001  6.273121e-001  0.000000e+000
    outer loop
      vertex  1.344457e+001  1.854362e+001 -4.000000e+000
      vertex  1.422285e+001  1.757744e+001  2.220446e-016
      vertex  1.422285e+001  1.757744e+001 -4.000000e+000
    endloop
  endfacet
  facet normal  1.070945e-001  9.942489e-001  -0.000000e+000
    outer loop
      vertex  1.422285e+001  1.757744e+001 -4.000000e+000
      vertex  1.422285e+001  1.757744e+001  2.220446e-016
      vertex  1.545638e+001  1.744457e+001  2.220446e-016
    endloop
  endfacet
  facet normal  1.070945e-001  9.942489e-001  0.000000e+000
    outer loop
      vertex  1.422285e+001  1.757744e+001 -4.000000e+000
      vertex  1.545638e+001  1.744457e+001  2.220446e-016
      vertex  1.545638e+001  1.744457e+001 -4.000000e+000
    endloop
  endfacet
  facet normal -6.273116e-001  7.787684e-001  0.000000e+000
    outer loop
      vertex  1.545638e+001  1.744457e+001 -4.000000e+000
      vertex  1.545638e+001  1.744457e+001  2.220446e-016
      vertex  1.642256e+001  1.822285e+001  2.220446e-016
    endloop
  endfacet
  facet normal -6.273116e-001  7.787684e-001  0.000000e+000
    outer loop
      vertex  1.545638e+001  1.744457e+001 -4.000000e+000
      vertex  1.642256e+001  1.822285e+001  2.220446e-016
      vertex  1.642256e+001  1.822285e+001 -4.000000e+000
    endloop
  endfacet
  facet normal -7.787684e-001 -6.273116e-001  0.000000e+000
    outer loop
      vertex  1.577715e+001  2.042256e+001  2.220446e-016
      vertex  1.655543e+001  1.945638e+001 -4.000000e+000
      vertex  1.655543e+001  1.945638e+001  2.220446e-016
    endloop
  endfacet
  facet normal -9.942489e-001  1.070945e-001  0.000000e+000
    outer loop
      vertex  1.655543e+001  1.945638e+001  2.220446e-016
      vertex  1.655543e+001  1.945638e+001 -4.000000e+000
      vertex  1.642256e+001  1.822285e+001 -4.000000e+000
    endloop
  endfacet
  facet normal -9.942489e-001  1.070945e-001  0.000000e+000
    outer loop
      vertex  1.655543e+001  1.945638e+001  2.220446e-016
      vertex  1.642256e+001  1.822285e+001 -4.000000e+000
      vertex  1.642256e+001  1.822285e+001  2.220446e-016
    endloop
  endfacet
  facet normal -7.787684e-001 -6.273116e-001  -0.000000e+000
    outer loop
      vertex  1.655543e+001  1.945638e+001 -4.000000e+000
      vertex  1.577715e+001  2.042256e+001  2.220446e-016
      vertex  1.577715e+001  2.042256e+001 -4.000000e+000
    endloop
  endfacet
  facet normal -1.070945e-001 -9.942489e-001  0.000000e+000
    outer loop
      vertex  1.577715e+001  2.042256e+001 -4.000000e+000
      vertex  1.577715e+001  2.042256e+001  2.220446e-016
      vertex  1.454362e+001  2.055543e+001  2.220446e-016
    endloop
  endfacet
  facet normal -1.070945e-001 -9.942489e-001  -0.000000e+000
    outer loop
      vertex  1.577715e+001  2.042256e+001 -4.000000e+000
      vertex  1.454362e+001  2.055543e+001  2.220446e-016
      vertex  1.454362e+001  2.055543e+001 -4.000000e+000
    endloop
  endfacet
  facet normal  6.273116e-001 -7.787684e-001  0.000000e+000
    outer loop
      vertex  1.454362e+001  2.055543e+001 -4.000000e+000
      vertex  1.454362e+001  2.055543e+001  2.220446e-016
      vertex  1.357744e+001  1.977715e+001  2.220446e-016
    endloop
  endfacet
  facet normal  6.273116e-001 -7.787684e-001  0.000000e+000
    outer loop
      vertex  1.454362e+001  2.055543e+001 -4.000000e+000
      vertex  1.357744e+001  1.977715e+001  2.220446e-016
      vertex  1.357744e+001  1.977715e+001 -4.000000e+000
    endloop
  endfacet
  facet normal  7.787676e-001  6.273125e-001  -0.000000e+000
    outer loop
      vertex  3.422285e+001  1.757744e+001  2.220446e-016
      vertex  3.344457e+001  1.854362e+001 -4.000000e+000
      vertex  3.344457e+001  1.854362e+001  2.220446e-016
    endloop
  endfacet
  facet normal  9.942487e-001 -1.070960e-001  0.000000e+000
    outer loop
      vertex  3.344457e+001  1.854362e+001  2.220446e-016
      vertex  3.344457e+001  1.854362e+001 -4.000000e+000
      vertex  3.357744e+001  1.977715e+001 -4.000000e+000
    endloop
  endfacet
  facet normal  9.942487e-001 -1.070960e-001  0.000000e+000
    outer loop
      vertex  3.344457e+001  1.854362e+001  2.220446e-016
      vertex  3.357744e+001  1.977715e+001 -4.000000e+000
      vertex  3.357744e+001  1.977715e+001  2.220446e-016
    endloop
  endfacet
  facet normal  7.787676e-001  6.273125e-001  0.000000e+000
    outer loop
      vertex  3.344457e+001  1.854362e+001 -4.000000e+000
      vertex  3.422285e+001  1.757744e+001  2.220446e-016
      vertex  3.422285e+001  1.757744e+001 -4.000000e+000
    endloop
  endfacet
  facet normal  1.070945e-001  9.942489e-001  -0.000000e+000
    outer loop
      vertex  3.422285e+001  1.757744e+001 -4.000000e+000
      vertex  3.422285e+001  1.757744e+001  2.220446e-016
      vertex  3.545638e+001  1.744457e+001  2.220446e-016
    endloop
  endfacet
  facet normal  1.070945e-001  9.942489e-001  0.000000e+000
    outer loop
      vertex  3.422285e+001  1.757744e+001 -4.000000e+000
      vertex  3.545638e+001  1.744457e+001  2.220446e-016
      vertex  3.545638e+001  1.744457e+001 -4.000000e+000
    endloop
  endfacet
  facet normal -6.273116e-001  7.787684e-001  0.000000e+000
    outer loop
      vertex  3.545638e+001  1.744457e+001 -4.000000e+000
      vertex  3.545638e+001  1.744457e+001  2.220446e-016
      vertex  3.642256e+001  1.822285e+001  2.220446e-016
    endloop
  endfacet
  facet normal -6.273116e-001  7.787684e-001  0.000000e+000
    outer loop
      vertex  3.545638e+001  1.744457e+001 -4.000000e+000
      vertex  3.642256e+001  1.822285e+001  2.220446e-016
      vertex  3.642256e+001  1.822285e+001 -4.000000e+000
    endloop
  endfacet
  facet normal -7.787676e-001 -6.273125e-001  0.000000e+000
    outer loop
      vertex  3.577715e+001  2.042256e+001  2.220446e-016
      vertex  3.655543e+001  1.945638e+001 -4.000000e+000
      vertex  3.655543e+001  1.945638e+001  2.220446e-016
    endloop
  endfacet
  facet normal -9.942487e-001  1.070960e-001  0.000000e+000
    outer loop
      vertex  3.655543e+001  1.945638e+001  2.220446e-016
      vertex  3.655543e+001  1.945638e+001 -4.000000e+000
      vertex  3.642256e+001  1.822285e+001 -4.000000e+000
    endloop
  endfacet
  facet normal -9.942487e-001  1.070960e-001  0.000000e+000
    outer loop
      vertex  3.655543e+001  1.945638e+001  2.220446e-016
      vertex  3.642256e+001  1.822285e+001 -4.000000e+000
      vertex  3.642256e+001  1.822285e+001  2.220446e-016
    endloop
  endfacet
  facet normal -7.787676e-001 -6.273125e-001  -0.000000e+000
    outer loop
      vertex  3.655543e+001  1.945638e+001 -4.000000e+000
      vertex  3.577715e+001  2.042256e+001  2.220446e-016
      vertex  3.577715e+001  2.042256e+001 -4.000000e+000
    endloop
  endfacet
  facet normal -1.070945e-001 -9.942489e-001  0.000000e+000
    outer loop
      vertex  3.577715e+001  2.042256e+001 -4.000000e+000
      vertex  3.577715e+001  2.042256e+001  2.220446e-016
      vertex  3.454362e+001  2.055543e+001  2.220446e-016
    endloop
  endfacet
  facet normal -1.070945e-001 -9.942489e-001  -0.000000e+000
    outer loop
      vertex  3.577715e+001  2.042256e+001 -4.000000e+000
      vertex  3.454362e+001  2.055543e+001  2.220446e-016
      vertex  3.454362e+001  2.055543e+001 -4.000000e+000
    endloop
  endfacet
  facet normal  6.273116e-001 -7.787684e-001  0.000000e+000
    outer loop
      vertex  3.454362e+001  2.055543e+001 -4.000000e+000
      vertex  3.454362e+001  2.055543e+001  2.220446e-016
      vertex  3.357744e+001  1.977715e+001  2.220446e-016
    endloop
  endfacet
  facet normal  6.273116e-001 -7.787684e-001  0.000000e+000
    outer loop
      vertex  3.454362e+001  2.055543e+001 -4.000000e+000
      vertex  3.357744e+001  1.977715e+001  2.220446e-016
      vertex  3.357744e+001  1.977715e+001 -4.000000e+000
    endloop
  endfacet
  facet normal  1.000000e+000  0.000000e+000  0.000000e+000
    outer loop
      vertex  5.000000e+001  1.069715e+001 -1.189836e+001
      vertex  5.000000e+001  1.367710e+001 -8.302828e+000
      vertex  5.000000e+001  5.500000e+000 -9.526279e+000
    endloop
  endfacet
  facet normal  9.999999e-001  0.000000e+000  0.000000e+000
    outer loop
      vertex  5.000000e+001  1.069715e+001 -1.189836e+001
      vertex  5.000000e+001  5.500000e+000 -9.526279e+000
      vertex  5.000000e+001  1.910130e+000 -1.083289e+001
    endloop
  endfacet
  facet normal  1.000000e+000  0.000000e+000  0.000000e+000
    outer loop
      vertex  5.000000e+001  1.069715e+001 -1.189836e+001
      vertex  5.000000e+001  1.910130e+000 -1.083289e+001
      vertex  5.000000e+001 -1.910130e+000 -1.083289e+001
    endloop
  endfacet
  facet normal  1.000000e+000  0.000000e+000  0.000000e+000
    outer loop
      vertex  5.000000e+001  1.069715e+001 -1.189836e+001
      vertex  5.000000e+001 -1.910130e+000 -1.083289e+001
      vertex  5.000000e+001 -1.069715e+001 -1.189836e+001
    endloop
  endfacet
  facet normal  9.999999e-001  -0.000000e+000  0.000000e+000
    outer loop
      vertex  5.000000e+001  1.069715e+001 -1.189836e+001
      vertex  5.000000e+001 -1.069715e+001 -1.189836e+001
      vertex  5.000000e+001 -6.805940e+000 -1.448030e+001
    endloop
  endfacet
  facet normal  1.000000e+000  0.000000e+000  0.000000e+000
    outer loop
      vertex  5.000000e+001  1.069715e+001 -1.189836e+001
      vertex  5.000000e+001 -6.805940e+000 -1.448030e+001
      vertex  5.000000e+001  6.805940e+000 -1.448030e+001
    endloop
  endfacet
  facet normal  1.000000e+000  0.000000e+000  0.000000e+000
    outer loop
      vertex  5.000000e+001  2.200000e+001  0.000000e+000
      vertex  5.000000e+001  1.100000e+001  2.220446e-016
      vertex  5.000000e+001  2.200000e+001 -4.000000e+000
    endloop
  endfacet
  facet normal  1.000000e+000  0.000000e+000  0.000000e+000
    outer loop
      vertex  5.000000e+001  2.200000e+001 -4.000000e+000
      vertex  5.000000e+001  1.100000e+001  2.220446e-016
      vertex  5.000000e+001  1.033662e+001 -3.762222e+000
    endloop
  endfacet
  facet normal  1.000000e+000  0.000000e+000  0.000000e+000
    outer loop
      vertex  5.000000e+001  2.200000e+001 -4.000000e+000
      vertex  5.000000e+001  1.033662e+001 -3.762222e+000
      vertex  5.000000e+001  1.549193e+001 -4.000000e+000
    endloop
  endfacet
  facet normal  1.000000e+000  0.000000e+000  0.000000e+000
    outer loop
      vertex  5.000000e+001  1.549193e+001 -4.000000e+000
      vertex  5.000000e+001  1.033662e+001 -3.762222e+000
      vertex  5.000000e+001  1.367710e+001 -8.302828e+000
    endloop
  endfacet
  facet normal  1.000000e+000  0.000000e+000  0.000000e+000
    outer loop
      vertex  5.000000e+001  1.367710e+001 -8.302828e+000
      vertex  5.000000e+001  1.033662e+001 -3.762222e+000
      vertex  5.000000e+001  8.426489e+000 -7.070664e+000
    endloop
  endfacet
  facet normal  1.000000e+000  0.000000e+000  0.000000e+000
    outer loop
      vertex  5.000000e+001  1.367710e+001 -8.302828e+000
      vertex  5.000000e+001  8.426489e+000 -7.070664e+000
      vertex  5.000000e+001  5.500000e+000 -9.526279e+000
    endloop
  endfacet
  facet normal  1.000000e+000  0.000000e+000  0.000000e+000
    outer loop
      vertex  5.000000e+001 -2.334949e+000 -1.582871e+001
      vertex  5.000000e+001  2.334949e+000 -1.582871e+001
      vertex  5.000000e+001 -6.805940e+000 -1.448030e+001
    endloop
  endfacet
  facet normal  1.000000e+000  -0.000000e+000  0.000000e+000
    outer loop
      vertex  5.000000e+001 -6.805940e+000 -1.448030e+001
      vertex  5.000000e+001  2.334949e+000 -1.582871e+001
      vertex  5.000000e+001  6.805940e+000 -1.448030e+001
    endloop
  endfacet
  facet normal  1.000000e+000  -0.000000e+000  0.000000e+000
    outer loop
      vertex  5.000000e+001 -1.100000e+001  2.220446e-016
      vertex  5.000000e+001 -2.200000e+001  2.220446e-016
      vertex  5.000000e+001 -1.033662e+001 -3.762222e+000
    endloop
  endfacet
  facet normal  1.000000e+000  0.000000e+000  0.000000e+000
    outer loop
      vertex  5.000000e+001 -1.033662e+001 -3.762222e+000
      vertex  5.000000e+001 -2.200000e+001  2.220446e-016
      vertex  5.000000e+001 -2.200000e+001 -4.000000e+000
    endloop
  endfacet
  facet normal  1.000000e+000  0.000000e+000  0.000000e+000
    outer loop
      vertex  5.000000e+001 -1.033662e+001 -3.762222e+000
      vertex  5.000000e+001 -2.200000e+001 -4.000000e+000
      vertex  5.000000e+001 -1.549193e+001 -4.000000e+000
    endloop
  endfacet
  facet normal  1.000000e+000  -0.000000e+000  0.000000e+000
    outer loop
      vertex  5.000000e+001 -1.033662e+001 -3.762222e+000
      vertex  5.000000e+001 -1.549193e+001 -4.000000e+000
      vertex  5.000000e+001 -8.426489e+000 -7.070664e+000
    endloop
  endfacet
  facet normal  9.999999e-001  0.000000e+000  0.000000e+000
    outer loop
      vertex  5.000000e+001 -8.426489e+000 -7.070664e+000
      vertex  5.000000e+001 -1.549193e+001 -4.000000e+000
      vertex  5.000000e+001 -1.367710e+001 -8.302828e+000
    endloop
  endfacet
  facet normal  1.000000e+000  -0.000000e+000  0.000000e+000
    outer loop
      vertex  5.000000e+001 -8.426489e+000 -7.070664e+000
      vertex  5.000000e+001 -1.367710e+001 -8.302828e+000
      vertex  5.000000e+001 -5.500000e+000 -9.526279e+000
    endloop
  endfacet
  facet normal  1.000000e+000  0.000000e+000  0.000000e+000
    outer loop
      vertex  5.000000e+001 -1.069715e+001 -1.189836e+001
      vertex  5.000000e+001 -1.910130e+000 -1.083289e+001
      vertex  5.000000e+001 -1.367710e+001 -8.302828e+000
    endloop
  endfacet
  facet normal  9.999999e-001  0.000000e+000  0.000000e+000
    outer loop
      vertex  5.000000e+001 -1.367710e+001 -8.302828e+000
      vertex  5.000000e+001 -1.910130e+000 -1.083289e+001
      vertex  5.000000e+001 -5.500000e+000 -9.526279e+000
    endloop
  endfacet
  facet normal -1.000000e+000  0.000000e+000  0.000000e+000
    outer loop
      vertex  0.000000e+000  1.069715e+001 -1.189836e+001
      vertex  0.000000e+000  6.805940e+000 -1.448030e+001
      vertex  0.000000e+000 -6.805940e+000 -1.448030e+001
    endloop
  endfacet
  facet normal -9.999999e-001  0.000000e+000  0.000000e+000
    outer loop
      vertex  0.000000e+000  1.069715e+001 -1.189836e+001
      vertex  0.000000e+000 -6.805940e+000 -1.448030e+001
      vertex  0.000000e+000 -1.069715e+001 -1.189836e+001
    endloop
  endfacet
  facet normal -1.000000e+000  0.000000e+000  0.000000e+000
    outer loop
      vertex  0.000000e+000  1.069715e+001 -1.189836e+001
      vertex  0.000000e+000 -1.069715e+001 -1.189836e+001
      vertex  0.000000e+000 -1.910130e+000 -1.083289e+001
    endloop
  endfacet
  facet normal -1.000000e+000  0.000000e+000  0.000000e+000
    outer loop
      vertex  0.000000e+000  1.069715e+001 -1.189836e+001
      vertex  0.000000e+000 -1.910130e+000 -1.083289e+001
      vertex  0.000000e+000  1.910130e+000 -1.083289e+001
    endloop
  endfacet
  facet normal -9.999999e-001  0.000000e+000  0.000000e+000
    outer loop
      vertex  0.000000e+000  1.069715e+001 -1.189836e+001
      vertex  0.000000e+000  1.910130e+000 -1.083289e+001
      vertex  0.000000e+000  5.500000e+000 -9.526279e+000
    endloop
  endfacet
  facet normal -1.000000e+000  0.000000e+000  0.000000e+000
    outer loop
      vertex  0.000000e+000  1.069715e+001 -1.189836e+001
      vertex  0.000000e+000  5.500000e+000 -9.526279e+000
      vertex  0.000000e+000  1.367710e+001 -8.302828e+000
    endloop
  endfacet
  facet normal -1.000000e+000  0.000000e+000  0.000000e+000
    outer loop
      vertex  0.000000e+000  1.549193e+001 -4.000000e+000
      vertex  0.000000e+000  1.033662e+001 -3.762222e+000
      vertex  0.000000e+000  2.200000e+001 -4.000000e+000
    endloop
  endfacet
  facet normal -1.000000e+000  0.000000e+000  0.000000e+000
    outer loop
      vertex  0.000000e+000  2.200000e+001 -4.000000e+000
      vertex  0.000000e+000  1.033662e+001 -3.762222e+000
      vertex  0.000000e+000  1.100000e+001  2.220446e-016
    endloop
  endfacet
  facet normal -1.000000e+000  0.000000e+000  0.000000e+000
    outer loop
      vertex  0.000000e+000  2.200000e+001 -4.000000e+000
      vertex  0.000000e+000  1.100000e+001  2.220446e-016
      vertex  0.000000e+000  2.200000e+001  0.000000e+000
    endloop
  endfacet
  facet normal -1.000000e+000  0.000000e+000  -0.000000e+000
    outer loop
      vertex  0.000000e+000  5.500000e+000 -9.526279e+000
      vertex  0.000000e+000  8.426489e+000 -7.070664e+000
      vertex  0.000000e+000  1.367710e+001 -8.302828e+000
    endloop
  endfacet
  facet normal -1.000000e+000  0.000000e+000  0.000000e+000
    outer loop
      vertex  0.000000e+000  1.367710e+001 -8.302828e+000
      vertex  0.000000e+000  8.426489e+000 -7.070664e+000
      vertex  0.000000e+000  1.033662e+001 -3.762222e+000
    endloop
  endfacet
  facet normal -1.000000e+000  0.000000e+000  0.000000e+000
    outer loop
      vertex  0.000000e+000  1.367710e+001 -8.302828e+000
      vertex  0.000000e+000  1.033662e+001 -3.762222e+000
      vertex  0.000000e+000  1.549193e+001 -4.000000e+000
    endloop
  endfacet
  facet normal -1.000000e+000  0.000000e+000  0.000000e+000
    outer loop
      vertex  0.000000e+000 -2.334949e+000 -1.582871e+001
      vertex  0.000000e+000 -6.805940e+000 -1.448030e+001
      vertex  0.000000e+000  2.334949e+000 -1.582871e+001
    endloop
  endfacet
  facet normal -1.000000e+000  0.000000e+000  0.000000e+000
    outer loop
      vertex  0.000000e+000  2.334949e+000 -1.582871e+001
      vertex  0.000000e+000 -6.805940e+000 -1.448030e+001
      vertex  0.000000e+000  6.805940e+000 -1.448030e+001
    endloop
  endfacet
  facet normal -1.000000e+000  0.000000e+000  0.000000e+000
    outer loop
      vertex  0.000000e+000 -1.549193e+001 -4.000000e+000
      vertex  0.000000e+000 -2.200000e+001 -4.000000e+000
      vertex  0.000000e+000 -1.033662e+001 -3.762222e+000
    endloop
  endfacet
  facet normal -1.000000e+000  -0.000000e+000  0.000000e+000
    outer loop
      vertex  0.000000e+000 -1.033662e+001 -3.762222e+000
      vertex  0.000000e+000 -2.200000e+001 -4.000000e+000
      vertex  0.000000e+000 -2.200000e+001  2.220446e-016
    endloop
  endfacet
  facet normal -1.000000e+000  0.000000e+000  0.000000e+000
    outer loop
      vertex  0.000000e+000 -1.033662e+001 -3.762222e+000
      vertex  0.000000e+000 -2.200000e+001  2.220446e-016
      vertex  0.000000e+000 -1.100000e+001  2.220446e-016
    endloop
  endfacet
  facet normal -1.000000e+000  0.000000e+000  0.000000e+000
    outer loop
      vertex  0.000000e+000 -5.500000e+000 -9.526279e+000
      vertex  0.000000e+000 -1.367710e+001 -8.302828e+000
      vertex  0.000000e+000 -8.426489e+000 -7.070664e+000
    endloop
  endfacet
  facet normal -9.999999e-001  -0.000000e+000  0.000000e+000
    outer loop
      vertex  0.000000e+000 -8.426489e+000 -7.070664e+000
      vertex  0.000000e+000 -1.367710e+001 -8.302828e+000
      vertex  0.000000e+000 -1.549193e+001 -4.000000e+000
    endloop
  endfacet
  facet normal -1.000000e+000  0.000000e+000  0.000000e+000
    outer loop
      vertex  0.000000e+000 -8.426489e+000 -7.070664e+000
      vertex  0.000000e+000 -1.549193e+001 -4.000000e+000
      vertex  0.000000e+000 -1.033662e+001 -3.762222e+000
    endloop
  endfacet
  facet normal -1.000000e+000  0.000000e+000  0.000000e+000
    outer loop
      vertex  0.000000e+000 -1.069715e+001 -1.189836e+001
      vertex  0.000000e+000 -1.367710e+001 -8.302828e+000
      vertex  0.000000e+000 -1.910130e+000 -1.083289e+001
    endloop
  endfacet
  facet normal -1.000000e+000  0.000000e+000  0.000000e+000
    outer loop
      vertex  0.000000e+000 -1.910130e+000 -1.083289e+001
      vertex  0.000000e+000 -1.367710e+001 -8.302828e+000
      vertex  0.000000e+000 -5.500000e+000 -9.526279e+000
    endloop
  endfacet
  facet normal  0.000000e+000 -3.420203e-001  9.396926e-001
    outer loop
      vertex  0.000000e+000  1.910130e+000 -1.083289e+001
      vertex  5.000000e+001  5.500000e+000 -9.526279e+000
      vertex  0.000000e+000  5.500000e+000 -9.526279e+000
    endloop
  endfacet
  facet normal  0.000000e+000 -6.427876e-001  7.660446e-001
    outer loop
      vertex  0.000000e+000  5.500000e+000 -9.526279e+000
      vertex  5.000000e+001  5.500000e+000 -9.526279e+000
      vertex  5.000000e+001  8.426489e+000 -7.070664e+000
    endloop
  endfacet
  facet normal  0.000000e+000 -6.427876e-001  7.660446e-001
    outer loop
      vertex  0.000000e+000  5.500000e+000 -9.526279e+000
      vertex  5.000000e+001  8.426489e+000 -7.070664e+000
      vertex  0.000000e+000  8.426489e+000 -7.070664e+000
    endloop
  endfacet
  facet normal  0.000000e+000 -8.660254e-001  4.999999e-001
    outer loop
      vertex  0.000000e+000  8.426489e+000 -7.070664e+000
      vertex  5.000000e+001  8.426489e+000 -7.070664e+000
      vertex  5.000000e+001  1.033662e+001 -3.762222e+000
    endloop
  endfacet
  facet normal  0.000000e+000 -8.660254e-001  4.999999e-001
    outer loop
      vertex  0.000000e+000  8.426489e+000 -7.070664e+000
      vertex  5.000000e+001  1.033662e+001 -3.762222e+000
      vertex  0.000000e+000  1.033662e+001 -3.762222e+000
    endloop
  endfacet
  facet normal  0.000000e+000 -9.848078e-001  1.736483e-001
    outer loop
      vertex  0.000000e+000  1.033662e+001 -3.762222e+000
      vertex  5.000000e+001  1.033662e+001 -3.762222e+000
      vertex  5.000000e+001  1.100000e+001  2.220446e-016
    endloop
  endfacet
  facet normal  0.000000e+000 -9.848078e-001  1.736483e-001
    outer loop
      vertex  0.000000e+000  1.033662e+001 -3.762222e+000
      vertex  5.000000e+001  1.100000e+001  2.220446e-016
      vertex  0.000000e+000  1.100000e+001  2.220446e-016
    endloop
  endfacet
  facet normal  0.000000e+000 -3.420203e-001  9.396926e-001
    outer loop
      vertex  5.000000e+001  5.500000e+000 -9.526279e+000
      vertex  0.000000e+000  1.910130e+000 -1.083289e+001
      vertex  5.000000e+001  1.910130e+000 -1.083289e+001
    endloop
  endfacet
  facet normal  0.000000e+000  0.000000e+000  1.000000e+000
    outer loop
      vertex  5.000000e+001  1.910130e+000 -1.083289e+001
      vertex  0.000000e+000  1.910130e+000 -1.083289e+001
      vertex  0.000000e+000 -1.910130e+000 -1.083289e+001
    endloop
  endfacet
  facet normal  0.000000e+000  0.000000e+000  1.000000e+000
    outer loop
      vertex  5.000000e+001  1.910130e+000 -1.083289e+001
      vertex  0.000000e+000 -1.910130e+000 -1.083289e+001
      vertex  5.000000e+001 -1.910130e+000 -1.083289e+001
    endloop
  endfacet
  facet normal  0.000000e+000  3.420203e-001  9.396926e-001
    outer loop
      vertex  5.000000e+001 -1.910130e+000 -1.083289e+001
      vertex  0.000000e+000 -1.910130e+000 -1.083289e+001
      vertex  0.000000e+000 -5.500000e+000 -9.526279e+000
    endloop
  endfacet
  facet normal  -0.000000e+000  3.420203e-001  9.396926e-001
    outer loop
      vertex  5.000000e+001 -1.910130e+000 -1.083289e+001
      vertex  0.000000e+000 -5.500000e+000 -9.526279e+000
      vertex  5.000000e+001 -5.500000e+000 -9.526279e+000
    endloop
  endfacet
  facet normal  0.000000e+000  6.427876e-001  7.660446e-001
    outer loop
      vertex  5.000000e+001 -5.500000e+000 -9.526279e+000
      vertex  0.000000e+000 -5.500000e+000 -9.526279e+000
      vertex  0.000000e+000 -8.426489e+000 -7.070664e+000
    endloop
  endfacet
  facet normal  -0.000000e+000  6.427876e-001  7.660446e-001
    outer loop
      vertex  5.000000e+001 -5.500000e+000 -9.526279e+000
      vertex  0.000000e+000 -8.426489e+000 -7.070664e+000
      vertex  5.000000e+001 -8.426489e+000 -7.070664e+000
    endloop
  endfacet
  facet normal  0.000000e+000  8.660254e-001  4.999999e-001
    outer loop
      vertex  5.000000e+001 -8.426489e+000 -7.070664e+000
      vertex  0.000000e+000 -8.426489e+000 -7.070664e+000
      vertex  0.000000e+000 -1.033662e+001 -3.762222e+000
    endloop
  endfacet
  facet normal  -0.000000e+000  8.660254e-001  4.999999e-001
    outer loop
      vertex  5.000000e+001 -8.426489e+000 -7.070664e+000
      vertex  0.000000e+000 -1.033662e+001 -3.762222e+000
      vertex  5.000000e+001 -1.033662e+001 -3.762222e+000
    endloop
  endfacet
  facet normal  0.000000e+000  9.848078e-001  1.736483e-001
    outer loop
      vertex  5.000000e+001 -1.033662e+001 -3.762222e+000
      vertex  0.000000e+000 -1.033662e+001 -3.762222e+000
      vertex  0.000000e+000 -1.100000e+001  2.220446e-016
    endloop
  endfacet
  facet normal  -0.000000e+000  9.848078e-001  1.736483e-001
    outer loop
      vertex  5.000000e+001 -1.033662e+001 -3.762222e+000
      vertex  0.000000e+000 -1.100000e+001  2.220446e-016
      vertex  5.000000e+001 -1.100000e+001  2.220446e-016
    endloop
  endfacet
  facet normal  0.000000e+000  1.000000e+000  0.000000e+000
    outer loop
      vertex  0.000000e+000  2.200000e+001 -4.000000e+000
      vertex  0.000000e+000  2.200000e+001  0.000000e+000
      vertex  5.000000e+001  2.200000e+001 -4.000000e+000
    endloop
  endfacet
  facet normal  0.000000e+000  1.000000e+000  -0.000000e+000
    outer loop
      vertex  5.000000e+001  2.200000e+001 -4.000000e+000
      vertex  0.000000e+000  2.200000e+001  0.000000e+000
      vertex  5.000000e+001  2.200000e+001  0.000000e+000
    endloop
  endfacet
  facet normal  0.000000e+000 -1.000000e+000  0.000000e+000
    outer loop
      vertex  0.000000e+000 -2.200000e+001  2.220446e-016
      vertex  0.000000e+000 -2.200000e+001 -4.000000e+000
      vertex  5.000000e+001 -2.200000e+001  2.220446e-016
    endloop
  endfacet
  facet normal  0.000000e+000 -1.000000e+000  -0.000000e+000
    outer loop
      vertex  5.000000e+001 -2.200000e+001  2.220446e-016
      vertex  0.000000e+000 -2.200000e+001 -4.000000e+000
      vertex  5.000000e+001 -2.200000e+001 -4.000000e+000
    endloop
  endfacet
  facet normal  0.000000e+000  9.213964e-001 -3.886240e-001
    outer loop
      vertex  0.000000e+000  1.549193e+001 -4.000000e+000
      vertex  5.000000e+001  1.549193e+001 -4.000000e+000
      vertex  0.000000e+000  1.367710e+001 -8.302828e+000
    endloop
  endfacet
  facet normal  0.000000e+000  9.213964e-001 -3.886240e-001
    outer loop
      vertex  0.000000e+000  1.367710e+001 -8.302828e+000
      vertex  5.000000e+001  1.549193e+001 -4.000000e+000
      vertex  5.000000e+001  1.367710e+001 -8.302828e+000
    endloop
  endfacet
  facet normal  0.000000e+000  7.699381e-001 -6.381186e-001
    outer loop
      vertex  0.000000e+000  1.367710e+001 -8.302828e+000
      vertex  5.000000e+001  1.367710e+001 -8.302828e+000
      vertex  0.000000e+000  1.069715e+001 -1.189836e+001
    endloop
  endfacet
  facet normal  0.000000e+000  7.699381e-001 -6.381186e-001
    outer loop
      vertex  0.000000e+000  1.069715e+001 -1.189836e+001
      vertex  5.000000e+001  1.367710e+001 -8.302828e+000
      vertex  5.000000e+001  1.069715e+001 -1.189836e+001
    endloop
  endfacet
  facet normal  0.000000e+000  5.528907e-001 -8.332538e-001
    outer loop
      vertex  0.000000e+000  1.069715e+001 -1.189836e+001
      vertex  5.000000e+001  1.069715e+001 -1.189836e+001
      vertex  0.000000e+000  6.805940e+000 -1.448030e+001
    endloop
  endfacet
  facet normal  0.000000e+000  5.528907e-001 -8.332538e-001
    outer loop
      vertex  0.000000e+000  6.805940e+000 -1.448030e+001
      vertex  5.000000e+001  1.069715e+001 -1.189836e+001
      vertex  5.000000e+001  6.805940e+000 -1.448030e+001
    endloop
  endfacet
  facet normal  0.000000e+000  2.887439e-001 -9.574063e-001
    outer loop
      vertex  0.000000e+000  6.805940e+000 -1.448030e+001
      vertex  5.000000e+001  6.805940e+000 -1.448030e+001
      vertex  0.000000e+000  2.334949e+000 -1.582871e+001
    endloop
  endfacet
  facet normal  0.000000e+000  2.887439e-001 -9.574063e-001
    outer loop
      vertex  0.000000e+000  2.334949e+000 -1.582871e+001
      vertex  5.000000e+001  6.805940e+000 -1.448030e+001
      vertex  5.000000e+001  2.334949e+000 -1.582871e+001
    endloop
  endfacet
  facet normal  -0.000000e+000  0.000000e+000 -1.000000e+000
    outer loop
      vertex  0.000000e+000  2.334949e+000 -1.582871e+001
      vertex  5.000000e+001  2.334949e+000 -1.582871e+001
      vertex  0.000000e+000 -2.334949e+000 -1.582871e+001
    endloop
  endfacet
  facet normal  0.000000e+000  0.000000e+000 -1.000000e+000
    outer loop
      vertex  0.000000e+000 -2.334949e+000 -1.582871e+001
      vertex  5.000000e+001  2.334949e+000 -1.582871e+001
      vertex  5.000000e+001 -2.334949e+000 -1.582871e+001
    endloop
  endfacet
  facet normal  -0.000000e+000 -2.887439e-001 -9.574063e-001
    outer loop
      vertex  0.000000e+000 -2.334949e+000 -1.582871e+001
      vertex  5.000000e+001 -2.334949e+000 -1.582871e+001
      vertex  0.000000e+000 -6.805940e+000 -1.448030e+001
    endloop
  endfacet
  facet normal  0.000000e+000 -2.887439e-001 -9.574063e-001
    outer loop
      vertex  0.000000e+000 -6.805940e+000 -1.448030e+001
      vertex  5.000000e+001 -2.334949e+000 -1.582871e+001
      vertex  5.000000e+001 -6.805940e+000 -1.448030e+001
    endloop
  endfacet
  facet normal  -0.000000e+000 -5.528907e-001 -8.332538e-001
    outer loop
      vertex  0.000000e+000 -6.805940e+000 -1.448030e+001
      vertex  5.000000e+001 -6.805940e+000 -1.448030e+001
      vertex  0.000000e+000 -1.069715e+001 -1.189836e+001
    endloop
  endfacet
  facet normal  0.000000e+000 -5.528907e-001 -8.332538e-001
    outer loop
      vertex  0.000000e+000 -1.069715e+001 -1.189836e+001
      vertex  5.000000e+001 -6.805940e+000 -1.448030e+001
      vertex  5.000000e+001 -1.069715e+001 -1.189836e+001
    endloop
  endfacet
  facet normal  -0.000000e+000 -7.699381e-001 -6.381186e-001
    outer loop
      vertex  0.000000e+000 -1.069715e+001 -1.189836e+001
      vertex  5.000000e+001 -1.069715e+001 -1.189836e+001
      vertex  0.000000e+000 -1.367710e+001 -8.302828e+000
    endloop
  endfacet
  facet normal  0.000000e+000 -7.699381e-001 -6.381186e-001
    outer loop
      vertex  0.000000e+000 -1.367710e+001 -8.302828e+000
      vertex  5.000000e+001 -1.069715e+001 -1.189836e+001
      vertex  5.000000e+001 -1.367710e+001 -8.302828e+000
    endloop
  endfacet
  facet normal  -0.000000e+000 -9.213964e-001 -3.886240e-001
    outer loop
      vertex  0.000000e+000 -1.367710e+001 -8.302828e+000
      vertex  5.000000e+001 -1.367710e+001 -8.302828e+000
      vertex  0.000000e+000 -1.549193e+001 -4.000000e+000
    endloop
  endfacet
  facet normal  0.000000e+000 -9.213964e-001 -3.886240e-001
    outer loop
      vertex  0.000000e+000 -1.549193e+001 -4.000000e+000
      vertex  5.000000e+001 -1.367710e+001 -8.302828e+000
      vertex  5.000000e+001 -1.549193e+001 -4.000000e+000
    endloop
  endfacet
endsolid CATIA STL
