solid CATIA STL
  facet normal  0.000000e+000  0.000000e+000 -9.999999e-001
    outer loop
      vertex  8.699677e+000  9.370824e-001  6.000000e+000
      vertex -6.814218e+000  5.488983e+000  6.000000e+000
      vertex  7.678847e+000  4.194973e+000  6.000000e+000
    endloop
  endfacet
  facet normal  0.000000e+000  0.000000e+000 -1.000000e+000
    outer loop
      vertex  7.678847e+000  4.194973e+000  6.000000e+000
      vertex -6.814218e+000  5.488983e+000  6.000000e+000
      vertex -4.194973e+000  7.678847e+000  6.000000e+000
    endloop
  endfacet
  facet normal  0.000000e+000  0.000000e+000 -1.000000e+000
    outer loop
      vertex  7.678847e+000  4.194973e+000  6.000000e+000
      vertex -4.194973e+000  7.678847e+000  6.000000e+000
      vertex  5.488983e+000  6.814218e+000  6.000000e+000
    endloop
  endfacet
  facet normal  0.000000e+000  0.000000e+000 -1.000000e+000
    outer loop
      vertex  5.488983e+000  6.814218e+000  6.000000e+000
      vertex -4.194973e+000  7.678847e+000  6.000000e+000
      vertex -9.370824e-001  8.699677e+000  6.000000e+000
    endloop
  endfacet
  facet normal  0.000000e+000  0.000000e+000 -1.000000e+000
    outer loop
      vertex  5.488983e+000  6.814218e+000  6.000000e+000
      vertex -9.370824e-001  8.699677e+000  6.000000e+000
      vertex  2.463471e+000  8.396059e+000  6.000000e+000
    endloop
  endfacet
  facet normal  0.000000e+000  0.000000e+000 -1.000000e+000
    outer loop
      vertex -6.814218e+000  5.488983e+000  6.000000e+000
      vertex  8.699677e+000  9.370824e-001  6.000000e+000
      vertex -8.396059e+000  2.463471e+000  6.000000e+000
    endloop
  endfacet
  facet normal  0.000000e+000  0.000000e+000 -1.000000e+000
    outer loop
      vertex -8.396059e+000  2.463471e+000  6.000000e+000
      vertex  8.699677e+000  9.370824e-001  6.000000e+000
      vertex  8.396059e+000 -2.463471e+000  6.000000e+000
    endloop
  endfacet
  facet normal  0.000000e+000  0.000000e+000 -1.000000e+000
    outer loop
      vertex -8.396059e+000  2.463471e+000  6.000000e+000
      vertex  8.396059e+000 -2.463471e+000  6.000000e+000
      vertex -8.699677e+000 -9.370824e-001  6.000000e+000
    endloop
  endfacet
  facet normal  0.000000e+000  0.000000e+000 -1.000000e+000
    outer loop
      vertex -8.699677e+000 -9.370824e-001  6.000000e+000
      vertex  8.396059e+000 -2.463471e+000  6.000000e+000
      vertex  6.814218e+000 -5.488983e+000  6.000000e+000
    endloop
  endfacet
  facet normal  0.000000e+000  0.000000e+000 -9.999999e-001
    outer loop
      vertex -8.699677e+000 -9.370824e-001  6.000000e+000
      vertex  6.814218e+000 -5.488983e+000  6.000000e+000
      vertex -7.678847e+000 -4.194973e+000  6.000000e+000
    endloop
  endfacet
  facet normal  0.000000e+000  0.000000e+000 -1.000000e+000
    outer loop
      vertex -7.678847e+000 -4.194973e+000  6.000000e+000
      vertex  6.814218e+000 -5.488983e+000  6.000000e+000
      vertex  4.194973e+000 -7.678847e+000  6.000000e+000
    endloop
  endfacet
  facet normal  0.000000e+000  0.000000e+000 -1.000000e+000
    outer loop
      vertex -7.678847e+000 -4.194973e+000  6.000000e+000
      vertex  4.194973e+000 -7.678847e+000  6.000000e+000
      vertex -5.488983e+000 -6.814218e+000  6.000000e+000
    endloop
  endfacet
  facet normal  0.000000e+000  0.000000e+000 -1.000000e+000
    outer loop
      vertex -5.488983e+000 -6.814218e+000  6.000000e+000
      vertex  4.194973e+000 -7.678847e+000  6.000000e+000
      vertex  9.370824e-001 -8.699677e+000  6.000000e+000
    endloop
  endfacet
  facet normal  0.000000e+000  0.000000e+000 -1.000000e+000
    outer loop
      vertex -5.488983e+000 -6.814218e+000  6.000000e+000
      vertex  9.370824e-001 -8.699677e+000  6.000000e+000
      vertex -2.463471e+000 -8.396059e+000  6.000000e+000
    endloop
  endfacet
  facet normal  0.000000e+000  0.000000e+000 -9.999999e-001
    outer loop
      vertex -8.396059e+000  2.463471e+000  2.600000e+001
      vertex -8.699677e+000 -9.370824e-001  2.600000e+001
      vertex -1.124687e+001  2.654616e-001  2.600000e+001
    endloop
  endfacet
  facet normal  0.000000e+000  0.000000e+000 -1.000000e+000
    outer loop
      vertex -1.124687e+001  2.654616e-001  2.600000e+001
      vertex -8.699677e+000 -9.370824e-001  2.600000e+001
      vertex -7.678847e+000 -4.194973e+000  2.600000e+001
    endloop
  endfacet
  facet normal  0.000000e+000  0.000000e+000 -1.000000e+000
    outer loop
      vertex -1.124687e+001  2.654616e-001  2.600000e+001
      vertex -7.678847e+000 -4.194973e+000  2.600000e+001
      vertex -1.065939e+001 -3.597203e+000  2.600000e+001
    endloop
  endfacet
  facet normal  0.000000e+000  0.000000e+000 -1.000000e+000
    outer loop
      vertex -1.065939e+001 -3.597203e+000  2.600000e+001
      vertex -7.678847e+000 -4.194973e+000  2.600000e+001
      vertex -5.488983e+000 -6.814218e+000  2.600000e+001
    endloop
  endfacet
  facet normal  -0.000000e+000  0.000000e+000 -1.000000e+000
    outer loop
      vertex -1.065939e+001 -3.597203e+000  2.600000e+001
      vertex -5.488983e+000 -6.814218e+000  2.600000e+001
      vertex -8.786236e+000 -7.025992e+000  2.600000e+001
    endloop
  endfacet
  facet normal  0.000000e+000  0.000000e+000 -1.000000e+000
    outer loop
      vertex -8.786236e+000 -7.025992e+000  2.600000e+001
      vertex -5.488983e+000 -6.814218e+000  2.600000e+001
      vertex -2.463471e+000 -8.396059e+000  2.600000e+001
    endloop
  endfacet
  facet normal  -0.000000e+000  0.000000e+000 -1.000000e+000
    outer loop
      vertex -8.786236e+000 -7.025992e+000  2.600000e+001
      vertex -2.463471e+000 -8.396059e+000  2.600000e+001
      vertex -5.853330e+000 -9.607342e+000  2.600000e+001
    endloop
  endfacet
  facet normal  0.000000e+000  0.000000e+000 -1.000000e+000
    outer loop
      vertex -5.853330e+000 -9.607342e+000  2.600000e+001
      vertex -2.463471e+000 -8.396059e+000  2.600000e+001
      vertex  9.370824e-001 -8.699677e+000  2.600000e+001
    endloop
  endfacet
  facet normal  0.000000e+000  0.000000e+000 -1.000000e+000
    outer loop
      vertex -5.853330e+000 -9.607342e+000  2.600000e+001
      vertex  9.370824e-001 -8.699677e+000  2.600000e+001
      vertex -2.214427e+000 -1.102991e+001  2.600000e+001
    endloop
  endfacet
  facet normal  0.000000e+000  0.000000e+000 -9.999999e-001
    outer loop
      vertex -2.214427e+000 -1.102991e+001  2.600000e+001
      vertex  9.370824e-001 -8.699677e+000  2.600000e+001
      vertex  5.393538e+000 -9.872804e+000  2.600000e+001
    endloop
  endfacet
  facet normal  0.000000e+000  0.000000e+000 -1.000000e+000
    outer loop
      vertex -2.214427e+000 -1.102991e+001  2.600000e+001
      vertex  5.393538e+000 -9.872804e+000  2.600000e+001
      vertex  1.691569e+000 -1.112210e+001  2.600000e+001
    endloop
  endfacet
  facet normal  -0.000000e+000  0.000000e+000 -1.000000e+000
    outer loop
      vertex -1.691569e+000  1.112210e+001  2.600000e+001
      vertex  2.214427e+000  1.102991e+001  2.600000e+001
      vertex -9.370824e-001  8.699677e+000  2.600000e+001
    endloop
  endfacet
  facet normal  0.000000e+000  0.000000e+000 -1.000000e+000
    outer loop
      vertex -9.370824e-001  8.699677e+000  2.600000e+001
      vertex  2.214427e+000  1.102991e+001  2.600000e+001
      vertex  5.853330e+000  9.607342e+000  2.600000e+001
    endloop
  endfacet
  facet normal  0.000000e+000  0.000000e+000 -1.000000e+000
    outer loop
      vertex -9.370824e-001  8.699677e+000  2.600000e+001
      vertex  5.853330e+000  9.607342e+000  2.600000e+001
      vertex  2.463471e+000  8.396059e+000  2.600000e+001
    endloop
  endfacet
  facet normal  0.000000e+000  0.000000e+000 -1.000000e+000
    outer loop
      vertex  2.463471e+000  8.396059e+000  2.600000e+001
      vertex  5.853330e+000  9.607342e+000  2.600000e+001
      vertex  8.786236e+000  7.025992e+000  2.600000e+001
    endloop
  endfacet
  facet normal  -0.000000e+000  0.000000e+000 -1.000000e+000
    outer loop
      vertex  2.463471e+000  8.396059e+000  2.600000e+001
      vertex  8.786236e+000  7.025992e+000  2.600000e+001
      vertex  5.488983e+000  6.814218e+000  2.600000e+001
    endloop
  endfacet
  facet normal  0.000000e+000  0.000000e+000 -1.000000e+000
    outer loop
      vertex  5.488983e+000  6.814218e+000  2.600000e+001
      vertex  8.786236e+000  7.025992e+000  2.600000e+001
      vertex  1.065939e+001  3.597203e+000  2.600000e+001
    endloop
  endfacet
  facet normal  0.000000e+000  0.000000e+000 -1.000000e+000
    outer loop
      vertex  5.488983e+000  6.814218e+000  2.600000e+001
      vertex  1.065939e+001  3.597203e+000  2.600000e+001
      vertex  7.678847e+000  4.194973e+000  2.600000e+001
    endloop
  endfacet
  facet normal  0.000000e+000  0.000000e+000 -1.000000e+000
    outer loop
      vertex  7.678847e+000  4.194973e+000  2.600000e+001
      vertex  1.065939e+001  3.597203e+000  2.600000e+001
      vertex  1.124687e+001 -2.654616e-001  2.600000e+001
    endloop
  endfacet
  facet normal  0.000000e+000  0.000000e+000 -1.000000e+000
    outer loop
      vertex  7.678847e+000  4.194973e+000  2.600000e+001
      vertex  1.124687e+001 -2.654616e-001  2.600000e+001
      vertex  8.699677e+000  9.370824e-001  2.600000e+001
    endloop
  endfacet
  facet normal  0.000000e+000  0.000000e+000 -1.000000e+000
    outer loop
      vertex  8.699677e+000  9.370824e-001  2.600000e+001
      vertex  1.124687e+001 -2.654616e-001  2.600000e+001
      vertex  1.047781e+001 -4.096107e+000  2.600000e+001
    endloop
  endfacet
  facet normal  0.000000e+000  0.000000e+000 -1.000000e+000
    outer loop
      vertex  8.699677e+000  9.370824e-001  2.600000e+001
      vertex  1.047781e+001 -4.096107e+000  2.600000e+001
      vertex  8.396059e+000 -2.463471e+000  2.600000e+001
    endloop
  endfacet
  facet normal  0.000000e+000  0.000000e+000 -1.000000e+000
    outer loop
      vertex -1.691569e+000  1.112210e+001  2.600000e+001
      vertex -9.370824e-001  8.699677e+000  2.600000e+001
      vertex -5.393538e+000  9.872804e+000  2.600000e+001
    endloop
  endfacet
  facet normal  0.000000e+000  0.000000e+000 -1.000000e+000
    outer loop
      vertex -5.393538e+000  9.872804e+000  2.600000e+001
      vertex -9.370824e-001  8.699677e+000  2.600000e+001
      vertex -4.194973e+000  7.678847e+000  2.600000e+001
    endloop
  endfacet
  facet normal  -0.000000e+000  0.000000e+000 -1.000000e+000
    outer loop
      vertex -5.393538e+000  9.872804e+000  2.600000e+001
      vertex -4.194973e+000  7.678847e+000  2.600000e+001
      vertex -8.444965e+000  7.432703e+000  2.600000e+001
    endloop
  endfacet
  facet normal  0.000000e+000  0.000000e+000 -1.000000e+000
    outer loop
      vertex -8.444965e+000  7.432703e+000  2.600000e+001
      vertex -4.194973e+000  7.678847e+000  2.600000e+001
      vertex -6.814218e+000  5.488983e+000  2.600000e+001
    endloop
  endfacet
  facet normal  -0.000000e+000  0.000000e+000 -1.000000e+000
    outer loop
      vertex -8.444965e+000  7.432703e+000  2.600000e+001
      vertex -6.814218e+000  5.488983e+000  2.600000e+001
      vertex -1.047781e+001  4.096107e+000  2.600000e+001
    endloop
  endfacet
  facet normal  0.000000e+000  0.000000e+000 -1.000000e+000
    outer loop
      vertex -1.047781e+001  4.096107e+000  2.600000e+001
      vertex -6.814218e+000  5.488983e+000  2.600000e+001
      vertex -8.396059e+000  2.463471e+000  2.600000e+001
    endloop
  endfacet
  facet normal  -0.000000e+000  0.000000e+000 -1.000000e+000
    outer loop
      vertex -1.047781e+001  4.096107e+000  2.600000e+001
      vertex -8.396059e+000  2.463471e+000  2.600000e+001
      vertex -1.124687e+001  2.654616e-001  2.600000e+001
    endloop
  endfacet
  facet normal  -0.000000e+000  0.000000e+000 -1.000000e+000
    outer loop
      vertex  8.396059e+000 -2.463471e+000  2.600000e+001
      vertex  1.047781e+001 -4.096107e+000  2.600000e+001
      vertex  6.814218e+000 -5.488983e+000  2.600000e+001
    endloop
  endfacet
  facet normal  0.000000e+000  0.000000e+000 -1.000000e+000
    outer loop
      vertex  6.814218e+000 -5.488983e+000  2.600000e+001
      vertex  1.047781e+001 -4.096107e+000  2.600000e+001
      vertex  8.444965e+000 -7.432703e+000  2.600000e+001
    endloop
  endfacet
  facet normal  -0.000000e+000  0.000000e+000 -1.000000e+000
    outer loop
      vertex  6.814218e+000 -5.488983e+000  2.600000e+001
      vertex  8.444965e+000 -7.432703e+000  2.600000e+001
      vertex  4.194973e+000 -7.678847e+000  2.600000e+001
    endloop
  endfacet
  facet normal  0.000000e+000  0.000000e+000 -1.000000e+000
    outer loop
      vertex  4.194973e+000 -7.678847e+000  2.600000e+001
      vertex  8.444965e+000 -7.432703e+000  2.600000e+001
      vertex  5.393538e+000 -9.872804e+000  2.600000e+001
    endloop
  endfacet
  facet normal  0.000000e+000  0.000000e+000 -1.000000e+000
    outer loop
      vertex  4.194973e+000 -7.678847e+000  2.600000e+001
      vertex  5.393538e+000 -9.872804e+000  2.600000e+001
      vertex  9.370824e-001 -8.699677e+000  2.600000e+001
    endloop
  endfacet
  facet normal  -0.000000e+000  0.000000e+000 -1.000000e+000
    outer loop
      vertex -5.853330e+000 -9.607342e+000  1.600000e+001
      vertex -2.214427e+000 -1.102991e+001  1.600000e+001
      vertex -6.763848e+000 -1.110182e+001  1.600000e+001
    endloop
  endfacet
  facet normal  0.000000e+000  0.000000e+000 -1.000000e+000
    outer loop
      vertex -6.763848e+000 -1.110182e+001  1.600000e+001
      vertex -2.214427e+000 -1.102991e+001  1.600000e+001
      vertex  1.691569e+000 -1.112210e+001  1.600000e+001
    endloop
  endfacet
  facet normal  -0.000000e+000  0.000000e+000 -1.000000e+000
    outer loop
      vertex -6.763848e+000 -1.110182e+001  1.600000e+001
      vertex  1.691569e+000 -1.112210e+001  1.600000e+001
      vertex -2.558893e+000 -1.274567e+001  1.600000e+001
    endloop
  endfacet
  facet normal  0.000000e+000  0.000000e+000 -1.000000e+000
    outer loop
      vertex -2.558893e+000 -1.274567e+001  1.600000e+001
      vertex  1.691569e+000 -1.112210e+001  1.600000e+001
      vertex  6.232532e+000 -1.140857e+001  1.600000e+001
    endloop
  endfacet
  facet normal  0.000000e+000  0.000000e+000 -1.000000e+000
    outer loop
      vertex -2.558893e+000 -1.274567e+001  1.600000e+001
      vertex  6.232532e+000 -1.140857e+001  1.600000e+001
      vertex  1.954702e+000 -1.285220e+001  1.600000e+001
    endloop
  endfacet
  facet normal  0.000000e+000  0.000000e+000 -1.000000e+000
    outer loop
      vertex  8.786236e+000  7.025992e+000  1.600000e+001
      vertex  5.853330e+000  9.607342e+000  1.600000e+001
      vertex  1.015298e+001  8.118924e+000  1.600000e+001
    endloop
  endfacet
  facet normal  0.000000e+000  0.000000e+000 -1.000000e+000
    outer loop
      vertex  1.015298e+001  8.118924e+000  1.600000e+001
      vertex  5.853330e+000  9.607342e+000  1.600000e+001
      vertex  2.214427e+000  1.102991e+001  1.600000e+001
    endloop
  endfacet
  facet normal  0.000000e+000  0.000000e+000 -1.000000e+000
    outer loop
      vertex  1.015298e+001  8.118924e+000  1.600000e+001
      vertex  2.214427e+000  1.102991e+001  1.600000e+001
      vertex  6.763848e+000  1.110182e+001  1.600000e+001
    endloop
  endfacet
  facet normal  -0.000000e+000  0.000000e+000 -1.000000e+000
    outer loop
      vertex  6.763848e+000  1.110182e+001  1.600000e+001
      vertex  2.214427e+000  1.102991e+001  1.600000e+001
      vertex -1.954702e+000  1.285220e+001  1.600000e+001
    endloop
  endfacet
  facet normal  0.000000e+000  0.000000e+000 -1.000000e+000
    outer loop
      vertex  6.763848e+000  1.110182e+001  1.600000e+001
      vertex -1.954702e+000  1.285220e+001  1.600000e+001
      vertex  2.558893e+000  1.274567e+001  1.600000e+001
    endloop
  endfacet
  facet normal  0.000000e+000  0.000000e+000 -9.999999e-001
    outer loop
      vertex -8.444965e+000  7.432703e+000  1.600000e+001
      vertex -9.758626e+000  8.588901e+000  1.600000e+001
      vertex -5.393538e+000  9.872804e+000  1.600000e+001
    endloop
  endfacet
  facet normal  -0.000000e+000  0.000000e+000 -1.000000e+000
    outer loop
      vertex -5.393538e+000  9.872804e+000  1.600000e+001
      vertex -9.758626e+000  8.588901e+000  1.600000e+001
      vertex -6.232532e+000  1.140857e+001  1.600000e+001
    endloop
  endfacet
  facet normal  0.000000e+000  0.000000e+000 -1.000000e+000
    outer loop
      vertex -5.393538e+000  9.872804e+000  1.600000e+001
      vertex -6.232532e+000  1.140857e+001  1.600000e+001
      vertex -1.691569e+000  1.112210e+001  1.600000e+001
    endloop
  endfacet
  facet normal  0.000000e+000  0.000000e+000 -1.000000e+000
    outer loop
      vertex -1.691569e+000  1.112210e+001  1.600000e+001
      vertex -6.232532e+000  1.140857e+001  1.600000e+001
      vertex -1.954702e+000  1.285220e+001  1.600000e+001
    endloop
  endfacet
  facet normal  0.000000e+000  0.000000e+000 -1.000000e+000
    outer loop
      vertex -1.691569e+000  1.112210e+001  1.600000e+001
      vertex -1.954702e+000  1.285220e+001  1.600000e+001
      vertex  2.214427e+000  1.102991e+001  1.600000e+001
    endloop
  endfacet
  facet normal  0.000000e+000  0.000000e+000 -1.000000e+000
    outer loop
      vertex -1.124687e+001  2.654616e-001  1.600000e+001
      vertex -1.210769e+001  4.733280e+000  1.600000e+001
      vertex -1.047781e+001  4.096107e+000  1.600000e+001
    endloop
  endfacet
  facet normal  0.000000e+000  0.000000e+000 -1.000000e+000
    outer loop
      vertex -1.047781e+001  4.096107e+000  1.600000e+001
      vertex -1.210769e+001  4.733280e+000  1.600000e+001
      vertex -9.758626e+000  8.588901e+000  1.600000e+001
    endloop
  endfacet
  facet normal  0.000000e+000  -0.000000e+000 -1.000000e+000
    outer loop
      vertex -1.047781e+001  4.096107e+000  1.600000e+001
      vertex -9.758626e+000  8.588901e+000  1.600000e+001
      vertex -8.444965e+000  7.432703e+000  1.600000e+001
    endloop
  endfacet
  facet normal  0.000000e+000  0.000000e+000 -9.999999e-001
    outer loop
      vertex -1.210769e+001  4.733280e+000  1.600000e+001
      vertex -1.124687e+001  2.654616e-001  1.600000e+001
      vertex -1.299638e+001  3.067556e-001  1.600000e+001
    endloop
  endfacet
  facet normal  0.000000e+000  0.000000e+000 -1.000000e+000
    outer loop
      vertex -1.299638e+001  3.067556e-001  1.600000e+001
      vertex -1.124687e+001  2.654616e-001  1.600000e+001
      vertex -1.065939e+001 -3.597203e+000  1.600000e+001
    endloop
  endfacet
  facet normal  -0.000000e+000  0.000000e+000 -1.000000e+000
    outer loop
      vertex -1.299638e+001  3.067556e-001  1.600000e+001
      vertex -1.065939e+001 -3.597203e+000  1.600000e+001
      vertex -1.231752e+001 -4.156768e+000  1.600000e+001
    endloop
  endfacet
  facet normal  0.000000e+000  0.000000e+000 -1.000000e+000
    outer loop
      vertex -1.231752e+001 -4.156768e+000  1.600000e+001
      vertex -1.065939e+001 -3.597203e+000  1.600000e+001
      vertex -8.786236e+000 -7.025992e+000  1.600000e+001
    endloop
  endfacet
  facet normal  -0.000000e+000  0.000000e+000 -1.000000e+000
    outer loop
      vertex -1.231752e+001 -4.156768e+000  1.600000e+001
      vertex -8.786236e+000 -7.025992e+000  1.600000e+001
      vertex -1.015298e+001 -8.118924e+000  1.600000e+001
    endloop
  endfacet
  facet normal  0.000000e+000  0.000000e+000 -1.000000e+000
    outer loop
      vertex -1.015298e+001 -8.118924e+000  1.600000e+001
      vertex -8.786236e+000 -7.025992e+000  1.600000e+001
      vertex -5.853330e+000 -9.607342e+000  1.600000e+001
    endloop
  endfacet
  facet normal  -0.000000e+000  0.000000e+000 -1.000000e+000
    outer loop
      vertex -1.015298e+001 -8.118924e+000  1.600000e+001
      vertex -5.853330e+000 -9.607342e+000  1.600000e+001
      vertex -6.763848e+000 -1.110182e+001  1.600000e+001
    endloop
  endfacet
  facet normal  0.000000e+000  -0.000000e+000 -1.000000e+000
    outer loop
      vertex  1.691569e+000 -1.112210e+001  1.600000e+001
      vertex  5.393538e+000 -9.872804e+000  1.600000e+001
      vertex  6.232532e+000 -1.140857e+001  1.600000e+001
    endloop
  endfacet
  facet normal  0.000000e+000  0.000000e+000 -1.000000e+000
    outer loop
      vertex  6.232532e+000 -1.140857e+001  1.600000e+001
      vertex  5.393538e+000 -9.872804e+000  1.600000e+001
      vertex  8.444965e+000 -7.432703e+000  1.600000e+001
    endloop
  endfacet
  facet normal  0.000000e+000  -0.000000e+000 -9.999999e-001
    outer loop
      vertex  6.232532e+000 -1.140857e+001  1.600000e+001
      vertex  8.444965e+000 -7.432703e+000  1.600000e+001
      vertex  9.758626e+000 -8.588901e+000  1.600000e+001
    endloop
  endfacet
  facet normal  0.000000e+000  0.000000e+000 -1.000000e+000
    outer loop
      vertex  9.758626e+000 -8.588901e+000  1.600000e+001
      vertex  8.444965e+000 -7.432703e+000  1.600000e+001
      vertex  1.047781e+001 -4.096107e+000  1.600000e+001
    endloop
  endfacet
  facet normal  0.000000e+000  -0.000000e+000 -1.000000e+000
    outer loop
      vertex  9.758626e+000 -8.588901e+000  1.600000e+001
      vertex  1.047781e+001 -4.096107e+000  1.600000e+001
      vertex  1.210769e+001 -4.733280e+000  1.600000e+001
    endloop
  endfacet
  facet normal  0.000000e+000  0.000000e+000 -1.000000e+000
    outer loop
      vertex  1.210769e+001 -4.733280e+000  1.600000e+001
      vertex  1.047781e+001 -4.096107e+000  1.600000e+001
      vertex  1.124687e+001 -2.654616e-001  1.600000e+001
    endloop
  endfacet
  facet normal  0.000000e+000  0.000000e+000 -9.999999e-001
    outer loop
      vertex  1.210769e+001 -4.733280e+000  1.600000e+001
      vertex  1.124687e+001 -2.654616e-001  1.600000e+001
      vertex  1.299638e+001 -3.067556e-001  1.600000e+001
    endloop
  endfacet
  facet normal  0.000000e+000  0.000000e+000 -1.000000e+000
    outer loop
      vertex  1.299638e+001 -3.067556e-001  1.600000e+001
      vertex  1.124687e+001 -2.654616e-001  1.600000e+001
      vertex  1.065939e+001  3.597203e+000  1.600000e+001
    endloop
  endfacet
  facet normal  0.000000e+000  0.000000e+000 -1.000000e+000
    outer loop
      vertex  1.299638e+001 -3.067556e-001  1.600000e+001
      vertex  1.065939e+001  3.597203e+000  1.600000e+001
      vertex  1.231752e+001  4.156768e+000  1.600000e+001
    endloop
  endfacet
  facet normal  -0.000000e+000  0.000000e+000 -1.000000e+000
    outer loop
      vertex  1.231752e+001  4.156768e+000  1.600000e+001
      vertex  1.065939e+001  3.597203e+000  1.600000e+001
      vertex  8.786236e+000  7.025992e+000  1.600000e+001
    endloop
  endfacet
  facet normal  0.000000e+000  0.000000e+000 -1.000000e+000
    outer loop
      vertex  1.231752e+001  4.156768e+000  1.600000e+001
      vertex  8.786236e+000  7.025992e+000  1.600000e+001
      vertex  1.015298e+001  8.118924e+000  1.600000e+001
    endloop
  endfacet
  facet normal  0.000000e+000  0.000000e+000  1.000000e+000
    outer loop
      vertex  2.710433e+000  6.453956e+000  2.900000e+001
      vertex  2.558893e+000  1.274567e+001  2.900000e+001
      vertex -3.582508e-001  6.990827e+000  2.900000e+001
    endloop
  endfacet
  facet normal  0.000000e+000  0.000000e+000  1.000000e+000
    outer loop
      vertex  2.558893e+000  1.274567e+001  2.900000e+001
      vertex -1.954702e+000  1.285220e+001  2.900000e+001
      vertex -3.582508e-001  6.990827e+000  2.900000e+001
    endloop
  endfacet
  facet normal  -0.000000e+000  0.000000e+000  1.000000e+000
    outer loop
      vertex -1.954702e+000  1.285220e+001  2.900000e+001
      vertex -6.232532e+000  1.140857e+001  2.900000e+001
      vertex -3.582508e-001  6.990827e+000  2.900000e+001
    endloop
  endfacet
  facet normal  0.000000e+000  0.000000e+000  1.000000e+000
    outer loop
      vertex -3.582508e-001  6.990827e+000  2.900000e+001
      vertex -6.232532e+000  1.140857e+001  2.900000e+001
      vertex -9.758626e+000  8.588901e+000  2.900000e+001
    endloop
  endfacet
  facet normal  0.000000e+000  0.000000e+000  1.000000e+000
    outer loop
      vertex -3.582508e-001  6.990827e+000  2.900000e+001
      vertex -9.758626e+000  8.588901e+000  2.900000e+001
      vertex -3.355979e+000  6.143078e+000  2.900000e+001
    endloop
  endfacet
  facet normal  0.000000e+000  0.000000e+000  1.000000e+000
    outer loop
      vertex -3.355979e+000  6.143078e+000  2.900000e+001
      vertex -9.758626e+000  8.588901e+000  2.900000e+001
      vertex -1.210769e+001  4.733280e+000  2.900000e+001
    endloop
  endfacet
  facet normal  -0.000000e+000  0.000000e+000  1.000000e+000
    outer loop
      vertex -3.355979e+000  6.143078e+000  2.900000e+001
      vertex -1.210769e+001  4.733280e+000  2.900000e+001
      vertex -5.689014e+000  4.078618e+000  2.900000e+001
    endloop
  endfacet
  facet normal  0.000000e+000  0.000000e+000  1.000000e+000
    outer loop
      vertex  6.232532e+000 -1.140857e+001  2.900000e+001
      vertex  9.758626e+000 -8.588901e+000  2.900000e+001
      vertex  1.954702e+000 -1.285220e+001  2.900000e+001
    endloop
  endfacet
  facet normal  0.000000e+000  -0.000000e+000  1.000000e+000
    outer loop
      vertex  1.954702e+000 -1.285220e+001  2.900000e+001
      vertex  9.758626e+000 -8.588901e+000  2.900000e+001
      vertex  3.582508e-001 -6.990827e+000  2.900000e+001
    endloop
  endfacet
  facet normal  0.000000e+000  0.000000e+000  1.000000e+000
    outer loop
      vertex  1.954702e+000 -1.285220e+001  2.900000e+001
      vertex  3.582508e-001 -6.990827e+000  2.900000e+001
      vertex -2.558893e+000 -1.274567e+001  2.900000e+001
    endloop
  endfacet
  facet normal  0.000000e+000  -0.000000e+000  1.000000e+000
    outer loop
      vertex -2.558893e+000 -1.274567e+001  2.900000e+001
      vertex  3.582508e-001 -6.990827e+000  2.900000e+001
      vertex -2.710433e+000 -6.453956e+000  2.900000e+001
    endloop
  endfacet
  facet normal  0.000000e+000  0.000000e+000  1.000000e+000
    outer loop
      vertex -2.558893e+000 -1.274567e+001  2.900000e+001
      vertex -2.710433e+000 -6.453956e+000  2.900000e+001
      vertex -6.763848e+000 -1.110182e+001  2.900000e+001
    endloop
  endfacet
  facet normal  0.000000e+000  -0.000000e+000  1.000000e+000
    outer loop
      vertex -6.763848e+000 -1.110182e+001  2.900000e+001
      vertex -2.710433e+000 -6.453956e+000  2.900000e+001
      vertex -1.015298e+001 -8.118924e+000  2.900000e+001
    endloop
  endfacet
  facet normal  0.000000e+000  0.000000e+000  1.000000e+000
    outer loop
      vertex  6.763848e+000  1.110182e+001  2.900000e+001
      vertex  2.558893e+000  1.274567e+001  2.900000e+001
      vertex  1.015298e+001  8.118924e+000  2.900000e+001
    endloop
  endfacet
  facet normal  0.000000e+000  0.000000e+000  1.000000e+000
    outer loop
      vertex  1.015298e+001  8.118924e+000  2.900000e+001
      vertex  2.558893e+000  1.274567e+001  2.900000e+001
      vertex  2.710433e+000  6.453956e+000  2.900000e+001
    endloop
  endfacet
  facet normal  -0.000000e+000  0.000000e+000  1.000000e+000
    outer loop
      vertex  1.015298e+001  8.118924e+000  2.900000e+001
      vertex  2.710433e+000  6.453956e+000  2.900000e+001
      vertex  1.231752e+001  4.156768e+000  2.900000e+001
    endloop
  endfacet
  facet normal  0.000000e+000  0.000000e+000  1.000000e+000
    outer loop
      vertex  1.231752e+001  4.156768e+000  2.900000e+001
      vertex  2.710433e+000  6.453956e+000  2.900000e+001
      vertex  5.242282e+000  4.638801e+000  2.900000e+001
    endloop
  endfacet
  facet normal  0.000000e+000  0.000000e+000  1.000000e+000
    outer loop
      vertex  1.231752e+001  4.156768e+000  2.900000e+001
      vertex  5.242282e+000  4.638801e+000  2.900000e+001
      vertex  1.299638e+001 -3.067556e-001  2.900000e+001
    endloop
  endfacet
  facet normal  0.000000e+000  0.000000e+000  1.000000e+000
    outer loop
      vertex  1.299638e+001 -3.067556e-001  2.900000e+001
      vertex  5.242282e+000  4.638801e+000  2.900000e+001
      vertex  6.735834e+000  1.904874e+000  2.900000e+001
    endloop
  endfacet
  facet normal  0.000000e+000  0.000000e+000  1.000000e+000
    outer loop
      vertex  1.299638e+001 -3.067556e-001  2.900000e+001
      vertex  6.735834e+000  1.904874e+000  2.900000e+001
      vertex  6.895270e+000 -1.206337e+000  2.900000e+001
    endloop
  endfacet
  facet normal  0.000000e+000  0.000000e+000  1.000000e+000
    outer loop
      vertex -5.689014e+000  4.078618e+000  2.900000e+001
      vertex -1.210769e+001  4.733280e+000  2.900000e+001
      vertex -6.895270e+000  1.206337e+000  2.900000e+001
    endloop
  endfacet
  facet normal  0.000000e+000  0.000000e+000  1.000000e+000
    outer loop
      vertex -6.895270e+000  1.206337e+000  2.900000e+001
      vertex -1.210769e+001  4.733280e+000  2.900000e+001
      vertex -1.299638e+001  3.067556e-001  2.900000e+001
    endloop
  endfacet
  facet normal  -0.000000e+000  0.000000e+000  1.000000e+000
    outer loop
      vertex -6.895270e+000  1.206337e+000  2.900000e+001
      vertex -1.299638e+001  3.067556e-001  2.900000e+001
      vertex -6.735834e+000 -1.904874e+000  2.900000e+001
    endloop
  endfacet
  facet normal  0.000000e+000  0.000000e+000  1.000000e+000
    outer loop
      vertex -6.735834e+000 -1.904874e+000  2.900000e+001
      vertex -1.299638e+001  3.067556e-001  2.900000e+001
      vertex -1.231752e+001 -4.156768e+000  2.900000e+001
    endloop
  endfacet
  facet normal  -0.000000e+000  0.000000e+000  1.000000e+000
    outer loop
      vertex -6.735834e+000 -1.904874e+000  2.900000e+001
      vertex -1.231752e+001 -4.156768e+000  2.900000e+001
      vertex -5.242282e+000 -4.638801e+000  2.900000e+001
    endloop
  endfacet
  facet normal  0.000000e+000  0.000000e+000  1.000000e+000
    outer loop
      vertex -1.015298e+001 -8.118924e+000  2.900000e+001
      vertex -2.710433e+000 -6.453956e+000  2.900000e+001
      vertex -1.231752e+001 -4.156768e+000  2.900000e+001
    endloop
  endfacet
  facet normal  0.000000e+000  0.000000e+000  1.000000e+000
    outer loop
      vertex -1.231752e+001 -4.156768e+000  2.900000e+001
      vertex -2.710433e+000 -6.453956e+000  2.900000e+001
      vertex -5.242282e+000 -4.638801e+000  2.900000e+001
    endloop
  endfacet
  facet normal  -0.000000e+000  0.000000e+000  1.000000e+000
    outer loop
      vertex  1.299638e+001 -3.067556e-001  2.900000e+001
      vertex  6.895270e+000 -1.206337e+000  2.900000e+001
      vertex  1.210769e+001 -4.733280e+000  2.900000e+001
    endloop
  endfacet
  facet normal  0.000000e+000  0.000000e+000  1.000000e+000
    outer loop
      vertex  1.210769e+001 -4.733280e+000  2.900000e+001
      vertex  6.895270e+000 -1.206337e+000  2.900000e+001
      vertex  5.689014e+000 -4.078618e+000  2.900000e+001
    endloop
  endfacet
  facet normal  0.000000e+000  0.000000e+000  1.000000e+000
    outer loop
      vertex  1.210769e+001 -4.733280e+000  2.900000e+001
      vertex  5.689014e+000 -4.078618e+000  2.900000e+001
      vertex  9.758626e+000 -8.588901e+000  2.900000e+001
    endloop
  endfacet
  facet normal  0.000000e+000  0.000000e+000  1.000000e+000
    outer loop
      vertex  9.758626e+000 -8.588901e+000  2.900000e+001
      vertex  5.689014e+000 -4.078618e+000  2.900000e+001
      vertex  3.355979e+000 -6.143078e+000  2.900000e+001
    endloop
  endfacet
  facet normal  0.000000e+000  0.000000e+000  1.000000e+000
    outer loop
      vertex  9.758626e+000 -8.588901e+000  2.900000e+001
      vertex  3.355979e+000 -6.143078e+000  2.900000e+001
      vertex  3.582508e-001 -6.990827e+000  2.900000e+001
    endloop
  endfacet
  facet normal  -0.000000e+000  0.000000e+000  9.999999e-001
    outer loop
      vertex  2.445070e+000 -4.475671e+000  3.200000e+001
      vertex -1.203426e-001 -5.098580e+000  3.200000e+001
      vertex  3.582508e-001 -6.990827e+000  3.200000e+001
    endloop
  endfacet
  facet normal  0.000000e+000  0.000000e+000  1.000000e+000
    outer loop
      vertex  2.445070e+000 -4.475671e+000  3.200000e+001
      vertex  3.582508e-001 -6.990827e+000  3.200000e+001
      vertex  3.355979e+000 -6.143078e+000  3.200000e+001
    endloop
  endfacet
  facet normal  0.000000e+000  -0.000000e+000  1.000000e+000
    outer loop
      vertex  2.445070e+000 -4.475671e+000  3.200000e+001
      vertex  3.355979e+000 -6.143078e+000  3.200000e+001
      vertex  5.689014e+000 -4.078618e+000  3.200000e+001
    endloop
  endfacet
  facet normal  0.000000e+000  0.000000e+000  1.000000e+000
    outer loop
      vertex  2.445070e+000 -4.475671e+000  3.200000e+001
      vertex  5.689014e+000 -4.078618e+000  3.200000e+001
      vertex  4.355329e+000 -2.653510e+000  3.200000e+001
    endloop
  endfacet
  facet normal  0.000000e+000  0.000000e+000  9.999999e-001
    outer loop
      vertex  1.203426e-001  5.098580e+000  3.200000e+001
      vertex -3.582508e-001  6.990827e+000  3.200000e+001
      vertex -2.445070e+000  4.475671e+000  3.200000e+001
    endloop
  endfacet
  facet normal  0.000000e+000  -0.000000e+000  1.000000e+000
    outer loop
      vertex -2.445070e+000  4.475671e+000  3.200000e+001
      vertex -3.582508e-001  6.990827e+000  3.200000e+001
      vertex -3.355979e+000  6.143078e+000  3.200000e+001
    endloop
  endfacet
  facet normal  0.000000e+000  0.000000e+000  1.000000e+000
    outer loop
      vertex -2.445070e+000  4.475671e+000  3.200000e+001
      vertex -3.355979e+000  6.143078e+000  3.200000e+001
      vertex -5.689014e+000  4.078618e+000  3.200000e+001
    endloop
  endfacet
  facet normal  -0.000000e+000  0.000000e+000  1.000000e+000
    outer loop
      vertex -2.445070e+000  4.475671e+000  3.200000e+001
      vertex -5.689014e+000  4.078618e+000  3.200000e+001
      vertex -4.355329e+000  2.653510e+000  3.200000e+001
    endloop
  endfacet
  facet normal  0.000000e+000  0.000000e+000  1.000000e+000
    outer loop
      vertex -4.355329e+000  2.653510e+000  3.200000e+001
      vertex -5.689014e+000  4.078618e+000  3.200000e+001
      vertex -6.895270e+000  1.206337e+000  3.200000e+001
    endloop
  endfacet
  facet normal  -0.000000e+000  0.000000e+000  1.000000e+000
    outer loop
      vertex -4.355329e+000  2.653510e+000  3.200000e+001
      vertex -6.895270e+000  1.206337e+000  3.200000e+001
      vertex -5.098580e+000  1.203426e-001  3.200000e+001
    endloop
  endfacet
  facet normal  0.000000e+000  0.000000e+000  1.000000e+000
    outer loop
      vertex -5.098580e+000  1.203426e-001  3.200000e+001
      vertex -6.895270e+000  1.206337e+000  3.200000e+001
      vertex -4.475671e+000 -2.445070e+000  3.200000e+001
    endloop
  endfacet
  facet normal  0.000000e+000  0.000000e+000  1.000000e+000
    outer loop
      vertex -4.475671e+000 -2.445070e+000  3.200000e+001
      vertex -6.895270e+000  1.206337e+000  3.200000e+001
      vertex -6.735834e+000 -1.904874e+000  3.200000e+001
    endloop
  endfacet
  facet normal  0.000000e+000  0.000000e+000  1.000000e+000
    outer loop
      vertex -4.475671e+000 -2.445070e+000  3.200000e+001
      vertex -6.735834e+000 -1.904874e+000  3.200000e+001
      vertex -2.653510e+000 -4.355329e+000  3.200000e+001
    endloop
  endfacet
  facet normal  0.000000e+000  0.000000e+000  1.000000e+000
    outer loop
      vertex -2.653510e+000 -4.355329e+000  3.200000e+001
      vertex -6.735834e+000 -1.904874e+000  3.200000e+001
      vertex -5.242282e+000 -4.638801e+000  3.200000e+001
    endloop
  endfacet
  facet normal  -0.000000e+000  0.000000e+000  1.000000e+000
    outer loop
      vertex -2.653510e+000 -4.355329e+000  3.200000e+001
      vertex -5.242282e+000 -4.638801e+000  3.200000e+001
      vertex -1.203426e-001 -5.098580e+000  3.200000e+001
    endloop
  endfacet
  facet normal  0.000000e+000  0.000000e+000  1.000000e+000
    outer loop
      vertex -1.203426e-001 -5.098580e+000  3.200000e+001
      vertex -5.242282e+000 -4.638801e+000  3.200000e+001
      vertex -2.710433e+000 -6.453956e+000  3.200000e+001
    endloop
  endfacet
  facet normal  -0.000000e+000  0.000000e+000  1.000000e+000
    outer loop
      vertex -1.203426e-001 -5.098580e+000  3.200000e+001
      vertex -2.710433e+000 -6.453956e+000  3.200000e+001
      vertex  3.582508e-001 -6.990827e+000  3.200000e+001
    endloop
  endfacet
  facet normal  0.000000e+000  0.000000e+000  1.000000e+000
    outer loop
      vertex  4.355329e+000 -2.653510e+000  3.200000e+001
      vertex  5.689014e+000 -4.078618e+000  3.200000e+001
      vertex  5.098580e+000 -1.203426e-001  3.200000e+001
    endloop
  endfacet
  facet normal  0.000000e+000  0.000000e+000  9.999999e-001
    outer loop
      vertex  5.098580e+000 -1.203426e-001  3.200000e+001
      vertex  5.689014e+000 -4.078618e+000  3.200000e+001
      vertex  6.895270e+000 -1.206337e+000  3.200000e+001
    endloop
  endfacet
  facet normal  0.000000e+000  0.000000e+000  1.000000e+000
    outer loop
      vertex  5.098580e+000 -1.203426e-001  3.200000e+001
      vertex  6.895270e+000 -1.206337e+000  3.200000e+001
      vertex  4.475671e+000  2.445070e+000  3.200000e+001
    endloop
  endfacet
  facet normal  0.000000e+000  0.000000e+000  1.000000e+000
    outer loop
      vertex  4.475671e+000  2.445070e+000  3.200000e+001
      vertex  6.895270e+000 -1.206337e+000  3.200000e+001
      vertex  6.735834e+000  1.904874e+000  3.200000e+001
    endloop
  endfacet
  facet normal  0.000000e+000  0.000000e+000  1.000000e+000
    outer loop
      vertex  4.475671e+000  2.445070e+000  3.200000e+001
      vertex  6.735834e+000  1.904874e+000  3.200000e+001
      vertex  2.653510e+000  4.355329e+000  3.200000e+001
    endloop
  endfacet
  facet normal  -0.000000e+000  0.000000e+000  1.000000e+000
    outer loop
      vertex  2.653510e+000  4.355329e+000  3.200000e+001
      vertex  6.735834e+000  1.904874e+000  3.200000e+001
      vertex  5.242282e+000  4.638801e+000  3.200000e+001
    endloop
  endfacet
  facet normal  0.000000e+000  0.000000e+000  1.000000e+000
    outer loop
      vertex  2.653510e+000  4.355329e+000  3.200000e+001
      vertex  5.242282e+000  4.638801e+000  3.200000e+001
      vertex  1.203426e-001  5.098580e+000  3.200000e+001
    endloop
  endfacet
  facet normal  -0.000000e+000  0.000000e+000  1.000000e+000
    outer loop
      vertex  1.203426e-001  5.098580e+000  3.200000e+001
      vertex  5.242282e+000  4.638801e+000  3.200000e+001
      vertex  2.710433e+000  6.453956e+000  3.200000e+001
    endloop
  endfacet
  facet normal  0.000000e+000  0.000000e+000  1.000000e+000
    outer loop
      vertex  1.203426e-001  5.098580e+000  3.200000e+001
      vertex  2.710433e+000  6.453956e+000  3.200000e+001
      vertex -3.582508e-001  6.990827e+000  3.200000e+001
    endloop
  endfacet
  facet normal  -0.000000e+000  0.000000e+000  9.999999e-001
    outer loop
      vertex  1.438277e+000 -2.632748e+000  4.000000e+001
      vertex -3.839000e-001 -2.975335e+000  4.000000e+001
      vertex -1.203426e-001 -5.098580e+000  4.000000e+001
    endloop
  endfacet
  facet normal  0.000000e+000  0.000000e+000  1.000000e+000
    outer loop
      vertex  1.438277e+000 -2.632748e+000  4.000000e+001
      vertex -1.203426e-001 -5.098580e+000  4.000000e+001
      vertex  2.445070e+000 -4.475671e+000  4.000000e+001
    endloop
  endfacet
  facet normal  0.000000e+000  -0.000000e+000  9.999999e-001
    outer loop
      vertex  1.438277e+000 -2.632748e+000  4.000000e+001
      vertex  2.445070e+000 -4.475671e+000  4.000000e+001
      vertex  4.355329e+000 -2.653510e+000  4.000000e+001
    endloop
  endfacet
  facet normal  0.000000e+000  0.000000e+000  1.000000e+000
    outer loop
      vertex  1.438277e+000 -2.632748e+000  4.000000e+001
      vertex  4.355329e+000 -2.653510e+000  4.000000e+001
      vertex  2.711081e+000 -1.284540e+000  4.000000e+001
    endloop
  endfacet
  facet normal  0.000000e+000  0.000000e+000  9.999999e-001
    outer loop
      vertex  3.839000e-001  2.975335e+000  4.000000e+001
      vertex  1.203426e-001  5.098580e+000  4.000000e+001
      vertex -1.438277e+000  2.632748e+000  4.000000e+001
    endloop
  endfacet
  facet normal  0.000000e+000  -0.000000e+000  1.000000e+000
    outer loop
      vertex -1.438277e+000  2.632748e+000  4.000000e+001
      vertex  1.203426e-001  5.098580e+000  4.000000e+001
      vertex -2.445070e+000  4.475671e+000  4.000000e+001
    endloop
  endfacet
  facet normal  0.000000e+000  0.000000e+000  9.999999e-001
    outer loop
      vertex -1.438277e+000  2.632748e+000  4.000000e+001
      vertex -2.445070e+000  4.475671e+000  4.000000e+001
      vertex -4.355329e+000  2.653510e+000  4.000000e+001
    endloop
  endfacet
  facet normal  0.000000e+000  0.000000e+000  1.000000e+000
    outer loop
      vertex -1.438277e+000  2.632748e+000  4.000000e+001
      vertex -4.355329e+000  2.653510e+000  4.000000e+001
      vertex -2.711081e+000  1.284540e+000  4.000000e+001
    endloop
  endfacet
  facet normal  0.000000e+000  0.000000e+000  1.000000e+000
    outer loop
      vertex -2.711081e+000  1.284540e+000  4.000000e+001
      vertex -4.355329e+000  2.653510e+000  4.000000e+001
      vertex -5.098580e+000  1.203426e-001  4.000000e+001
    endloop
  endfacet
  facet normal  -0.000000e+000  0.000000e+000  1.000000e+000
    outer loop
      vertex -2.711081e+000  1.284540e+000  4.000000e+001
      vertex -5.098580e+000  1.203426e-001  4.000000e+001
      vertex -2.948344e+000 -5.543185e-001  4.000000e+001
    endloop
  endfacet
  facet normal  0.000000e+000  0.000000e+000  1.000000e+000
    outer loop
      vertex -2.948344e+000 -5.543185e-001  4.000000e+001
      vertex -5.098580e+000  1.203426e-001  4.000000e+001
      vertex -2.059440e+000 -2.181446e+000  4.000000e+001
    endloop
  endfacet
  facet normal  0.000000e+000  0.000000e+000  1.000000e+000
    outer loop
      vertex -2.059440e+000 -2.181446e+000  4.000000e+001
      vertex -5.098580e+000  1.203426e-001  4.000000e+001
      vertex -4.475671e+000 -2.445070e+000  4.000000e+001
    endloop
  endfacet
  facet normal  -0.000000e+000  0.000000e+000  1.000000e+000
    outer loop
      vertex -2.059440e+000 -2.181446e+000  4.000000e+001
      vertex -4.475671e+000 -2.445070e+000  4.000000e+001
      vertex -3.839000e-001 -2.975335e+000  4.000000e+001
    endloop
  endfacet
  facet normal  0.000000e+000  0.000000e+000  1.000000e+000
    outer loop
      vertex -3.839000e-001 -2.975335e+000  4.000000e+001
      vertex -4.475671e+000 -2.445070e+000  4.000000e+001
      vertex -2.653510e+000 -4.355329e+000  4.000000e+001
    endloop
  endfacet
  facet normal  -0.000000e+000  0.000000e+000  1.000000e+000
    outer loop
      vertex -3.839000e-001 -2.975335e+000  4.000000e+001
      vertex -2.653510e+000 -4.355329e+000  4.000000e+001
      vertex -1.203426e-001 -5.098580e+000  4.000000e+001
    endloop
  endfacet
  facet normal  0.000000e+000  0.000000e+000  1.000000e+000
    outer loop
      vertex  2.711081e+000 -1.284540e+000  4.000000e+001
      vertex  4.355329e+000 -2.653510e+000  4.000000e+001
      vertex  2.948344e+000  5.543185e-001  4.000000e+001
    endloop
  endfacet
  facet normal  0.000000e+000  0.000000e+000  9.999999e-001
    outer loop
      vertex  2.948344e+000  5.543185e-001  4.000000e+001
      vertex  4.355329e+000 -2.653510e+000  4.000000e+001
      vertex  5.098580e+000 -1.203426e-001  4.000000e+001
    endloop
  endfacet
  facet normal  0.000000e+000  0.000000e+000  1.000000e+000
    outer loop
      vertex  2.948344e+000  5.543185e-001  4.000000e+001
      vertex  5.098580e+000 -1.203426e-001  4.000000e+001
      vertex  2.059440e+000  2.181446e+000  4.000000e+001
    endloop
  endfacet
  facet normal  -0.000000e+000  0.000000e+000  1.000000e+000
    outer loop
      vertex  2.059440e+000  2.181446e+000  4.000000e+001
      vertex  5.098580e+000 -1.203426e-001  4.000000e+001
      vertex  4.475671e+000  2.445070e+000  4.000000e+001
    endloop
  endfacet
  facet normal  0.000000e+000  0.000000e+000  1.000000e+000
    outer loop
      vertex  2.059440e+000  2.181446e+000  4.000000e+001
      vertex  4.475671e+000  2.445070e+000  4.000000e+001
      vertex  3.839000e-001  2.975335e+000  4.000000e+001
    endloop
  endfacet
  facet normal  -0.000000e+000  0.000000e+000  1.000000e+000
    outer loop
      vertex  3.839000e-001  2.975335e+000  4.000000e+001
      vertex  4.475671e+000  2.445070e+000  4.000000e+001
      vertex  2.653510e+000  4.355329e+000  4.000000e+001
    endloop
  endfacet
  facet normal  0.000000e+000  0.000000e+000  1.000000e+000
    outer loop
      vertex  3.839000e-001  2.975335e+000  4.000000e+001
      vertex  2.653510e+000  4.355329e+000  4.000000e+001
      vertex  1.203426e-001  5.098580e+000  4.000000e+001
    endloop
  endfacet
  facet normal  -0.000000e+000  0.000000e+000  1.000000e+000
    outer loop
      vertex  3.839000e-001  2.975335e+000  3.200000e+001
      vertex -1.438277e+000  2.632748e+000  3.200000e+001
      vertex  2.059440e+000  2.181446e+000  3.200000e+001
    endloop
  endfacet
  facet normal  0.000000e+000  0.000000e+000  9.999999e-001
    outer loop
      vertex  2.059440e+000  2.181446e+000  3.200000e+001
      vertex -1.438277e+000  2.632748e+000  3.200000e+001
      vertex -2.711081e+000  1.284540e+000  3.200000e+001
    endloop
  endfacet
  facet normal  -0.000000e+000  0.000000e+000  1.000000e+000
    outer loop
      vertex  2.059440e+000  2.181446e+000  3.200000e+001
      vertex -2.711081e+000  1.284540e+000  3.200000e+001
      vertex  2.948344e+000  5.543185e-001  3.200000e+001
    endloop
  endfacet
  facet normal  0.000000e+000  0.000000e+000  9.999999e-001
    outer loop
      vertex  2.948344e+000  5.543185e-001  3.200000e+001
      vertex -2.711081e+000  1.284540e+000  3.200000e+001
      vertex  2.711081e+000 -1.284540e+000  3.200000e+001
    endloop
  endfacet
  facet normal  0.000000e+000  0.000000e+000  9.999999e-001
    outer loop
      vertex  2.711081e+000 -1.284540e+000  3.200000e+001
      vertex -2.711081e+000  1.284540e+000  3.200000e+001
      vertex -2.948344e+000 -5.543185e-001  3.200000e+001
    endloop
  endfacet
  facet normal  0.000000e+000  0.000000e+000  1.000000e+000
    outer loop
      vertex  2.711081e+000 -1.284540e+000  3.200000e+001
      vertex -2.948344e+000 -5.543185e-001  3.200000e+001
      vertex  1.438277e+000 -2.632748e+000  3.200000e+001
    endloop
  endfacet
  facet normal  0.000000e+000  0.000000e+000  9.999999e-001
    outer loop
      vertex  1.438277e+000 -2.632748e+000  3.200000e+001
      vertex -2.948344e+000 -5.543185e-001  3.200000e+001
      vertex -2.059440e+000 -2.181446e+000  3.200000e+001
    endloop
  endfacet
  facet normal  0.000000e+000  0.000000e+000  1.000000e+000
    outer loop
      vertex  1.438277e+000 -2.632748e+000  3.200000e+001
      vertex -2.059440e+000 -2.181446e+000  3.200000e+001
      vertex -3.839000e-001 -2.975335e+000  3.200000e+001
    endloop
  endfacet
  facet normal  2.990056e-001 -9.542514e-001  0.000000e+000
    outer loop
      vertex  4.194973e+000 -7.678847e+000  6.000000e+000
      vertex  4.194973e+000 -7.678847e+000  2.600000e+001
      vertex  9.370824e-001 -8.699677e+000  6.000000e+000
    endloop
  endfacet
  facet normal  2.990056e-001 -9.542514e-001  0.000000e+000
    outer loop
      vertex  9.370824e-001 -8.699677e+000  6.000000e+000
      vertex  4.194973e+000 -7.678847e+000  2.600000e+001
      vertex  9.370824e-001 -8.699677e+000  2.600000e+001
    endloop
  endfacet
  facet normal -8.893096e-002 -9.960378e-001  -0.000000e+000
    outer loop
      vertex  9.370824e-001 -8.699677e+000  6.000000e+000
      vertex  9.370824e-001 -8.699677e+000  2.600000e+001
      vertex -2.463471e+000 -8.396059e+000  6.000000e+000
    endloop
  endfacet
  facet normal -8.893096e-002 -9.960378e-001  0.000000e+000
    outer loop
      vertex -2.463471e+000 -8.396059e+000  6.000000e+000
      vertex  9.370824e-001 -8.699677e+000  2.600000e+001
      vertex -2.463471e+000 -8.396059e+000  2.600000e+001
    endloop
  endfacet
  facet normal -4.633286e-001 -8.861866e-001  -0.000000e+000
    outer loop
      vertex -2.463471e+000 -8.396059e+000  6.000000e+000
      vertex -2.463471e+000 -8.396059e+000  2.600000e+001
      vertex -5.488983e+000 -6.814218e+000  6.000000e+000
    endloop
  endfacet
  facet normal -4.633286e-001 -8.861866e-001  0.000000e+000
    outer loop
      vertex -5.488983e+000 -6.814218e+000  6.000000e+000
      vertex -2.463471e+000 -8.396059e+000  2.600000e+001
      vertex -5.488983e+000 -6.814218e+000  2.600000e+001
    endloop
  endfacet
  facet normal -7.671888e-001 -6.414213e-001  -0.000000e+000
    outer loop
      vertex -5.488983e+000 -6.814218e+000  6.000000e+000
      vertex -5.488983e+000 -6.814218e+000  2.600000e+001
      vertex -7.678847e+000 -4.194973e+000  6.000000e+000
    endloop
  endfacet
  facet normal -7.671888e-001 -6.414213e-001  0.000000e+000
    outer loop
      vertex -7.678847e+000 -4.194973e+000  6.000000e+000
      vertex -5.488983e+000 -6.814218e+000  2.600000e+001
      vertex -7.678847e+000 -4.194973e+000  2.600000e+001
    endloop
  endfacet
  facet normal -9.542514e-001 -2.990056e-001  -0.000000e+000
    outer loop
      vertex -7.678847e+000 -4.194973e+000  6.000000e+000
      vertex -7.678847e+000 -4.194973e+000  2.600000e+001
      vertex -8.699677e+000 -9.370824e-001  6.000000e+000
    endloop
  endfacet
  facet normal -9.542514e-001 -2.990056e-001  0.000000e+000
    outer loop
      vertex -8.699677e+000 -9.370824e-001  6.000000e+000
      vertex -7.678847e+000 -4.194973e+000  2.600000e+001
      vertex -8.699677e+000 -9.370824e-001  2.600000e+001
    endloop
  endfacet
  facet normal -9.960378e-001  8.893096e-002  0.000000e+000
    outer loop
      vertex -8.699677e+000 -9.370824e-001  6.000000e+000
      vertex -8.699677e+000 -9.370824e-001  2.600000e+001
      vertex -8.396059e+000  2.463471e+000  6.000000e+000
    endloop
  endfacet
  facet normal -9.960378e-001  8.893096e-002  0.000000e+000
    outer loop
      vertex -8.396059e+000  2.463471e+000  6.000000e+000
      vertex -8.699677e+000 -9.370824e-001  2.600000e+001
      vertex -8.396059e+000  2.463471e+000  2.600000e+001
    endloop
  endfacet
  facet normal -8.861866e-001  4.633286e-001  0.000000e+000
    outer loop
      vertex -8.396059e+000  2.463471e+000  6.000000e+000
      vertex -8.396059e+000  2.463471e+000  2.600000e+001
      vertex -6.814218e+000  5.488983e+000  6.000000e+000
    endloop
  endfacet
  facet normal -8.861866e-001  4.633286e-001  0.000000e+000
    outer loop
      vertex -6.814218e+000  5.488983e+000  6.000000e+000
      vertex -8.396059e+000  2.463471e+000  2.600000e+001
      vertex -6.814218e+000  5.488983e+000  2.600000e+001
    endloop
  endfacet
  facet normal -6.414213e-001  7.671888e-001  0.000000e+000
    outer loop
      vertex -6.814218e+000  5.488983e+000  6.000000e+000
      vertex -6.814218e+000  5.488983e+000  2.600000e+001
      vertex -4.194973e+000  7.678847e+000  6.000000e+000
    endloop
  endfacet
  facet normal -6.414213e-001  7.671888e-001  0.000000e+000
    outer loop
      vertex -4.194973e+000  7.678847e+000  6.000000e+000
      vertex -6.814218e+000  5.488983e+000  2.600000e+001
      vertex -4.194973e+000  7.678847e+000  2.600000e+001
    endloop
  endfacet
  facet normal -2.990056e-001  9.542514e-001  0.000000e+000
    outer loop
      vertex -4.194973e+000  7.678847e+000  6.000000e+000
      vertex -4.194973e+000  7.678847e+000  2.600000e+001
      vertex -9.370824e-001  8.699677e+000  6.000000e+000
    endloop
  endfacet
  facet normal -2.990056e-001  9.542514e-001  0.000000e+000
    outer loop
      vertex -9.370824e-001  8.699677e+000  6.000000e+000
      vertex -4.194973e+000  7.678847e+000  2.600000e+001
      vertex -9.370824e-001  8.699677e+000  2.600000e+001
    endloop
  endfacet
  facet normal  8.893096e-002  9.960378e-001  0.000000e+000
    outer loop
      vertex -9.370824e-001  8.699677e+000  6.000000e+000
      vertex -9.370824e-001  8.699677e+000  2.600000e+001
      vertex  2.463471e+000  8.396059e+000  6.000000e+000
    endloop
  endfacet
  facet normal  8.893096e-002  9.960378e-001  -0.000000e+000
    outer loop
      vertex  2.463471e+000  8.396059e+000  6.000000e+000
      vertex -9.370824e-001  8.699677e+000  2.600000e+001
      vertex  2.463471e+000  8.396059e+000  2.600000e+001
    endloop
  endfacet
  facet normal  4.633286e-001  8.861866e-001  0.000000e+000
    outer loop
      vertex  2.463471e+000  8.396059e+000  6.000000e+000
      vertex  2.463471e+000  8.396059e+000  2.600000e+001
      vertex  5.488983e+000  6.814218e+000  6.000000e+000
    endloop
  endfacet
  facet normal  4.633286e-001  8.861866e-001  -0.000000e+000
    outer loop
      vertex  5.488983e+000  6.814218e+000  6.000000e+000
      vertex  2.463471e+000  8.396059e+000  2.600000e+001
      vertex  5.488983e+000  6.814218e+000  2.600000e+001
    endloop
  endfacet
  facet normal  7.671888e-001  6.414213e-001  0.000000e+000
    outer loop
      vertex  5.488983e+000  6.814218e+000  6.000000e+000
      vertex  5.488983e+000  6.814218e+000  2.600000e+001
      vertex  7.678847e+000  4.194973e+000  6.000000e+000
    endloop
  endfacet
  facet normal  7.671888e-001  6.414213e-001  -0.000000e+000
    outer loop
      vertex  7.678847e+000  4.194973e+000  6.000000e+000
      vertex  5.488983e+000  6.814218e+000  2.600000e+001
      vertex  7.678847e+000  4.194973e+000  2.600000e+001
    endloop
  endfacet
  facet normal  9.542514e-001  2.990056e-001  0.000000e+000
    outer loop
      vertex  7.678847e+000  4.194973e+000  6.000000e+000
      vertex  7.678847e+000  4.194973e+000  2.600000e+001
      vertex  8.699677e+000  9.370824e-001  6.000000e+000
    endloop
  endfacet
  facet normal  9.542514e-001  2.990056e-001  -0.000000e+000
    outer loop
      vertex  8.699677e+000  9.370824e-001  6.000000e+000
      vertex  7.678847e+000  4.194973e+000  2.600000e+001
      vertex  8.699677e+000  9.370824e-001  2.600000e+001
    endloop
  endfacet
  facet normal  9.960378e-001 -8.893096e-002  0.000000e+000
    outer loop
      vertex  8.699677e+000  9.370824e-001  6.000000e+000
      vertex  8.699677e+000  9.370824e-001  2.600000e+001
      vertex  8.396059e+000 -2.463471e+000  6.000000e+000
    endloop
  endfacet
  facet normal  9.960378e-001 -8.893096e-002  0.000000e+000
    outer loop
      vertex  8.396059e+000 -2.463471e+000  6.000000e+000
      vertex  8.699677e+000  9.370824e-001  2.600000e+001
      vertex  8.396059e+000 -2.463471e+000  2.600000e+001
    endloop
  endfacet
  facet normal  8.861866e-001 -4.633286e-001  0.000000e+000
    outer loop
      vertex  8.396059e+000 -2.463471e+000  6.000000e+000
      vertex  8.396059e+000 -2.463471e+000  2.600000e+001
      vertex  6.814218e+000 -5.488983e+000  6.000000e+000
    endloop
  endfacet
  facet normal  8.861866e-001 -4.633286e-001  0.000000e+000
    outer loop
      vertex  6.814218e+000 -5.488983e+000  6.000000e+000
      vertex  8.396059e+000 -2.463471e+000  2.600000e+001
      vertex  6.814218e+000 -5.488983e+000  2.600000e+001
    endloop
  endfacet
  facet normal  6.414213e-001 -7.671888e-001  0.000000e+000
    outer loop
      vertex  6.814218e+000 -5.488983e+000  6.000000e+000
      vertex  6.814218e+000 -5.488983e+000  2.600000e+001
      vertex  4.194973e+000 -7.678847e+000  6.000000e+000
    endloop
  endfacet
  facet normal  6.414213e-001 -7.671888e-001  0.000000e+000
    outer loop
      vertex  4.194973e+000 -7.678847e+000  6.000000e+000
      vertex  6.814218e+000 -5.488983e+000  2.600000e+001
      vertex  4.194973e+000 -7.678847e+000  2.600000e+001
    endloop
  endfacet
  facet normal  6.606846e-001  7.506636e-001  0.000000e+000
    outer loop
      vertex -8.786236e+000 -7.025992e+000  1.600000e+001
      vertex -5.853330e+000 -9.607342e+000  2.600000e+001
      vertex -5.853330e+000 -9.607342e+000  1.600000e+001
    endloop
  endfacet
  facet normal  3.640985e-001  9.313605e-001  -0.000000e+000
    outer loop
      vertex -5.853330e+000 -9.607342e+000  1.600000e+001
      vertex -5.853330e+000 -9.607342e+000  2.600000e+001
      vertex -2.214427e+000 -1.102991e+001  2.600000e+001
    endloop
  endfacet
  facet normal  3.640985e-001  9.313605e-001  0.000000e+000
    outer loop
      vertex -5.853330e+000 -9.607342e+000  1.600000e+001
      vertex -2.214427e+000 -1.102991e+001  2.600000e+001
      vertex -2.214427e+000 -1.102991e+001  1.600000e+001
    endloop
  endfacet
  facet normal  2.359652e-002  9.997216e-001  -0.000000e+000
    outer loop
      vertex -2.214427e+000 -1.102991e+001  1.600000e+001
      vertex -2.214427e+000 -1.102991e+001  2.600000e+001
      vertex  1.691569e+000 -1.112210e+001  2.600000e+001
    endloop
  endfacet
  facet normal  2.359652e-002  9.997216e-001  0.000000e+000
    outer loop
      vertex -2.214427e+000 -1.102991e+001  1.600000e+001
      vertex  1.691569e+000 -1.112210e+001  2.600000e+001
      vertex  1.691569e+000 -1.112210e+001  1.600000e+001
    endloop
  endfacet
  facet normal -3.197513e-001  9.475015e-001  0.000000e+000
    outer loop
      vertex  1.691569e+000 -1.112210e+001  1.600000e+001
      vertex  1.691569e+000 -1.112210e+001  2.600000e+001
      vertex  5.393538e+000 -9.872804e+000  2.600000e+001
    endloop
  endfacet
  facet normal -3.197513e-001  9.475015e-001  0.000000e+000
    outer loop
      vertex  1.691569e+000 -1.112210e+001  1.600000e+001
      vertex  5.393538e+000 -9.872804e+000  2.600000e+001
      vertex  5.393538e+000 -9.872804e+000  1.600000e+001
    endloop
  endfacet
  facet normal  6.606846e-001  7.506636e-001  -0.000000e+000
    outer loop
      vertex -5.853330e+000 -9.607342e+000  2.600000e+001
      vertex -8.786236e+000 -7.025992e+000  1.600000e+001
      vertex -8.786236e+000 -7.025992e+000  2.600000e+001
    endloop
  endfacet
  facet normal  8.775826e-001  4.794255e-001  0.000000e+000
    outer loop
      vertex -8.786236e+000 -7.025992e+000  2.600000e+001
      vertex -8.786236e+000 -7.025992e+000  1.600000e+001
      vertex -1.065939e+001 -3.597203e+000  1.600000e+001
    endloop
  endfacet
  facet normal  8.775826e-001  4.794255e-001  -0.000000e+000
    outer loop
      vertex -8.786236e+000 -7.025992e+000  2.600000e+001
      vertex -1.065939e+001 -3.597203e+000  1.600000e+001
      vertex -1.065939e+001 -3.597203e+000  2.600000e+001
    endloop
  endfacet
  facet normal  9.886311e-001  1.503617e-001  0.000000e+000
    outer loop
      vertex -1.065939e+001 -3.597203e+000  2.600000e+001
      vertex -1.065939e+001 -3.597203e+000  1.600000e+001
      vertex -1.124687e+001  2.654616e-001  1.600000e+001
    endloop
  endfacet
  facet normal  9.886311e-001  1.503617e-001  -0.000000e+000
    outer loop
      vertex -1.065939e+001 -3.597203e+000  2.600000e+001
      vertex -1.124687e+001  2.654616e-001  1.600000e+001
      vertex -1.124687e+001  2.654616e-001  2.600000e+001
    endloop
  endfacet
  facet normal  9.804361e-001 -1.968379e-001  0.000000e+000
    outer loop
      vertex -1.124687e+001  2.654616e-001  2.600000e+001
      vertex -1.124687e+001  2.654616e-001  1.600000e+001
      vertex -1.047781e+001  4.096107e+000  1.600000e+001
    endloop
  endfacet
  facet normal  9.804361e-001 -1.968379e-001  0.000000e+000
    outer loop
      vertex -1.124687e+001  2.654616e-001  2.600000e+001
      vertex -1.047781e+001  4.096107e+000  1.600000e+001
      vertex -1.047781e+001  4.096107e+000  2.600000e+001
    endloop
  endfacet
  facet normal  8.539861e-001 -5.202959e-001  0.000000e+000
    outer loop
      vertex -1.047781e+001  4.096107e+000  2.600000e+001
      vertex -1.047781e+001  4.096107e+000  1.600000e+001
      vertex -8.444965e+000  7.432703e+000  1.600000e+001
    endloop
  endfacet
  facet normal  8.539861e-001 -5.202959e-001  0.000000e+000
    outer loop
      vertex -1.047781e+001  4.096107e+000  2.600000e+001
      vertex -8.444965e+000  7.432703e+000  1.600000e+001
      vertex -8.444965e+000  7.432703e+000  2.600000e+001
    endloop
  endfacet
  facet normal  6.245326e-001 -7.809988e-001  0.000000e+000
    outer loop
      vertex -8.444965e+000  7.432703e+000  2.600000e+001
      vertex -8.444965e+000  7.432703e+000  1.600000e+001
      vertex -5.393538e+000  9.872804e+000  1.600000e+001
    endloop
  endfacet
  facet normal  6.245326e-001 -7.809988e-001  0.000000e+000
    outer loop
      vertex -8.444965e+000  7.432703e+000  2.600000e+001
      vertex -5.393538e+000  9.872804e+000  1.600000e+001
      vertex -5.393538e+000  9.872804e+000  2.600000e+001
    endloop
  endfacet
  facet normal -6.606846e-001 -7.506636e-001  -0.000000e+000
    outer loop
      vertex  8.786236e+000  7.025992e+000  1.600000e+001
      vertex  5.853330e+000  9.607342e+000  2.600000e+001
      vertex  5.853330e+000  9.607342e+000  1.600000e+001
    endloop
  endfacet
  facet normal -3.640985e-001 -9.313605e-001  0.000000e+000
    outer loop
      vertex  5.853330e+000  9.607342e+000  1.600000e+001
      vertex  5.853330e+000  9.607342e+000  2.600000e+001
      vertex  2.214427e+000  1.102991e+001  2.600000e+001
    endloop
  endfacet
  facet normal -3.640985e-001 -9.313605e-001  -0.000000e+000
    outer loop
      vertex  5.853330e+000  9.607342e+000  1.600000e+001
      vertex  2.214427e+000  1.102991e+001  2.600000e+001
      vertex  2.214427e+000  1.102991e+001  1.600000e+001
    endloop
  endfacet
  facet normal -2.359652e-002 -9.997216e-001  0.000000e+000
    outer loop
      vertex  2.214427e+000  1.102991e+001  1.600000e+001
      vertex  2.214427e+000  1.102991e+001  2.600000e+001
      vertex -1.691569e+000  1.112210e+001  2.600000e+001
    endloop
  endfacet
  facet normal -2.359652e-002 -9.997216e-001  -0.000000e+000
    outer loop
      vertex  2.214427e+000  1.102991e+001  1.600000e+001
      vertex -1.691569e+000  1.112210e+001  2.600000e+001
      vertex -1.691569e+000  1.112210e+001  1.600000e+001
    endloop
  endfacet
  facet normal  3.197513e-001 -9.475015e-001  0.000000e+000
    outer loop
      vertex -1.691569e+000  1.112210e+001  1.600000e+001
      vertex -1.691569e+000  1.112210e+001  2.600000e+001
      vertex -5.393538e+000  9.872804e+000  2.600000e+001
    endloop
  endfacet
  facet normal  3.197513e-001 -9.475015e-001  0.000000e+000
    outer loop
      vertex -1.691569e+000  1.112210e+001  1.600000e+001
      vertex -5.393538e+000  9.872804e+000  2.600000e+001
      vertex -5.393538e+000  9.872804e+000  1.600000e+001
    endloop
  endfacet
  facet normal -6.606846e-001 -7.506636e-001  0.000000e+000
    outer loop
      vertex  5.853330e+000  9.607342e+000  2.600000e+001
      vertex  8.786236e+000  7.025992e+000  1.600000e+001
      vertex  8.786236e+000  7.025992e+000  2.600000e+001
    endloop
  endfacet
  facet normal -8.775826e-001 -4.794255e-001  -0.000000e+000
    outer loop
      vertex  8.786236e+000  7.025992e+000  2.600000e+001
      vertex  8.786236e+000  7.025992e+000  1.600000e+001
      vertex  1.065939e+001  3.597203e+000  1.600000e+001
    endloop
  endfacet
  facet normal -8.775826e-001 -4.794255e-001  0.000000e+000
    outer loop
      vertex  8.786236e+000  7.025992e+000  2.600000e+001
      vertex  1.065939e+001  3.597203e+000  1.600000e+001
      vertex  1.065939e+001  3.597203e+000  2.600000e+001
    endloop
  endfacet
  facet normal -9.886311e-001 -1.503617e-001  -0.000000e+000
    outer loop
      vertex  1.065939e+001  3.597203e+000  2.600000e+001
      vertex  1.065939e+001  3.597203e+000  1.600000e+001
      vertex  1.124687e+001 -2.654616e-001  1.600000e+001
    endloop
  endfacet
  facet normal -9.886311e-001 -1.503617e-001  0.000000e+000
    outer loop
      vertex  1.065939e+001  3.597203e+000  2.600000e+001
      vertex  1.124687e+001 -2.654616e-001  1.600000e+001
      vertex  1.124687e+001 -2.654616e-001  2.600000e+001
    endloop
  endfacet
  facet normal -9.804361e-001  1.968379e-001  0.000000e+000
    outer loop
      vertex  1.124687e+001 -2.654616e-001  2.600000e+001
      vertex  1.124687e+001 -2.654616e-001  1.600000e+001
      vertex  1.047781e+001 -4.096107e+000  1.600000e+001
    endloop
  endfacet
  facet normal -9.804361e-001  1.968379e-001  0.000000e+000
    outer loop
      vertex  1.124687e+001 -2.654616e-001  2.600000e+001
      vertex  1.047781e+001 -4.096107e+000  1.600000e+001
      vertex  1.047781e+001 -4.096107e+000  2.600000e+001
    endloop
  endfacet
  facet normal -8.539861e-001  5.202959e-001  0.000000e+000
    outer loop
      vertex  1.047781e+001 -4.096107e+000  2.600000e+001
      vertex  1.047781e+001 -4.096107e+000  1.600000e+001
      vertex  8.444965e+000 -7.432703e+000  1.600000e+001
    endloop
  endfacet
  facet normal -8.539861e-001  5.202959e-001  0.000000e+000
    outer loop
      vertex  1.047781e+001 -4.096107e+000  2.600000e+001
      vertex  8.444965e+000 -7.432703e+000  1.600000e+001
      vertex  8.444965e+000 -7.432703e+000  2.600000e+001
    endloop
  endfacet
  facet normal -6.245326e-001  7.809988e-001  0.000000e+000
    outer loop
      vertex  8.444965e+000 -7.432703e+000  2.600000e+001
      vertex  8.444965e+000 -7.432703e+000  1.600000e+001
      vertex  5.393538e+000 -9.872804e+000  1.600000e+001
    endloop
  endfacet
  facet normal -6.245326e-001  7.809988e-001  0.000000e+000
    outer loop
      vertex  8.444965e+000 -7.432703e+000  2.600000e+001
      vertex  5.393538e+000 -9.872804e+000  1.600000e+001
      vertex  5.393538e+000 -9.872804e+000  2.600000e+001
    endloop
  endfacet
  facet normal  3.197514e-001 -9.475015e-001  0.000000e+000
    outer loop
      vertex  6.232532e+000 -1.140857e+001  1.600000e+001
      vertex  6.232532e+000 -1.140857e+001  2.900000e+001
      vertex  1.954702e+000 -1.285220e+001  1.600000e+001
    endloop
  endfacet
  facet normal  3.197514e-001 -9.475015e-001  0.000000e+000
    outer loop
      vertex  1.954702e+000 -1.285220e+001  1.600000e+001
      vertex  6.232532e+000 -1.140857e+001  2.900000e+001
      vertex  1.954702e+000 -1.285220e+001  2.900000e+001
    endloop
  endfacet
  facet normal -2.359655e-002 -9.997215e-001  -0.000000e+000
    outer loop
      vertex  1.954702e+000 -1.285220e+001  1.600000e+001
      vertex  1.954702e+000 -1.285220e+001  2.900000e+001
      vertex -2.558893e+000 -1.274567e+001  1.600000e+001
    endloop
  endfacet
  facet normal -2.359655e-002 -9.997215e-001  0.000000e+000
    outer loop
      vertex -2.558893e+000 -1.274567e+001  1.600000e+001
      vertex  1.954702e+000 -1.285220e+001  2.900000e+001
      vertex -2.558893e+000 -1.274567e+001  2.900000e+001
    endloop
  endfacet
  facet normal -3.640983e-001 -9.313605e-001  -0.000000e+000
    outer loop
      vertex -2.558893e+000 -1.274567e+001  1.600000e+001
      vertex -2.558893e+000 -1.274567e+001  2.900000e+001
      vertex -6.763848e+000 -1.110182e+001  1.600000e+001
    endloop
  endfacet
  facet normal -3.640983e-001 -9.313605e-001  0.000000e+000
    outer loop
      vertex -6.763848e+000 -1.110182e+001  1.600000e+001
      vertex -2.558893e+000 -1.274567e+001  2.900000e+001
      vertex -6.763848e+000 -1.110182e+001  2.900000e+001
    endloop
  endfacet
  facet normal -6.606846e-001 -7.506635e-001  -0.000000e+000
    outer loop
      vertex -6.763848e+000 -1.110182e+001  1.600000e+001
      vertex -6.763848e+000 -1.110182e+001  2.900000e+001
      vertex -1.015298e+001 -8.118924e+000  1.600000e+001
    endloop
  endfacet
  facet normal -6.606846e-001 -7.506635e-001  0.000000e+000
    outer loop
      vertex -1.015298e+001 -8.118924e+000  1.600000e+001
      vertex -6.763848e+000 -1.110182e+001  2.900000e+001
      vertex -1.015298e+001 -8.118924e+000  2.900000e+001
    endloop
  endfacet
  facet normal -8.775826e-001 -4.794255e-001  -0.000000e+000
    outer loop
      vertex -1.015298e+001 -8.118924e+000  1.600000e+001
      vertex -1.015298e+001 -8.118924e+000  2.900000e+001
      vertex -1.231752e+001 -4.156768e+000  1.600000e+001
    endloop
  endfacet
  facet normal -8.775826e-001 -4.794255e-001  0.000000e+000
    outer loop
      vertex -1.231752e+001 -4.156768e+000  1.600000e+001
      vertex -1.015298e+001 -8.118924e+000  2.900000e+001
      vertex -1.231752e+001 -4.156768e+000  2.900000e+001
    endloop
  endfacet
  facet normal -9.886310e-001 -1.503616e-001  -0.000000e+000
    outer loop
      vertex -1.231752e+001 -4.156768e+000  1.600000e+001
      vertex -1.231752e+001 -4.156768e+000  2.900000e+001
      vertex -1.299638e+001  3.067556e-001  1.600000e+001
    endloop
  endfacet
  facet normal -9.886310e-001 -1.503616e-001  0.000000e+000
    outer loop
      vertex -1.299638e+001  3.067556e-001  1.600000e+001
      vertex -1.231752e+001 -4.156768e+000  2.900000e+001
      vertex -1.299638e+001  3.067556e-001  2.900000e+001
    endloop
  endfacet
  facet normal -9.804361e-001  1.968378e-001  0.000000e+000
    outer loop
      vertex -1.299638e+001  3.067556e-001  1.600000e+001
      vertex -1.299638e+001  3.067556e-001  2.900000e+001
      vertex -1.210769e+001  4.733280e+000  1.600000e+001
    endloop
  endfacet
  facet normal -9.804361e-001  1.968378e-001  0.000000e+000
    outer loop
      vertex -1.210769e+001  4.733280e+000  1.600000e+001
      vertex -1.299638e+001  3.067556e-001  2.900000e+001
      vertex -1.210769e+001  4.733280e+000  2.900000e+001
    endloop
  endfacet
  facet normal -8.539860e-001  5.202961e-001  0.000000e+000
    outer loop
      vertex -1.210769e+001  4.733280e+000  1.600000e+001
      vertex -1.210769e+001  4.733280e+000  2.900000e+001
      vertex -9.758626e+000  8.588901e+000  1.600000e+001
    endloop
  endfacet
  facet normal -8.539860e-001  5.202961e-001  0.000000e+000
    outer loop
      vertex -9.758626e+000  8.588901e+000  1.600000e+001
      vertex -1.210769e+001  4.733280e+000  2.900000e+001
      vertex -9.758626e+000  8.588901e+000  2.900000e+001
    endloop
  endfacet
  facet normal -6.245326e-001  7.809987e-001  0.000000e+000
    outer loop
      vertex -9.758626e+000  8.588901e+000  1.600000e+001
      vertex -9.758626e+000  8.588901e+000  2.900000e+001
      vertex -6.232532e+000  1.140857e+001  1.600000e+001
    endloop
  endfacet
  facet normal -6.245326e-001  7.809987e-001  0.000000e+000
    outer loop
      vertex -6.232532e+000  1.140857e+001  1.600000e+001
      vertex -9.758626e+000  8.588901e+000  2.900000e+001
      vertex -6.232532e+000  1.140857e+001  2.900000e+001
    endloop
  endfacet
  facet normal -3.197514e-001  9.475015e-001  0.000000e+000
    outer loop
      vertex -6.232532e+000  1.140857e+001  1.600000e+001
      vertex -6.232532e+000  1.140857e+001  2.900000e+001
      vertex -1.954702e+000  1.285220e+001  1.600000e+001
    endloop
  endfacet
  facet normal -3.197514e-001  9.475015e-001  0.000000e+000
    outer loop
      vertex -1.954702e+000  1.285220e+001  1.600000e+001
      vertex -6.232532e+000  1.140857e+001  2.900000e+001
      vertex -1.954702e+000  1.285220e+001  2.900000e+001
    endloop
  endfacet
  facet normal  2.359655e-002  9.997215e-001  0.000000e+000
    outer loop
      vertex -1.954702e+000  1.285220e+001  1.600000e+001
      vertex -1.954702e+000  1.285220e+001  2.900000e+001
      vertex  2.558893e+000  1.274567e+001  1.600000e+001
    endloop
  endfacet
  facet normal  2.359655e-002  9.997215e-001  -0.000000e+000
    outer loop
      vertex  2.558893e+000  1.274567e+001  1.600000e+001
      vertex -1.954702e+000  1.285220e+001  2.900000e+001
      vertex  2.558893e+000  1.274567e+001  2.900000e+001
    endloop
  endfacet
  facet normal  3.640983e-001  9.313605e-001  0.000000e+000
    outer loop
      vertex  2.558893e+000  1.274567e+001  1.600000e+001
      vertex  2.558893e+000  1.274567e+001  2.900000e+001
      vertex  6.763848e+000  1.110182e+001  1.600000e+001
    endloop
  endfacet
  facet normal  3.640983e-001  9.313605e-001  -0.000000e+000
    outer loop
      vertex  6.763848e+000  1.110182e+001  1.600000e+001
      vertex  2.558893e+000  1.274567e+001  2.900000e+001
      vertex  6.763848e+000  1.110182e+001  2.900000e+001
    endloop
  endfacet
  facet normal  6.606846e-001  7.506635e-001  0.000000e+000
    outer loop
      vertex  6.763848e+000  1.110182e+001  1.600000e+001
      vertex  6.763848e+000  1.110182e+001  2.900000e+001
      vertex  1.015298e+001  8.118924e+000  1.600000e+001
    endloop
  endfacet
  facet normal  6.606846e-001  7.506635e-001  -0.000000e+000
    outer loop
      vertex  1.015298e+001  8.118924e+000  1.600000e+001
      vertex  6.763848e+000  1.110182e+001  2.900000e+001
      vertex  1.015298e+001  8.118924e+000  2.900000e+001
    endloop
  endfacet
  facet normal  8.775826e-001  4.794255e-001  0.000000e+000
    outer loop
      vertex  1.015298e+001  8.118924e+000  1.600000e+001
      vertex  1.015298e+001  8.118924e+000  2.900000e+001
      vertex  1.231752e+001  4.156768e+000  1.600000e+001
    endloop
  endfacet
  facet normal  8.775826e-001  4.794255e-001  -0.000000e+000
    outer loop
      vertex  1.231752e+001  4.156768e+000  1.600000e+001
      vertex  1.015298e+001  8.118924e+000  2.900000e+001
      vertex  1.231752e+001  4.156768e+000  2.900000e+001
    endloop
  endfacet
  facet normal  9.886310e-001  1.503616e-001  0.000000e+000
    outer loop
      vertex  1.231752e+001  4.156768e+000  1.600000e+001
      vertex  1.231752e+001  4.156768e+000  2.900000e+001
      vertex  1.299638e+001 -3.067556e-001  1.600000e+001
    endloop
  endfacet
  facet normal  9.886310e-001  1.503616e-001  -0.000000e+000
    outer loop
      vertex  1.299638e+001 -3.067556e-001  1.600000e+001
      vertex  1.231752e+001  4.156768e+000  2.900000e+001
      vertex  1.299638e+001 -3.067556e-001  2.900000e+001
    endloop
  endfacet
  facet normal  9.804361e-001 -1.968378e-001  0.000000e+000
    outer loop
      vertex  1.299638e+001 -3.067556e-001  1.600000e+001
      vertex  1.299638e+001 -3.067556e-001  2.900000e+001
      vertex  1.210769e+001 -4.733280e+000  1.600000e+001
    endloop
  endfacet
  facet normal  9.804361e-001 -1.968378e-001  0.000000e+000
    outer loop
      vertex  1.210769e+001 -4.733280e+000  1.600000e+001
      vertex  1.299638e+001 -3.067556e-001  2.900000e+001
      vertex  1.210769e+001 -4.733280e+000  2.900000e+001
    endloop
  endfacet
  facet normal  8.539860e-001 -5.202961e-001  0.000000e+000
    outer loop
      vertex  1.210769e+001 -4.733280e+000  1.600000e+001
      vertex  1.210769e+001 -4.733280e+000  2.900000e+001
      vertex  9.758626e+000 -8.588901e+000  1.600000e+001
    endloop
  endfacet
  facet normal  8.539860e-001 -5.202961e-001  0.000000e+000
    outer loop
      vertex  9.758626e+000 -8.588901e+000  1.600000e+001
      vertex  1.210769e+001 -4.733280e+000  2.900000e+001
      vertex  9.758626e+000 -8.588901e+000  2.900000e+001
    endloop
  endfacet
  facet normal  6.245326e-001 -7.809987e-001  0.000000e+000
    outer loop
      vertex  9.758626e+000 -8.588901e+000  1.600000e+001
      vertex  9.758626e+000 -8.588901e+000  2.900000e+001
      vertex  6.232532e+000 -1.140857e+001  1.600000e+001
    endloop
  endfacet
  facet normal  6.245326e-001 -7.809987e-001  0.000000e+000
    outer loop
      vertex  6.232532e+000 -1.140857e+001  1.600000e+001
      vertex  9.758626e+000 -8.588901e+000  2.900000e+001
      vertex  6.232532e+000 -1.140857e+001  2.900000e+001
    endloop
  endfacet
  facet normal  2.721249e-001 -9.622619e-001  0.000000e+000
    outer loop
      vertex  3.355979e+000 -6.143078e+000  2.900000e+001
      vertex  3.355979e+000 -6.143078e+000  3.200000e+001
      vertex  3.582508e-001 -6.990827e+000  2.900000e+001
    endloop
  endfacet
  facet normal  2.721249e-001 -9.622619e-001  0.000000e+000
    outer loop
      vertex  3.582508e-001 -6.990827e+000  2.900000e+001
      vertex  3.355979e+000 -6.143078e+000  3.200000e+001
      vertex  3.582508e-001 -6.990827e+000  3.200000e+001
    endloop
  endfacet
  facet normal -1.723338e-001 -9.850386e-001  -0.000000e+000
    outer loop
      vertex  3.582508e-001 -6.990827e+000  2.900000e+001
      vertex  3.582508e-001 -6.990827e+000  3.200000e+001
      vertex -2.710433e+000 -6.453956e+000  2.900000e+001
    endloop
  endfacet
  facet normal -1.723338e-001 -9.850386e-001  0.000000e+000
    outer loop
      vertex -2.710433e+000 -6.453956e+000  2.900000e+001
      vertex  3.582508e-001 -6.990827e+000  3.200000e+001
      vertex -2.710433e+000 -6.453956e+000  3.200000e+001
    endloop
  endfacet
  facet normal -5.826597e-001 -8.127162e-001  -0.000000e+000
    outer loop
      vertex -2.710433e+000 -6.453956e+000  2.900000e+001
      vertex -2.710433e+000 -6.453956e+000  3.200000e+001
      vertex -5.242282e+000 -4.638801e+000  2.900000e+001
    endloop
  endfacet
  facet normal -5.826597e-001 -8.127162e-001  0.000000e+000
    outer loop
      vertex -5.242282e+000 -4.638801e+000  2.900000e+001
      vertex -2.710433e+000 -6.453956e+000  3.200000e+001
      vertex -5.242282e+000 -4.638801e+000  3.200000e+001
    endloop
  endfacet
  facet normal -8.775825e-001 -4.794256e-001  -0.000000e+000
    outer loop
      vertex -5.242282e+000 -4.638801e+000  2.900000e+001
      vertex -5.242282e+000 -4.638801e+000  3.200000e+001
      vertex -6.735834e+000 -1.904874e+000  2.900000e+001
    endloop
  endfacet
  facet normal -8.775825e-001 -4.794256e-001  0.000000e+000
    outer loop
      vertex -6.735834e+000 -1.904874e+000  2.900000e+001
      vertex -5.242282e+000 -4.638801e+000  3.200000e+001
      vertex -6.735834e+000 -1.904874e+000  3.200000e+001
    endloop
  endfacet
  facet normal -9.986895e-001 -5.117872e-002  -0.000000e+000
    outer loop
      vertex -6.735834e+000 -1.904874e+000  2.900000e+001
      vertex -6.735834e+000 -1.904874e+000  3.200000e+001
      vertex -6.895270e+000  1.206337e+000  2.900000e+001
    endloop
  endfacet
  facet normal -9.986895e-001 -5.117872e-002  0.000000e+000
    outer loop
      vertex -6.895270e+000  1.206337e+000  2.900000e+001
      vertex -6.735834e+000 -1.904874e+000  3.200000e+001
      vertex -6.895270e+000  1.206337e+000  3.200000e+001
    endloop
  endfacet
  facet normal -9.219937e-001  3.872047e-001  0.000000e+000
    outer loop
      vertex -6.895270e+000  1.206337e+000  2.900000e+001
      vertex -6.895270e+000  1.206337e+000  3.200000e+001
      vertex -5.689014e+000  4.078618e+000  2.900000e+001
    endloop
  endfacet
  facet normal -9.219937e-001  3.872047e-001  0.000000e+000
    outer loop
      vertex -5.689014e+000  4.078618e+000  2.900000e+001
      vertex -6.895270e+000  1.206337e+000  3.200000e+001
      vertex -5.689014e+000  4.078618e+000  3.200000e+001
    endloop
  endfacet
  facet normal -6.626858e-001  7.488975e-001  0.000000e+000
    outer loop
      vertex -5.689014e+000  4.078618e+000  2.900000e+001
      vertex -5.689014e+000  4.078618e+000  3.200000e+001
      vertex -3.355979e+000  6.143078e+000  2.900000e+001
    endloop
  endfacet
  facet normal -6.626858e-001  7.488975e-001  0.000000e+000
    outer loop
      vertex -3.355979e+000  6.143078e+000  2.900000e+001
      vertex -5.689014e+000  4.078618e+000  3.200000e+001
      vertex -3.355979e+000  6.143078e+000  3.200000e+001
    endloop
  endfacet
  facet normal -2.721249e-001  9.622619e-001  0.000000e+000
    outer loop
      vertex -3.355979e+000  6.143078e+000  2.900000e+001
      vertex -3.355979e+000  6.143078e+000  3.200000e+001
      vertex -3.582508e-001  6.990827e+000  2.900000e+001
    endloop
  endfacet
  facet normal -2.721249e-001  9.622619e-001  0.000000e+000
    outer loop
      vertex -3.582508e-001  6.990827e+000  2.900000e+001
      vertex -3.355979e+000  6.143078e+000  3.200000e+001
      vertex -3.582508e-001  6.990827e+000  3.200000e+001
    endloop
  endfacet
  facet normal  1.723338e-001  9.850386e-001  0.000000e+000
    outer loop
      vertex -3.582508e-001  6.990827e+000  2.900000e+001
      vertex -3.582508e-001  6.990827e+000  3.200000e+001
      vertex  2.710433e+000  6.453956e+000  2.900000e+001
    endloop
  endfacet
  facet normal  1.723338e-001  9.850386e-001  -0.000000e+000
    outer loop
      vertex  2.710433e+000  6.453956e+000  2.900000e+001
      vertex -3.582508e-001  6.990827e+000  3.200000e+001
      vertex  2.710433e+000  6.453956e+000  3.200000e+001
    endloop
  endfacet
  facet normal  5.826597e-001  8.127162e-001  0.000000e+000
    outer loop
      vertex  2.710433e+000  6.453956e+000  2.900000e+001
      vertex  2.710433e+000  6.453956e+000  3.200000e+001
      vertex  5.242282e+000  4.638801e+000  2.900000e+001
    endloop
  endfacet
  facet normal  5.826597e-001  8.127162e-001  -0.000000e+000
    outer loop
      vertex  5.242282e+000  4.638801e+000  2.900000e+001
      vertex  2.710433e+000  6.453956e+000  3.200000e+001
      vertex  5.242282e+000  4.638801e+000  3.200000e+001
    endloop
  endfacet
  facet normal  8.775825e-001  4.794256e-001  0.000000e+000
    outer loop
      vertex  5.242282e+000  4.638801e+000  2.900000e+001
      vertex  5.242282e+000  4.638801e+000  3.200000e+001
      vertex  6.735834e+000  1.904874e+000  2.900000e+001
    endloop
  endfacet
  facet normal  8.775825e-001  4.794256e-001  -0.000000e+000
    outer loop
      vertex  6.735834e+000  1.904874e+000  2.900000e+001
      vertex  5.242282e+000  4.638801e+000  3.200000e+001
      vertex  6.735834e+000  1.904874e+000  3.200000e+001
    endloop
  endfacet
  facet normal  9.986895e-001  5.117872e-002  0.000000e+000
    outer loop
      vertex  6.735834e+000  1.904874e+000  2.900000e+001
      vertex  6.735834e+000  1.904874e+000  3.200000e+001
      vertex  6.895270e+000 -1.206337e+000  2.900000e+001
    endloop
  endfacet
  facet normal  9.986895e-001  5.117872e-002  -0.000000e+000
    outer loop
      vertex  6.895270e+000 -1.206337e+000  2.900000e+001
      vertex  6.735834e+000  1.904874e+000  3.200000e+001
      vertex  6.895270e+000 -1.206337e+000  3.200000e+001
    endloop
  endfacet
  facet normal  9.219937e-001 -3.872047e-001  0.000000e+000
    outer loop
      vertex  6.895270e+000 -1.206337e+000  2.900000e+001
      vertex  6.895270e+000 -1.206337e+000  3.200000e+001
      vertex  5.689014e+000 -4.078618e+000  2.900000e+001
    endloop
  endfacet
  facet normal  9.219937e-001 -3.872047e-001  0.000000e+000
    outer loop
      vertex  5.689014e+000 -4.078618e+000  2.900000e+001
      vertex  6.895270e+000 -1.206337e+000  3.200000e+001
      vertex  5.689014e+000 -4.078618e+000  3.200000e+001
    endloop
  endfacet
  facet normal  6.626858e-001 -7.488975e-001  0.000000e+000
    outer loop
      vertex  5.689014e+000 -4.078618e+000  2.900000e+001
      vertex  5.689014e+000 -4.078618e+000  3.200000e+001
      vertex  3.355979e+000 -6.143078e+000  2.900000e+001
    endloop
  endfacet
  facet normal  6.626858e-001 -7.488975e-001  0.000000e+000
    outer loop
      vertex  3.355979e+000 -6.143078e+000  2.900000e+001
      vertex  5.689014e+000 -4.078618e+000  3.200000e+001
      vertex  3.355979e+000 -6.143078e+000  3.200000e+001
    endloop
  endfacet
  facet normal  2.359543e-001 -9.717641e-001  0.000000e+000
    outer loop
      vertex  2.445070e+000 -4.475671e+000  3.200000e+001
      vertex  2.445070e+000 -4.475671e+000  4.000000e+001
      vertex -1.203426e-001 -5.098580e+000  3.200000e+001
    endloop
  endfacet
  facet normal  2.359543e-001 -9.717641e-001  0.000000e+000
    outer loop
      vertex -1.203426e-001 -5.098580e+000  3.200000e+001
      vertex  2.445070e+000 -4.475671e+000  4.000000e+001
      vertex -1.203426e-001 -5.098580e+000  4.000000e+001
    endloop
  endfacet
  facet normal -2.815395e-001 -9.595497e-001  -0.000000e+000
    outer loop
      vertex -1.203426e-001 -5.098580e+000  3.200000e+001
      vertex -1.203426e-001 -5.098580e+000  4.000000e+001
      vertex -2.653510e+000 -4.355329e+000  3.200000e+001
    endloop
  endfacet
  facet normal -2.815395e-001 -9.595497e-001  0.000000e+000
    outer loop
      vertex -2.653510e+000 -4.355329e+000  3.200000e+001
      vertex -1.203426e-001 -5.098580e+000  4.000000e+001
      vertex -2.653510e+000 -4.355329e+000  4.000000e+001
    endloop
  endfacet
  facet normal -7.235951e-001 -6.902246e-001  -0.000000e+000
    outer loop
      vertex -2.653510e+000 -4.355329e+000  3.200000e+001
      vertex -2.653510e+000 -4.355329e+000  4.000000e+001
      vertex -4.475671e+000 -2.445070e+000  3.200000e+001
    endloop
  endfacet
  facet normal -7.235951e-001 -6.902246e-001  0.000000e+000
    outer loop
      vertex -4.475671e+000 -2.445070e+000  3.200000e+001
      vertex -2.653510e+000 -4.355329e+000  4.000000e+001
      vertex -4.475671e+000 -2.445070e+000  4.000000e+001
    endloop
  endfacet
  facet normal -9.717641e-001 -2.359543e-001  -0.000000e+000
    outer loop
      vertex -4.475671e+000 -2.445070e+000  3.200000e+001
      vertex -4.475671e+000 -2.445070e+000  4.000000e+001
      vertex -5.098580e+000  1.203426e-001  3.200000e+001
    endloop
  endfacet
  facet normal -9.717641e-001 -2.359543e-001  0.000000e+000
    outer loop
      vertex -5.098580e+000  1.203426e-001  3.200000e+001
      vertex -4.475671e+000 -2.445070e+000  4.000000e+001
      vertex -5.098580e+000  1.203426e-001  4.000000e+001
    endloop
  endfacet
  facet normal -9.595497e-001  2.815395e-001  0.000000e+000
    outer loop
      vertex -5.098580e+000  1.203426e-001  3.200000e+001
      vertex -5.098580e+000  1.203426e-001  4.000000e+001
      vertex -4.355329e+000  2.653510e+000  3.200000e+001
    endloop
  endfacet
  facet normal -9.595497e-001  2.815395e-001  0.000000e+000
    outer loop
      vertex -4.355329e+000  2.653510e+000  3.200000e+001
      vertex -5.098580e+000  1.203426e-001  4.000000e+001
      vertex -4.355329e+000  2.653510e+000  4.000000e+001
    endloop
  endfacet
  facet normal -6.902246e-001  7.235951e-001  0.000000e+000
    outer loop
      vertex -4.355329e+000  2.653510e+000  3.200000e+001
      vertex -4.355329e+000  2.653510e+000  4.000000e+001
      vertex -2.445070e+000  4.475671e+000  3.200000e+001
    endloop
  endfacet
  facet normal -6.902246e-001  7.235951e-001  0.000000e+000
    outer loop
      vertex -2.445070e+000  4.475671e+000  3.200000e+001
      vertex -4.355329e+000  2.653510e+000  4.000000e+001
      vertex -2.445070e+000  4.475671e+000  4.000000e+001
    endloop
  endfacet
  facet normal -2.359543e-001  9.717641e-001  0.000000e+000
    outer loop
      vertex -2.445070e+000  4.475671e+000  3.200000e+001
      vertex -2.445070e+000  4.475671e+000  4.000000e+001
      vertex  1.203426e-001  5.098580e+000  3.200000e+001
    endloop
  endfacet
  facet normal -2.359543e-001  9.717641e-001  0.000000e+000
    outer loop
      vertex  1.203426e-001  5.098580e+000  3.200000e+001
      vertex -2.445070e+000  4.475671e+000  4.000000e+001
      vertex  1.203426e-001  5.098580e+000  4.000000e+001
    endloop
  endfacet
  facet normal  2.815395e-001  9.595497e-001  0.000000e+000
    outer loop
      vertex  1.203426e-001  5.098580e+000  3.200000e+001
      vertex  1.203426e-001  5.098580e+000  4.000000e+001
      vertex  2.653510e+000  4.355329e+000  3.200000e+001
    endloop
  endfacet
  facet normal  2.815395e-001  9.595497e-001  -0.000000e+000
    outer loop
      vertex  2.653510e+000  4.355329e+000  3.200000e+001
      vertex  1.203426e-001  5.098580e+000  4.000000e+001
      vertex  2.653510e+000  4.355329e+000  4.000000e+001
    endloop
  endfacet
  facet normal  7.235951e-001  6.902246e-001  0.000000e+000
    outer loop
      vertex  2.653510e+000  4.355329e+000  3.200000e+001
      vertex  2.653510e+000  4.355329e+000  4.000000e+001
      vertex  4.475671e+000  2.445070e+000  3.200000e+001
    endloop
  endfacet
  facet normal  7.235951e-001  6.902246e-001  -0.000000e+000
    outer loop
      vertex  4.475671e+000  2.445070e+000  3.200000e+001
      vertex  2.653510e+000  4.355329e+000  4.000000e+001
      vertex  4.475671e+000  2.445070e+000  4.000000e+001
    endloop
  endfacet
  facet normal  9.717641e-001  2.359543e-001  0.000000e+000
    outer loop
      vertex  4.475671e+000  2.445070e+000  3.200000e+001
      vertex  4.475671e+000  2.445070e+000  4.000000e+001
      vertex  5.098580e+000 -1.203426e-001  3.200000e+001
    endloop
  endfacet
  facet normal  9.717641e-001  2.359543e-001  -0.000000e+000
    outer loop
      vertex  5.098580e+000 -1.203426e-001  3.200000e+001
      vertex  4.475671e+000  2.445070e+000  4.000000e+001
      vertex  5.098580e+000 -1.203426e-001  4.000000e+001
    endloop
  endfacet
  facet normal  9.595497e-001 -2.815395e-001  0.000000e+000
    outer loop
      vertex  5.098580e+000 -1.203426e-001  3.200000e+001
      vertex  5.098580e+000 -1.203426e-001  4.000000e+001
      vertex  4.355329e+000 -2.653510e+000  3.200000e+001
    endloop
  endfacet
  facet normal  9.595497e-001 -2.815395e-001  0.000000e+000
    outer loop
      vertex  4.355329e+000 -2.653510e+000  3.200000e+001
      vertex  5.098580e+000 -1.203426e-001  4.000000e+001
      vertex  4.355329e+000 -2.653510e+000  4.000000e+001
    endloop
  endfacet
  facet normal  6.902246e-001 -7.235951e-001  0.000000e+000
    outer loop
      vertex  4.355329e+000 -2.653510e+000  3.200000e+001
      vertex  4.355329e+000 -2.653510e+000  4.000000e+001
      vertex  2.445070e+000 -4.475671e+000  3.200000e+001
    endloop
  endfacet
  facet normal  6.902246e-001 -7.235951e-001  0.000000e+000
    outer loop
      vertex  2.445070e+000 -4.475671e+000  3.200000e+001
      vertex  4.355329e+000 -2.653510e+000  4.000000e+001
      vertex  2.445070e+000 -4.475671e+000  4.000000e+001
    endloop
  endfacet
  facet normal  4.281799e-001  9.036935e-001  0.000000e+000
    outer loop
      vertex -2.059440e+000 -2.181446e+000  3.200000e+001
      vertex -3.839000e-001 -2.975335e+000  4.000000e+001
      vertex -3.839000e-001 -2.975335e+000  3.200000e+001
    endloop
  endfacet
  facet normal -1.847728e-001  9.827813e-001  0.000000e+000
    outer loop
      vertex -3.839000e-001 -2.975335e+000  3.200000e+001
      vertex -3.839000e-001 -2.975335e+000  4.000000e+001
      vertex  1.438277e+000 -2.632748e+000  4.000000e+001
    endloop
  endfacet
  facet normal -1.847728e-001  9.827813e-001  0.000000e+000
    outer loop
      vertex -3.839000e-001 -2.975335e+000  3.200000e+001
      vertex  1.438277e+000 -2.632748e+000  4.000000e+001
      vertex  1.438277e+000 -2.632748e+000  3.200000e+001
    endloop
  endfacet
  facet normal  4.281799e-001  9.036935e-001  -0.000000e+000
    outer loop
      vertex -3.839000e-001 -2.975335e+000  4.000000e+001
      vertex -2.059440e+000 -2.181446e+000  3.200000e+001
      vertex -2.059440e+000 -2.181446e+000  4.000000e+001
    endloop
  endfacet
  facet normal  8.775826e-001  4.794255e-001  0.000000e+000
    outer loop
      vertex -2.059440e+000 -2.181446e+000  4.000000e+001
      vertex -2.059440e+000 -2.181446e+000  3.200000e+001
      vertex -2.948344e+000 -5.543185e-001  3.200000e+001
    endloop
  endfacet
  facet normal  8.775826e-001  4.794255e-001  -0.000000e+000
    outer loop
      vertex -2.059440e+000 -2.181446e+000  4.000000e+001
      vertex -2.948344e+000 -5.543185e-001  3.200000e+001
      vertex -2.948344e+000 -5.543185e-001  4.000000e+001
    endloop
  endfacet
  facet normal  9.917784e-001 -1.279666e-001  0.000000e+000
    outer loop
      vertex -2.948344e+000 -5.543185e-001  4.000000e+001
      vertex -2.948344e+000 -5.543185e-001  3.200000e+001
      vertex -2.711081e+000  1.284540e+000  3.200000e+001
    endloop
  endfacet
  facet normal  9.917784e-001 -1.279666e-001  0.000000e+000
    outer loop
      vertex -2.948344e+000 -5.543185e-001  4.000000e+001
      vertex -2.711081e+000  1.284540e+000  3.200000e+001
      vertex -2.711081e+000  1.284540e+000  4.000000e+001
    endloop
  endfacet
  facet normal  7.271487e-001 -6.864800e-001  0.000000e+000
    outer loop
      vertex -2.711081e+000  1.284540e+000  4.000000e+001
      vertex -2.711081e+000  1.284540e+000  3.200000e+001
      vertex -1.438277e+000  2.632748e+000  3.200000e+001
    endloop
  endfacet
  facet normal  7.271487e-001 -6.864800e-001  0.000000e+000
    outer loop
      vertex -2.711081e+000  1.284540e+000  4.000000e+001
      vertex -1.438277e+000  2.632748e+000  3.200000e+001
      vertex -1.438277e+000  2.632748e+000  4.000000e+001
    endloop
  endfacet
  facet normal -4.281799e-001 -9.036935e-001  -0.000000e+000
    outer loop
      vertex  2.059440e+000  2.181446e+000  3.200000e+001
      vertex  3.839000e-001  2.975335e+000  4.000000e+001
      vertex  3.839000e-001  2.975335e+000  3.200000e+001
    endloop
  endfacet
  facet normal  1.847728e-001 -9.827813e-001  0.000000e+000
    outer loop
      vertex  3.839000e-001  2.975335e+000  3.200000e+001
      vertex  3.839000e-001  2.975335e+000  4.000000e+001
      vertex -1.438277e+000  2.632748e+000  4.000000e+001
    endloop
  endfacet
  facet normal  1.847728e-001 -9.827813e-001  0.000000e+000
    outer loop
      vertex  3.839000e-001  2.975335e+000  3.200000e+001
      vertex -1.438277e+000  2.632748e+000  4.000000e+001
      vertex -1.438277e+000  2.632748e+000  3.200000e+001
    endloop
  endfacet
  facet normal -4.281799e-001 -9.036935e-001  0.000000e+000
    outer loop
      vertex  3.839000e-001  2.975335e+000  4.000000e+001
      vertex  2.059440e+000  2.181446e+000  3.200000e+001
      vertex  2.059440e+000  2.181446e+000  4.000000e+001
    endloop
  endfacet
  facet normal -8.775826e-001 -4.794255e-001  -0.000000e+000
    outer loop
      vertex  2.059440e+000  2.181446e+000  4.000000e+001
      vertex  2.059440e+000  2.181446e+000  3.200000e+001
      vertex  2.948344e+000  5.543185e-001  3.200000e+001
    endloop
  endfacet
  facet normal -8.775826e-001 -4.794255e-001  0.000000e+000
    outer loop
      vertex  2.059440e+000  2.181446e+000  4.000000e+001
      vertex  2.948344e+000  5.543185e-001  3.200000e+001
      vertex  2.948344e+000  5.543185e-001  4.000000e+001
    endloop
  endfacet
  facet normal -9.917784e-001  1.279666e-001  0.000000e+000
    outer loop
      vertex  2.948344e+000  5.543185e-001  4.000000e+001
      vertex  2.948344e+000  5.543185e-001  3.200000e+001
      vertex  2.711081e+000 -1.284540e+000  3.200000e+001
    endloop
  endfacet
  facet normal -9.917784e-001  1.279666e-001  0.000000e+000
    outer loop
      vertex  2.948344e+000  5.543185e-001  4.000000e+001
      vertex  2.711081e+000 -1.284540e+000  3.200000e+001
      vertex  2.711081e+000 -1.284540e+000  4.000000e+001
    endloop
  endfacet
  facet normal -7.271487e-001  6.864800e-001  0.000000e+000
    outer loop
      vertex  2.711081e+000 -1.284540e+000  4.000000e+001
      vertex  2.711081e+000 -1.284540e+000  3.200000e+001
      vertex  1.438277e+000 -2.632748e+000  3.200000e+001
    endloop
  endfacet
  facet normal -7.271487e-001  6.864800e-001  0.000000e+000
    outer loop
      vertex  2.711081e+000 -1.284540e+000  4.000000e+001
      vertex  1.438277e+000 -2.632748e+000  3.200000e+001
      vertex  1.438277e+000 -2.632748e+000  4.000000e+001
    endloop
  endfacet
endsolid CATIA STL
