solid CATIA STL
  facet normal  0.000000e+000  0.000000e+000  1.000000e+000
    outer loop
      vertex  3.905543e+001  2.956376e+000  3.000000e+000
      vertex  3.795638e+001  9.044457e+001  3.000000e+000
      vertex  3.827715e+001  3.922561e+000  3.000000e+000
    endloop
  endfacet
  facet normal  0.000000e+000  0.000000e+000  1.000000e+000
    outer loop
      vertex  0.000000e+000  0.000000e+000  3.000000e+000
      vertex  4.000000e+001  0.000000e+000  3.000000e+000
      vertex  3.795638e+001  9.445701e-001  3.000000e+000
    endloop
  endfacet
  facet normal  0.000000e+000  0.000000e+000  1.000000e+000
    outer loop
      vertex  0.000000e+000  0.000000e+000  3.000000e+000
      vertex  3.795638e+001  9.445701e-001  3.000000e+000
      vertex  3.672285e+001  1.077439e+000  3.000000e+000
    endloop
  endfacet
  facet normal  0.000000e+000  0.000000e+000  1.000000e+000
    outer loop
      vertex  0.000000e+000  0.000000e+000  3.000000e+000
      vertex  3.672285e+001  1.077439e+000  3.000000e+000
      vertex  2.956376e+000  9.445701e-001  3.000000e+000
    endloop
  endfacet
  facet normal  0.000000e+000  0.000000e+000  9.999999e-001
    outer loop
      vertex  0.000000e+000  0.000000e+000  3.000000e+000
      vertex  2.956376e+000  9.445701e-001  3.000000e+000
      vertex  1.722851e+000  1.077439e+000  3.000000e+000
    endloop
  endfacet
  facet normal  0.000000e+000  0.000000e+000  1.000000e+000
    outer loop
      vertex  0.000000e+000  0.000000e+000  3.000000e+000
      vertex  1.722851e+000  1.077439e+000  3.000000e+000
      vertex  9.445701e-001  2.043624e+000  3.000000e+000
    endloop
  endfacet
  facet normal  0.000000e+000  -0.000000e+000  1.000000e+000
    outer loop
      vertex  0.000000e+000  0.000000e+000  3.000000e+000
      vertex  9.445701e-001  2.043624e+000  3.000000e+000
      vertex  1.077439e+000  3.277149e+000  3.000000e+000
    endloop
  endfacet
  facet normal  0.000000e+000  -0.000000e+000  1.000000e+000
    outer loop
      vertex  0.000000e+000  0.000000e+000  3.000000e+000
      vertex  1.077439e+000  3.277149e+000  3.000000e+000
      vertex  1.722851e+000  9.057744e+001  3.000000e+000
    endloop
  endfacet
  facet normal  0.000000e+000  0.000000e+000  1.000000e+000
    outer loop
      vertex  0.000000e+000  0.000000e+000  3.000000e+000
      vertex  1.722851e+000  9.057744e+001  3.000000e+000
      vertex  9.445701e-001  9.154362e+001  3.000000e+000
    endloop
  endfacet
  facet normal  0.000000e+000  -0.000000e+000  1.000000e+000
    outer loop
      vertex  0.000000e+000  0.000000e+000  3.000000e+000
      vertex  9.445701e-001  9.154362e+001  3.000000e+000
      vertex  9.445701e-001  9.704362e+001  3.000000e+000
    endloop
  endfacet
  facet normal  0.000000e+000  0.000000e+000  1.000000e+000
    outer loop
      vertex  0.000000e+000  1.000000e+002  3.000000e+000
      vertex  0.000000e+000  0.000000e+000  3.000000e+000
      vertex  9.445701e-001  9.704362e+001  3.000000e+000
    endloop
  endfacet
  facet normal  0.000000e+000  -0.000000e+000  1.000000e+000
    outer loop
      vertex  0.000000e+000  1.000000e+002  3.000000e+000
      vertex  9.445701e-001  9.704362e+001  3.000000e+000
      vertex  1.077439e+000  9.827715e+001  3.000000e+000
    endloop
  endfacet
  facet normal  0.000000e+000  -0.000000e+000  1.000000e+000
    outer loop
      vertex  0.000000e+000  1.000000e+002  3.000000e+000
      vertex  1.077439e+000  9.827715e+001  3.000000e+000
      vertex  2.043624e+000  9.905543e+001  3.000000e+000
    endloop
  endfacet
  facet normal  -0.000000e+000  -0.000000e+000  1.000000e+000
    outer loop
      vertex  0.000000e+000  1.000000e+002  3.000000e+000
      vertex  2.043624e+000  9.905543e+001  3.000000e+000
      vertex  3.277149e+000  9.892256e+001  3.000000e+000
    endloop
  endfacet
  facet normal  -0.000000e+000  -0.000000e+000  1.000000e+000
    outer loop
      vertex  0.000000e+000  1.000000e+002  3.000000e+000
      vertex  3.277149e+000  9.892256e+001  3.000000e+000
      vertex  3.607744e+001  9.827715e+001  3.000000e+000
    endloop
  endfacet
  facet normal  0.000000e+000  -0.000000e+000  1.000000e+000
    outer loop
      vertex  0.000000e+000  1.000000e+002  3.000000e+000
      vertex  3.607744e+001  9.827715e+001  3.000000e+000
      vertex  3.704362e+001  9.905543e+001  3.000000e+000
    endloop
  endfacet
  facet normal  -0.000000e+000  0.000000e+000  1.000000e+000
    outer loop
      vertex  4.000000e+001  1.000000e+002  3.000000e+000
      vertex  0.000000e+000  1.000000e+002  3.000000e+000
      vertex  3.704362e+001  9.905543e+001  3.000000e+000
    endloop
  endfacet
  facet normal  -0.000000e+000  0.000000e+000  9.999999e-001
    outer loop
      vertex  4.000000e+001  1.000000e+002  3.000000e+000
      vertex  3.704362e+001  9.905543e+001  3.000000e+000
      vertex  3.827715e+001  9.892256e+001  3.000000e+000
    endloop
  endfacet
  facet normal  -0.000000e+000  0.000000e+000  1.000000e+000
    outer loop
      vertex  4.000000e+001  1.000000e+002  3.000000e+000
      vertex  3.827715e+001  9.892256e+001  3.000000e+000
      vertex  3.905543e+001  9.795638e+001  3.000000e+000
    endloop
  endfacet
  facet normal  -0.000000e+000  0.000000e+000  1.000000e+000
    outer loop
      vertex  4.000000e+001  1.000000e+002  3.000000e+000
      vertex  3.905543e+001  9.795638e+001  3.000000e+000
      vertex  3.905543e+001  9.245638e+001  3.000000e+000
    endloop
  endfacet
  facet normal  -0.000000e+000  0.000000e+000  1.000000e+000
    outer loop
      vertex  4.000000e+001  1.000000e+002  3.000000e+000
      vertex  3.905543e+001  9.245638e+001  3.000000e+000
      vertex  4.000000e+001  0.000000e+000  3.000000e+000
    endloop
  endfacet
  facet normal  0.000000e+000  0.000000e+000  9.999999e-001
    outer loop
      vertex  4.000000e+001  0.000000e+000  3.000000e+000
      vertex  3.905543e+001  9.245638e+001  3.000000e+000
      vertex  3.892256e+001  9.122285e+001  3.000000e+000
    endloop
  endfacet
  facet normal  0.000000e+000  0.000000e+000  1.000000e+000
    outer loop
      vertex  4.000000e+001  0.000000e+000  3.000000e+000
      vertex  3.892256e+001  9.122285e+001  3.000000e+000
      vertex  3.795638e+001  9.044457e+001  3.000000e+000
    endloop
  endfacet
  facet normal  0.000000e+000  0.000000e+000  1.000000e+000
    outer loop
      vertex  4.000000e+001  0.000000e+000  3.000000e+000
      vertex  3.795638e+001  9.044457e+001  3.000000e+000
      vertex  3.905543e+001  2.956376e+000  3.000000e+000
    endloop
  endfacet
  facet normal  0.000000e+000  0.000000e+000  9.999999e-001
    outer loop
      vertex  4.000000e+001  0.000000e+000  3.000000e+000
      vertex  3.905543e+001  2.956376e+000  3.000000e+000
      vertex  3.892256e+001  1.722851e+000  3.000000e+000
    endloop
  endfacet
  facet normal  0.000000e+000  0.000000e+000  1.000000e+000
    outer loop
      vertex  4.000000e+001  0.000000e+000  3.000000e+000
      vertex  3.892256e+001  1.722851e+000  3.000000e+000
      vertex  3.795638e+001  9.445701e-001  3.000000e+000
    endloop
  endfacet
  facet normal  0.000000e+000  0.000000e+000  9.999999e-001
    outer loop
      vertex  1.077439e+000  9.277715e+001  3.000000e+000
      vertex  2.043624e+000  9.355543e+001  3.000000e+000
      vertex  1.722851e+000  9.607744e+001  3.000000e+000
    endloop
  endfacet
  facet normal  0.000000e+000  0.000000e+000  1.000000e+000
    outer loop
      vertex  1.077439e+000  9.277715e+001  3.000000e+000
      vertex  1.722851e+000  9.607744e+001  3.000000e+000
      vertex  9.445701e-001  9.704362e+001  3.000000e+000
    endloop
  endfacet
  facet normal  0.000000e+000  0.000000e+000  1.000000e+000
    outer loop
      vertex  1.077439e+000  9.277715e+001  3.000000e+000
      vertex  9.445701e-001  9.704362e+001  3.000000e+000
      vertex  9.445701e-001  9.154362e+001  3.000000e+000
    endloop
  endfacet
  facet normal  0.000000e+000  0.000000e+000  1.000000e+000
    outer loop
      vertex  3.905543e+001  9.245638e+001  3.000000e+000
      vertex  3.905543e+001  9.795638e+001  3.000000e+000
      vertex  3.892256e+001  9.672285e+001  3.000000e+000
    endloop
  endfacet
  facet normal  0.000000e+000  0.000000e+000  1.000000e+000
    outer loop
      vertex  3.905543e+001  9.245638e+001  3.000000e+000
      vertex  3.892256e+001  9.672285e+001  3.000000e+000
      vertex  3.795638e+001  9.594457e+001  3.000000e+000
    endloop
  endfacet
  facet normal  0.000000e+000  0.000000e+000  1.000000e+000
    outer loop
      vertex  3.905543e+001  9.245638e+001  3.000000e+000
      vertex  3.795638e+001  9.594457e+001  3.000000e+000
      vertex  3.827715e+001  9.342256e+001  3.000000e+000
    endloop
  endfacet
  facet normal  0.000000e+000  0.000000e+000  1.000000e+000
    outer loop
      vertex  3.607744e+001  3.277149e+000  3.000000e+000
      vertex  3.704362e+001  4.055430e+000  3.000000e+000
      vertex  3.277149e+000  3.922561e+000  3.000000e+000
    endloop
  endfacet
  facet normal  0.000000e+000  -0.000000e+000  1.000000e+000
    outer loop
      vertex  3.277149e+000  3.922561e+000  3.000000e+000
      vertex  3.704362e+001  4.055430e+000  3.000000e+000
      vertex  2.956376e+000  9.044457e+001  3.000000e+000
    endloop
  endfacet
  facet normal  0.000000e+000  0.000000e+000  1.000000e+000
    outer loop
      vertex  3.277149e+000  3.922561e+000  3.000000e+000
      vertex  2.956376e+000  9.044457e+001  3.000000e+000
      vertex  2.043624e+000  4.055430e+000  3.000000e+000
    endloop
  endfacet
  facet normal  0.000000e+000  -0.000000e+000  1.000000e+000
    outer loop
      vertex  2.043624e+000  4.055430e+000  3.000000e+000
      vertex  2.956376e+000  9.044457e+001  3.000000e+000
      vertex  1.722851e+000  9.057744e+001  3.000000e+000
    endloop
  endfacet
  facet normal  0.000000e+000  0.000000e+000  1.000000e+000
    outer loop
      vertex  2.043624e+000  4.055430e+000  3.000000e+000
      vertex  1.722851e+000  9.057744e+001  3.000000e+000
      vertex  1.077439e+000  3.277149e+000  3.000000e+000
    endloop
  endfacet
  facet normal  0.000000e+000  0.000000e+000  9.999999e-001
    outer loop
      vertex  3.607744e+001  9.277715e+001  3.000000e+000
      vertex  3.704362e+001  9.355543e+001  3.000000e+000
      vertex  3.277149e+000  9.342256e+001  3.000000e+000
    endloop
  endfacet
  facet normal  0.000000e+000  -0.000000e+000  1.000000e+000
    outer loop
      vertex  3.277149e+000  9.342256e+001  3.000000e+000
      vertex  3.704362e+001  9.355543e+001  3.000000e+000
      vertex  2.956376e+000  9.594457e+001  3.000000e+000
    endloop
  endfacet
  facet normal  0.000000e+000  0.000000e+000  9.999999e-001
    outer loop
      vertex  3.277149e+000  9.342256e+001  3.000000e+000
      vertex  2.956376e+000  9.594457e+001  3.000000e+000
      vertex  2.043624e+000  9.355543e+001  3.000000e+000
    endloop
  endfacet
  facet normal  0.000000e+000  -0.000000e+000  1.000000e+000
    outer loop
      vertex  2.043624e+000  9.355543e+001  3.000000e+000
      vertex  2.956376e+000  9.594457e+001  3.000000e+000
      vertex  1.722851e+000  9.607744e+001  3.000000e+000
    endloop
  endfacet
  facet normal  0.000000e+000  0.000000e+000  1.000000e+000
    outer loop
      vertex  3.827715e+001  3.922561e+000  3.000000e+000
      vertex  3.795638e+001  9.044457e+001  3.000000e+000
      vertex  3.704362e+001  4.055430e+000  3.000000e+000
    endloop
  endfacet
  facet normal  0.000000e+000  -0.000000e+000  1.000000e+000
    outer loop
      vertex  3.704362e+001  4.055430e+000  3.000000e+000
      vertex  3.795638e+001  9.044457e+001  3.000000e+000
      vertex  3.672285e+001  9.057744e+001  3.000000e+000
    endloop
  endfacet
  facet normal  0.000000e+000  0.000000e+000  1.000000e+000
    outer loop
      vertex  3.704362e+001  4.055430e+000  3.000000e+000
      vertex  3.672285e+001  9.057744e+001  3.000000e+000
      vertex  2.956376e+000  9.044457e+001  3.000000e+000
    endloop
  endfacet
  facet normal  0.000000e+000  0.000000e+000  9.999999e-001
    outer loop
      vertex  3.827715e+001  9.342256e+001  3.000000e+000
      vertex  3.795638e+001  9.594457e+001  3.000000e+000
      vertex  3.704362e+001  9.355543e+001  3.000000e+000
    endloop
  endfacet
  facet normal  0.000000e+000  -0.000000e+000  9.999999e-001
    outer loop
      vertex  3.704362e+001  9.355543e+001  3.000000e+000
      vertex  3.795638e+001  9.594457e+001  3.000000e+000
      vertex  3.672285e+001  9.607744e+001  3.000000e+000
    endloop
  endfacet
  facet normal  0.000000e+000  0.000000e+000  1.000000e+000
    outer loop
      vertex  3.704362e+001  9.355543e+001  3.000000e+000
      vertex  3.672285e+001  9.607744e+001  3.000000e+000
      vertex  2.956376e+000  9.594457e+001  3.000000e+000
    endloop
  endfacet
  facet normal  0.000000e+000  0.000000e+000  9.999999e-001
    outer loop
      vertex  2.956376e+000  9.594457e+001  3.000000e+000
      vertex  3.672285e+001  9.607744e+001  3.000000e+000
      vertex  3.922561e+000  9.672285e+001  3.000000e+000
    endloop
  endfacet
  facet normal  -0.000000e+000  0.000000e+000  1.000000e+000
    outer loop
      vertex  3.922561e+000  9.672285e+001  3.000000e+000
      vertex  3.672285e+001  9.607744e+001  3.000000e+000
      vertex  3.594457e+001  9.704362e+001  3.000000e+000
    endloop
  endfacet
  facet normal  0.000000e+000  0.000000e+000  1.000000e+000
    outer loop
      vertex  3.922561e+000  9.672285e+001  3.000000e+000
      vertex  3.594457e+001  9.704362e+001  3.000000e+000
      vertex  4.055430e+000  9.795638e+001  3.000000e+000
    endloop
  endfacet
  facet normal  -0.000000e+000  0.000000e+000  1.000000e+000
    outer loop
      vertex  4.055430e+000  9.795638e+001  3.000000e+000
      vertex  3.594457e+001  9.704362e+001  3.000000e+000
      vertex  3.607744e+001  9.827715e+001  3.000000e+000
    endloop
  endfacet
  facet normal  0.000000e+000  0.000000e+000  1.000000e+000
    outer loop
      vertex  4.055430e+000  9.795638e+001  3.000000e+000
      vertex  3.607744e+001  9.827715e+001  3.000000e+000
      vertex  3.277149e+000  9.892256e+001  3.000000e+000
    endloop
  endfacet
  facet normal  0.000000e+000  0.000000e+000  9.999999e-001
    outer loop
      vertex  2.956376e+000  9.044457e+001  3.000000e+000
      vertex  3.672285e+001  9.057744e+001  3.000000e+000
      vertex  3.922561e+000  9.122285e+001  3.000000e+000
    endloop
  endfacet
  facet normal  -0.000000e+000  0.000000e+000  1.000000e+000
    outer loop
      vertex  3.922561e+000  9.122285e+001  3.000000e+000
      vertex  3.672285e+001  9.057744e+001  3.000000e+000
      vertex  3.594457e+001  9.154362e+001  3.000000e+000
    endloop
  endfacet
  facet normal  0.000000e+000  0.000000e+000  1.000000e+000
    outer loop
      vertex  3.922561e+000  9.122285e+001  3.000000e+000
      vertex  3.594457e+001  9.154362e+001  3.000000e+000
      vertex  4.055430e+000  9.245638e+001  3.000000e+000
    endloop
  endfacet
  facet normal  -0.000000e+000  0.000000e+000  1.000000e+000
    outer loop
      vertex  4.055430e+000  9.245638e+001  3.000000e+000
      vertex  3.594457e+001  9.154362e+001  3.000000e+000
      vertex  3.607744e+001  9.277715e+001  3.000000e+000
    endloop
  endfacet
  facet normal  0.000000e+000  0.000000e+000  1.000000e+000
    outer loop
      vertex  4.055430e+000  9.245638e+001  3.000000e+000
      vertex  3.607744e+001  9.277715e+001  3.000000e+000
      vertex  3.277149e+000  9.342256e+001  3.000000e+000
    endloop
  endfacet
  facet normal  0.000000e+000  0.000000e+000  9.999999e-001
    outer loop
      vertex  2.956376e+000  9.445701e-001  3.000000e+000
      vertex  3.672285e+001  1.077439e+000  3.000000e+000
      vertex  3.922561e+000  1.722851e+000  3.000000e+000
    endloop
  endfacet
  facet normal  -0.000000e+000  0.000000e+000  1.000000e+000
    outer loop
      vertex  3.922561e+000  1.722851e+000  3.000000e+000
      vertex  3.672285e+001  1.077439e+000  3.000000e+000
      vertex  3.594457e+001  2.043624e+000  3.000000e+000
    endloop
  endfacet
  facet normal  0.000000e+000  0.000000e+000  1.000000e+000
    outer loop
      vertex  3.922561e+000  1.722851e+000  3.000000e+000
      vertex  3.594457e+001  2.043624e+000  3.000000e+000
      vertex  4.055430e+000  2.956376e+000  3.000000e+000
    endloop
  endfacet
  facet normal  -0.000000e+000  0.000000e+000  1.000000e+000
    outer loop
      vertex  4.055430e+000  2.956376e+000  3.000000e+000
      vertex  3.594457e+001  2.043624e+000  3.000000e+000
      vertex  3.607744e+001  3.277149e+000  3.000000e+000
    endloop
  endfacet
  facet normal  0.000000e+000  0.000000e+000  1.000000e+000
    outer loop
      vertex  4.055430e+000  2.956376e+000  3.000000e+000
      vertex  3.607744e+001  3.277149e+000  3.000000e+000
      vertex  3.277149e+000  3.922561e+000  3.000000e+000
    endloop
  endfacet
  facet normal  0.000000e+000  0.000000e+000 -1.000000e+000
    outer loop
      vertex  3.827715e+001  3.922561e+000  0.000000e+000
      vertex  3.795638e+001  9.044457e+001  0.000000e+000
      vertex  3.905543e+001  2.956376e+000  0.000000e+000
    endloop
  endfacet
  facet normal  0.000000e+000  -0.000000e+000 -1.000000e+000
    outer loop
      vertex  0.000000e+000  0.000000e+000  0.000000e+000
      vertex  9.445701e-001  9.704362e+001  0.000000e+000
      vertex  9.445701e-001  9.154362e+001  0.000000e+000
    endloop
  endfacet
  facet normal  0.000000e+000  -0.000000e+000 -1.000000e+000
    outer loop
      vertex  0.000000e+000  0.000000e+000  0.000000e+000
      vertex  9.445701e-001  9.154362e+001  0.000000e+000
      vertex  1.722851e+000  9.057744e+001  0.000000e+000
    endloop
  endfacet
  facet normal  0.000000e+000  0.000000e+000 -1.000000e+000
    outer loop
      vertex  0.000000e+000  0.000000e+000  0.000000e+000
      vertex  1.722851e+000  9.057744e+001  0.000000e+000
      vertex  1.077439e+000  3.277149e+000  0.000000e+000
    endloop
  endfacet
  facet normal  0.000000e+000  0.000000e+000 -1.000000e+000
    outer loop
      vertex  0.000000e+000  0.000000e+000  0.000000e+000
      vertex  1.077439e+000  3.277149e+000  0.000000e+000
      vertex  9.445701e-001  2.043624e+000  0.000000e+000
    endloop
  endfacet
  facet normal  0.000000e+000  -0.000000e+000 -1.000000e+000
    outer loop
      vertex  0.000000e+000  0.000000e+000  0.000000e+000
      vertex  9.445701e-001  2.043624e+000  0.000000e+000
      vertex  1.722851e+000  1.077439e+000  0.000000e+000
    endloop
  endfacet
  facet normal  0.000000e+000  -0.000000e+000 -9.999999e-001
    outer loop
      vertex  0.000000e+000  0.000000e+000  0.000000e+000
      vertex  1.722851e+000  1.077439e+000  0.000000e+000
      vertex  2.956376e+000  9.445701e-001  0.000000e+000
    endloop
  endfacet
  facet normal  0.000000e+000  -0.000000e+000 -9.999999e-001
    outer loop
      vertex  0.000000e+000  0.000000e+000  0.000000e+000
      vertex  2.956376e+000  9.445701e-001  0.000000e+000
      vertex  3.672285e+001  1.077439e+000  0.000000e+000
    endloop
  endfacet
  facet normal  0.000000e+000  -0.000000e+000 -9.999999e-001
    outer loop
      vertex  0.000000e+000  0.000000e+000  0.000000e+000
      vertex  3.672285e+001  1.077439e+000  0.000000e+000
      vertex  3.795638e+001  9.445701e-001  0.000000e+000
    endloop
  endfacet
  facet normal  0.000000e+000  -0.000000e+000 -1.000000e+000
    outer loop
      vertex  0.000000e+000  0.000000e+000  0.000000e+000
      vertex  3.795638e+001  9.445701e-001  0.000000e+000
      vertex  4.000000e+001  0.000000e+000  0.000000e+000
    endloop
  endfacet
  facet normal  -0.000000e+000  0.000000e+000 -1.000000e+000
    outer loop
      vertex  0.000000e+000  1.000000e+002  0.000000e+000
      vertex  3.704362e+001  9.905543e+001  0.000000e+000
      vertex  3.607744e+001  9.827715e+001  0.000000e+000
    endloop
  endfacet
  facet normal  0.000000e+000  0.000000e+000 -1.000000e+000
    outer loop
      vertex  0.000000e+000  1.000000e+002  0.000000e+000
      vertex  3.607744e+001  9.827715e+001  0.000000e+000
      vertex  3.277149e+000  9.892256e+001  0.000000e+000
    endloop
  endfacet
  facet normal  0.000000e+000  0.000000e+000 -1.000000e+000
    outer loop
      vertex  0.000000e+000  1.000000e+002  0.000000e+000
      vertex  3.277149e+000  9.892256e+001  0.000000e+000
      vertex  2.043624e+000  9.905543e+001  0.000000e+000
    endloop
  endfacet
  facet normal  -0.000000e+000  0.000000e+000 -1.000000e+000
    outer loop
      vertex  0.000000e+000  1.000000e+002  0.000000e+000
      vertex  2.043624e+000  9.905543e+001  0.000000e+000
      vertex  1.077439e+000  9.827715e+001  0.000000e+000
    endloop
  endfacet
  facet normal  -0.000000e+000  0.000000e+000 -1.000000e+000
    outer loop
      vertex  0.000000e+000  1.000000e+002  0.000000e+000
      vertex  1.077439e+000  9.827715e+001  0.000000e+000
      vertex  9.445701e-001  9.704362e+001  0.000000e+000
    endloop
  endfacet
  facet normal  -0.000000e+000  0.000000e+000 -1.000000e+000
    outer loop
      vertex  0.000000e+000  1.000000e+002  0.000000e+000
      vertex  9.445701e-001  9.704362e+001  0.000000e+000
      vertex  0.000000e+000  0.000000e+000  0.000000e+000
    endloop
  endfacet
  facet normal  0.000000e+000  0.000000e+000 -1.000000e+000
    outer loop
      vertex  4.000000e+001  1.000000e+002  0.000000e+000
      vertex  4.000000e+001  0.000000e+000  0.000000e+000
      vertex  3.905543e+001  9.245638e+001  0.000000e+000
    endloop
  endfacet
  facet normal  0.000000e+000  0.000000e+000 -1.000000e+000
    outer loop
      vertex  4.000000e+001  1.000000e+002  0.000000e+000
      vertex  3.905543e+001  9.245638e+001  0.000000e+000
      vertex  3.905543e+001  9.795638e+001  0.000000e+000
    endloop
  endfacet
  facet normal  0.000000e+000  0.000000e+000 -1.000000e+000
    outer loop
      vertex  4.000000e+001  1.000000e+002  0.000000e+000
      vertex  3.905543e+001  9.795638e+001  0.000000e+000
      vertex  3.827715e+001  9.892256e+001  0.000000e+000
    endloop
  endfacet
  facet normal  0.000000e+000  0.000000e+000 -9.999999e-001
    outer loop
      vertex  4.000000e+001  1.000000e+002  0.000000e+000
      vertex  3.827715e+001  9.892256e+001  0.000000e+000
      vertex  3.704362e+001  9.905543e+001  0.000000e+000
    endloop
  endfacet
  facet normal  0.000000e+000  0.000000e+000 -1.000000e+000
    outer loop
      vertex  4.000000e+001  1.000000e+002  0.000000e+000
      vertex  3.704362e+001  9.905543e+001  0.000000e+000
      vertex  0.000000e+000  1.000000e+002  0.000000e+000
    endloop
  endfacet
  facet normal  0.000000e+000  0.000000e+000 -1.000000e+000
    outer loop
      vertex  4.000000e+001  0.000000e+000  0.000000e+000
      vertex  3.795638e+001  9.445701e-001  0.000000e+000
      vertex  3.892256e+001  1.722851e+000  0.000000e+000
    endloop
  endfacet
  facet normal  0.000000e+000  0.000000e+000 -9.999999e-001
    outer loop
      vertex  4.000000e+001  0.000000e+000  0.000000e+000
      vertex  3.892256e+001  1.722851e+000  0.000000e+000
      vertex  3.905543e+001  2.956376e+000  0.000000e+000
    endloop
  endfacet
  facet normal  0.000000e+000  0.000000e+000 -1.000000e+000
    outer loop
      vertex  4.000000e+001  0.000000e+000  0.000000e+000
      vertex  3.905543e+001  2.956376e+000  0.000000e+000
      vertex  3.795638e+001  9.044457e+001  0.000000e+000
    endloop
  endfacet
  facet normal  0.000000e+000  0.000000e+000 -1.000000e+000
    outer loop
      vertex  4.000000e+001  0.000000e+000  0.000000e+000
      vertex  3.795638e+001  9.044457e+001  0.000000e+000
      vertex  3.892256e+001  9.122285e+001  0.000000e+000
    endloop
  endfacet
  facet normal  0.000000e+000  0.000000e+000 -9.999999e-001
    outer loop
      vertex  4.000000e+001  0.000000e+000  0.000000e+000
      vertex  3.892256e+001  9.122285e+001  0.000000e+000
      vertex  3.905543e+001  9.245638e+001  0.000000e+000
    endloop
  endfacet
  facet normal  0.000000e+000  0.000000e+000 -1.000000e+000
    outer loop
      vertex  1.077439e+000  9.277715e+001  0.000000e+000
      vertex  9.445701e-001  9.154362e+001  0.000000e+000
      vertex  9.445701e-001  9.704362e+001  0.000000e+000
    endloop
  endfacet
  facet normal  0.000000e+000  0.000000e+000 -1.000000e+000
    outer loop
      vertex  1.077439e+000  9.277715e+001  0.000000e+000
      vertex  9.445701e-001  9.704362e+001  0.000000e+000
      vertex  1.722851e+000  9.607744e+001  0.000000e+000
    endloop
  endfacet
  facet normal  0.000000e+000  -0.000000e+000 -1.000000e+000
    outer loop
      vertex  1.077439e+000  9.277715e+001  0.000000e+000
      vertex  1.722851e+000  9.607744e+001  0.000000e+000
      vertex  2.043624e+000  9.355543e+001  0.000000e+000
    endloop
  endfacet
  facet normal  0.000000e+000  0.000000e+000 -1.000000e+000
    outer loop
      vertex  3.905543e+001  9.245638e+001  0.000000e+000
      vertex  3.827715e+001  9.342256e+001  0.000000e+000
      vertex  3.795638e+001  9.594457e+001  0.000000e+000
    endloop
  endfacet
  facet normal  0.000000e+000  0.000000e+000 -1.000000e+000
    outer loop
      vertex  3.905543e+001  9.245638e+001  0.000000e+000
      vertex  3.795638e+001  9.594457e+001  0.000000e+000
      vertex  3.892256e+001  9.672285e+001  0.000000e+000
    endloop
  endfacet
  facet normal  0.000000e+000  0.000000e+000 -1.000000e+000
    outer loop
      vertex  3.905543e+001  9.245638e+001  0.000000e+000
      vertex  3.892256e+001  9.672285e+001  0.000000e+000
      vertex  3.905543e+001  9.795638e+001  0.000000e+000
    endloop
  endfacet
  facet normal  0.000000e+000  -0.000000e+000 -1.000000e+000
    outer loop
      vertex  1.077439e+000  3.277149e+000  0.000000e+000
      vertex  1.722851e+000  9.057744e+001  0.000000e+000
      vertex  2.043624e+000  4.055430e+000  0.000000e+000
    endloop
  endfacet
  facet normal  0.000000e+000  0.000000e+000 -1.000000e+000
    outer loop
      vertex  2.043624e+000  4.055430e+000  0.000000e+000
      vertex  1.722851e+000  9.057744e+001  0.000000e+000
      vertex  2.956376e+000  9.044457e+001  0.000000e+000
    endloop
  endfacet
  facet normal  0.000000e+000  -0.000000e+000 -1.000000e+000
    outer loop
      vertex  2.043624e+000  4.055430e+000  0.000000e+000
      vertex  2.956376e+000  9.044457e+001  0.000000e+000
      vertex  3.277149e+000  3.922561e+000  0.000000e+000
    endloop
  endfacet
  facet normal  0.000000e+000  0.000000e+000 -1.000000e+000
    outer loop
      vertex  3.277149e+000  3.922561e+000  0.000000e+000
      vertex  2.956376e+000  9.044457e+001  0.000000e+000
      vertex  3.704362e+001  4.055430e+000  0.000000e+000
    endloop
  endfacet
  facet normal  0.000000e+000  0.000000e+000 -1.000000e+000
    outer loop
      vertex  3.277149e+000  3.922561e+000  0.000000e+000
      vertex  3.704362e+001  4.055430e+000  0.000000e+000
      vertex  3.607744e+001  3.277149e+000  0.000000e+000
    endloop
  endfacet
  facet normal  0.000000e+000  0.000000e+000 -9.999999e-001
    outer loop
      vertex  3.607744e+001  9.277715e+001  0.000000e+000
      vertex  3.277149e+000  9.342256e+001  0.000000e+000
      vertex  3.704362e+001  9.355543e+001  0.000000e+000
    endloop
  endfacet
  facet normal  -0.000000e+000  0.000000e+000 -1.000000e+000
    outer loop
      vertex  3.704362e+001  9.355543e+001  0.000000e+000
      vertex  3.277149e+000  9.342256e+001  0.000000e+000
      vertex  2.956376e+000  9.594457e+001  0.000000e+000
    endloop
  endfacet
  facet normal  0.000000e+000  0.000000e+000 -9.999999e-001
    outer loop
      vertex  3.277149e+000  9.342256e+001  0.000000e+000
      vertex  2.043624e+000  9.355543e+001  0.000000e+000
      vertex  2.956376e+000  9.594457e+001  0.000000e+000
    endloop
  endfacet
  facet normal  -0.000000e+000  0.000000e+000 -1.000000e+000
    outer loop
      vertex  2.956376e+000  9.594457e+001  0.000000e+000
      vertex  2.043624e+000  9.355543e+001  0.000000e+000
      vertex  1.722851e+000  9.607744e+001  0.000000e+000
    endloop
  endfacet
  facet normal  0.000000e+000  -0.000000e+000 -1.000000e+000
    outer loop
      vertex  2.956376e+000  9.044457e+001  0.000000e+000
      vertex  3.672285e+001  9.057744e+001  0.000000e+000
      vertex  3.704362e+001  4.055430e+000  0.000000e+000
    endloop
  endfacet
  facet normal  0.000000e+000  0.000000e+000 -1.000000e+000
    outer loop
      vertex  3.704362e+001  4.055430e+000  0.000000e+000
      vertex  3.672285e+001  9.057744e+001  0.000000e+000
      vertex  3.795638e+001  9.044457e+001  0.000000e+000
    endloop
  endfacet
  facet normal  0.000000e+000  -0.000000e+000 -1.000000e+000
    outer loop
      vertex  3.704362e+001  4.055430e+000  0.000000e+000
      vertex  3.795638e+001  9.044457e+001  0.000000e+000
      vertex  3.827715e+001  3.922561e+000  0.000000e+000
    endloop
  endfacet
  facet normal  0.000000e+000  -0.000000e+000 -1.000000e+000
    outer loop
      vertex  2.956376e+000  9.594457e+001  0.000000e+000
      vertex  3.672285e+001  9.607744e+001  0.000000e+000
      vertex  3.704362e+001  9.355543e+001  0.000000e+000
    endloop
  endfacet
  facet normal  0.000000e+000  0.000000e+000 -9.999999e-001
    outer loop
      vertex  3.704362e+001  9.355543e+001  0.000000e+000
      vertex  3.672285e+001  9.607744e+001  0.000000e+000
      vertex  3.795638e+001  9.594457e+001  0.000000e+000
    endloop
  endfacet
  facet normal  0.000000e+000  -0.000000e+000 -9.999999e-001
    outer loop
      vertex  3.704362e+001  9.355543e+001  0.000000e+000
      vertex  3.795638e+001  9.594457e+001  0.000000e+000
      vertex  3.827715e+001  9.342256e+001  0.000000e+000
    endloop
  endfacet
  facet normal  -0.000000e+000  0.000000e+000 -1.000000e+000
    outer loop
      vertex  3.277149e+000  9.892256e+001  0.000000e+000
      vertex  3.607744e+001  9.827715e+001  0.000000e+000
      vertex  4.055430e+000  9.795638e+001  0.000000e+000
    endloop
  endfacet
  facet normal  0.000000e+000  0.000000e+000 -1.000000e+000
    outer loop
      vertex  4.055430e+000  9.795638e+001  0.000000e+000
      vertex  3.607744e+001  9.827715e+001  0.000000e+000
      vertex  3.594457e+001  9.704362e+001  0.000000e+000
    endloop
  endfacet
  facet normal  -0.000000e+000  0.000000e+000 -1.000000e+000
    outer loop
      vertex  4.055430e+000  9.795638e+001  0.000000e+000
      vertex  3.594457e+001  9.704362e+001  0.000000e+000
      vertex  3.922561e+000  9.672285e+001  0.000000e+000
    endloop
  endfacet
  facet normal  0.000000e+000  0.000000e+000 -1.000000e+000
    outer loop
      vertex  3.922561e+000  9.672285e+001  0.000000e+000
      vertex  3.594457e+001  9.704362e+001  0.000000e+000
      vertex  3.672285e+001  9.607744e+001  0.000000e+000
    endloop
  endfacet
  facet normal  -0.000000e+000  0.000000e+000 -9.999999e-001
    outer loop
      vertex  3.922561e+000  9.672285e+001  0.000000e+000
      vertex  3.672285e+001  9.607744e+001  0.000000e+000
      vertex  2.956376e+000  9.594457e+001  0.000000e+000
    endloop
  endfacet
  facet normal  -0.000000e+000  0.000000e+000 -1.000000e+000
    outer loop
      vertex  3.277149e+000  9.342256e+001  0.000000e+000
      vertex  3.607744e+001  9.277715e+001  0.000000e+000
      vertex  4.055430e+000  9.245638e+001  0.000000e+000
    endloop
  endfacet
  facet normal  0.000000e+000  0.000000e+000 -1.000000e+000
    outer loop
      vertex  4.055430e+000  9.245638e+001  0.000000e+000
      vertex  3.607744e+001  9.277715e+001  0.000000e+000
      vertex  3.594457e+001  9.154362e+001  0.000000e+000
    endloop
  endfacet
  facet normal  -0.000000e+000  0.000000e+000 -1.000000e+000
    outer loop
      vertex  4.055430e+000  9.245638e+001  0.000000e+000
      vertex  3.594457e+001  9.154362e+001  0.000000e+000
      vertex  3.922561e+000  9.122285e+001  0.000000e+000
    endloop
  endfacet
  facet normal  0.000000e+000  0.000000e+000 -1.000000e+000
    outer loop
      vertex  3.922561e+000  9.122285e+001  0.000000e+000
      vertex  3.594457e+001  9.154362e+001  0.000000e+000
      vertex  3.672285e+001  9.057744e+001  0.000000e+000
    endloop
  endfacet
  facet normal  -0.000000e+000  0.000000e+000 -9.999999e-001
    outer loop
      vertex  3.922561e+000  9.122285e+001  0.000000e+000
      vertex  3.672285e+001  9.057744e+001  0.000000e+000
      vertex  2.956376e+000  9.044457e+001  0.000000e+000
    endloop
  endfacet
  facet normal  -0.000000e+000  0.000000e+000 -1.000000e+000
    outer loop
      vertex  3.277149e+000  3.922561e+000  0.000000e+000
      vertex  3.607744e+001  3.277149e+000  0.000000e+000
      vertex  4.055430e+000  2.956376e+000  0.000000e+000
    endloop
  endfacet
  facet normal  0.000000e+000  0.000000e+000 -1.000000e+000
    outer loop
      vertex  4.055430e+000  2.956376e+000  0.000000e+000
      vertex  3.607744e+001  3.277149e+000  0.000000e+000
      vertex  3.594457e+001  2.043624e+000  0.000000e+000
    endloop
  endfacet
  facet normal  -0.000000e+000  0.000000e+000 -1.000000e+000
    outer loop
      vertex  4.055430e+000  2.956376e+000  0.000000e+000
      vertex  3.594457e+001  2.043624e+000  0.000000e+000
      vertex  3.922561e+000  1.722851e+000  0.000000e+000
    endloop
  endfacet
  facet normal  0.000000e+000  0.000000e+000 -1.000000e+000
    outer loop
      vertex  3.922561e+000  1.722851e+000  0.000000e+000
      vertex  3.594457e+001  2.043624e+000  0.000000e+000
      vertex  3.672285e+001  1.077439e+000  0.000000e+000
    endloop
  endfacet
  facet normal  -0.000000e+000  0.000000e+000 -9.999999e-001
    outer loop
      vertex  3.922561e+000  1.722851e+000  0.000000e+000
      vertex  3.672285e+001  1.077439e+000  0.000000e+000
      vertex  2.956376e+000  9.445701e-001  0.000000e+000
    endloop
  endfacet
  facet normal  7.787681e-001  6.273121e-001  -0.000000e+000
    outer loop
      vertex  1.722851e+000  9.057744e+001  3.000000e+000
      vertex  9.445701e-001  9.154362e+001  0.000000e+000
      vertex  9.445701e-001  9.154362e+001  3.000000e+000
    endloop
  endfacet
  facet normal  9.942488e-001 -1.070955e-001  0.000000e+000
    outer loop
      vertex  9.445701e-001  9.154362e+001  3.000000e+000
      vertex  9.445701e-001  9.154362e+001  0.000000e+000
      vertex  1.077439e+000  9.277715e+001  0.000000e+000
    endloop
  endfacet
  facet normal  9.942488e-001 -1.070955e-001  0.000000e+000
    outer loop
      vertex  9.445701e-001  9.154362e+001  3.000000e+000
      vertex  1.077439e+000  9.277715e+001  0.000000e+000
      vertex  1.077439e+000  9.277715e+001  3.000000e+000
    endloop
  endfacet
  facet normal  7.787681e-001  6.273121e-001  0.000000e+000
    outer loop
      vertex  9.445701e-001  9.154362e+001  0.000000e+000
      vertex  1.722851e+000  9.057744e+001  3.000000e+000
      vertex  1.722851e+000  9.057744e+001  0.000000e+000
    endloop
  endfacet
  facet normal  1.070930e-001  9.942490e-001  -0.000000e+000
    outer loop
      vertex  1.722851e+000  9.057744e+001  0.000000e+000
      vertex  1.722851e+000  9.057744e+001  3.000000e+000
      vertex  2.956376e+000  9.044457e+001  3.000000e+000
    endloop
  endfacet
  facet normal  1.070930e-001  9.942490e-001  0.000000e+000
    outer loop
      vertex  1.722851e+000  9.057744e+001  0.000000e+000
      vertex  2.956376e+000  9.044457e+001  3.000000e+000
      vertex  2.956376e+000  9.044457e+001  0.000000e+000
    endloop
  endfacet
  facet normal -6.273128e-001  7.787674e-001  0.000000e+000
    outer loop
      vertex  2.956376e+000  9.044457e+001  0.000000e+000
      vertex  2.956376e+000  9.044457e+001  3.000000e+000
      vertex  3.922561e+000  9.122285e+001  3.000000e+000
    endloop
  endfacet
  facet normal -6.273128e-001  7.787674e-001  0.000000e+000
    outer loop
      vertex  2.956376e+000  9.044457e+001  0.000000e+000
      vertex  3.922561e+000  9.122285e+001  3.000000e+000
      vertex  3.922561e+000  9.122285e+001  0.000000e+000
    endloop
  endfacet
  facet normal -7.787680e-001 -6.273121e-001  0.000000e+000
    outer loop
      vertex  3.277149e+000  9.342256e+001  3.000000e+000
      vertex  4.055430e+000  9.245638e+001  0.000000e+000
      vertex  4.055430e+000  9.245638e+001  3.000000e+000
    endloop
  endfacet
  facet normal -9.942488e-001  1.070954e-001  0.000000e+000
    outer loop
      vertex  4.055430e+000  9.245638e+001  3.000000e+000
      vertex  4.055430e+000  9.245638e+001  0.000000e+000
      vertex  3.922561e+000  9.122285e+001  0.000000e+000
    endloop
  endfacet
  facet normal -9.942488e-001  1.070954e-001  0.000000e+000
    outer loop
      vertex  4.055430e+000  9.245638e+001  3.000000e+000
      vertex  3.922561e+000  9.122285e+001  0.000000e+000
      vertex  3.922561e+000  9.122285e+001  3.000000e+000
    endloop
  endfacet
  facet normal -7.787680e-001 -6.273121e-001  -0.000000e+000
    outer loop
      vertex  4.055430e+000  9.245638e+001  0.000000e+000
      vertex  3.277149e+000  9.342256e+001  3.000000e+000
      vertex  3.277149e+000  9.342256e+001  0.000000e+000
    endloop
  endfacet
  facet normal -1.070930e-001 -9.942490e-001  0.000000e+000
    outer loop
      vertex  3.277149e+000  9.342256e+001  0.000000e+000
      vertex  3.277149e+000  9.342256e+001  3.000000e+000
      vertex  2.043624e+000  9.355543e+001  3.000000e+000
    endloop
  endfacet
  facet normal -1.070930e-001 -9.942490e-001  -0.000000e+000
    outer loop
      vertex  3.277149e+000  9.342256e+001  0.000000e+000
      vertex  2.043624e+000  9.355543e+001  3.000000e+000
      vertex  2.043624e+000  9.355543e+001  0.000000e+000
    endloop
  endfacet
  facet normal  6.273128e-001 -7.787673e-001  0.000000e+000
    outer loop
      vertex  2.043624e+000  9.355543e+001  0.000000e+000
      vertex  2.043624e+000  9.355543e+001  3.000000e+000
      vertex  1.077439e+000  9.277715e+001  3.000000e+000
    endloop
  endfacet
  facet normal  6.273128e-001 -7.787673e-001  0.000000e+000
    outer loop
      vertex  2.043624e+000  9.355543e+001  0.000000e+000
      vertex  1.077439e+000  9.277715e+001  3.000000e+000
      vertex  1.077439e+000  9.277715e+001  0.000000e+000
    endloop
  endfacet
  facet normal  7.787676e-001  6.273126e-001  -0.000000e+000
    outer loop
      vertex  3.672285e+001  9.057744e+001  3.000000e+000
      vertex  3.594457e+001  9.154362e+001  0.000000e+000
      vertex  3.594457e+001  9.154362e+001  3.000000e+000
    endloop
  endfacet
  facet normal  9.942486e-001 -1.070963e-001  0.000000e+000
    outer loop
      vertex  3.594457e+001  9.154362e+001  3.000000e+000
      vertex  3.594457e+001  9.154362e+001  0.000000e+000
      vertex  3.607744e+001  9.277715e+001  0.000000e+000
    endloop
  endfacet
  facet normal  9.942486e-001 -1.070963e-001  0.000000e+000
    outer loop
      vertex  3.594457e+001  9.154362e+001  3.000000e+000
      vertex  3.607744e+001  9.277715e+001  0.000000e+000
      vertex  3.607744e+001  9.277715e+001  3.000000e+000
    endloop
  endfacet
  facet normal  7.787676e-001  6.273126e-001  0.000000e+000
    outer loop
      vertex  3.594457e+001  9.154362e+001  0.000000e+000
      vertex  3.672285e+001  9.057744e+001  3.000000e+000
      vertex  3.672285e+001  9.057744e+001  0.000000e+000
    endloop
  endfacet
  facet normal  1.070930e-001  9.942490e-001  -0.000000e+000
    outer loop
      vertex  3.672285e+001  9.057744e+001  0.000000e+000
      vertex  3.672285e+001  9.057744e+001  3.000000e+000
      vertex  3.795638e+001  9.044457e+001  3.000000e+000
    endloop
  endfacet
  facet normal  1.070930e-001  9.942490e-001  0.000000e+000
    outer loop
      vertex  3.672285e+001  9.057744e+001  0.000000e+000
      vertex  3.795638e+001  9.044457e+001  3.000000e+000
      vertex  3.795638e+001  9.044457e+001  0.000000e+000
    endloop
  endfacet
  facet normal -6.273126e-001  7.787676e-001  0.000000e+000
    outer loop
      vertex  3.795638e+001  9.044457e+001  0.000000e+000
      vertex  3.795638e+001  9.044457e+001  3.000000e+000
      vertex  3.892256e+001  9.122285e+001  3.000000e+000
    endloop
  endfacet
  facet normal -6.273126e-001  7.787676e-001  0.000000e+000
    outer loop
      vertex  3.795638e+001  9.044457e+001  0.000000e+000
      vertex  3.892256e+001  9.122285e+001  3.000000e+000
      vertex  3.892256e+001  9.122285e+001  0.000000e+000
    endloop
  endfacet
  facet normal -7.787676e-001 -6.273126e-001  0.000000e+000
    outer loop
      vertex  3.827715e+001  9.342256e+001  3.000000e+000
      vertex  3.905543e+001  9.245638e+001  0.000000e+000
      vertex  3.905543e+001  9.245638e+001  3.000000e+000
    endloop
  endfacet
  facet normal -9.942486e-001  1.070963e-001  0.000000e+000
    outer loop
      vertex  3.905543e+001  9.245638e+001  3.000000e+000
      vertex  3.905543e+001  9.245638e+001  0.000000e+000
      vertex  3.892256e+001  9.122285e+001  0.000000e+000
    endloop
  endfacet
  facet normal -9.942486e-001  1.070963e-001  0.000000e+000
    outer loop
      vertex  3.905543e+001  9.245638e+001  3.000000e+000
      vertex  3.892256e+001  9.122285e+001  0.000000e+000
      vertex  3.892256e+001  9.122285e+001  3.000000e+000
    endloop
  endfacet
  facet normal -7.787676e-001 -6.273126e-001  -0.000000e+000
    outer loop
      vertex  3.905543e+001  9.245638e+001  0.000000e+000
      vertex  3.827715e+001  9.342256e+001  3.000000e+000
      vertex  3.827715e+001  9.342256e+001  0.000000e+000
    endloop
  endfacet
  facet normal -1.070930e-001 -9.942490e-001  0.000000e+000
    outer loop
      vertex  3.827715e+001  9.342256e+001  0.000000e+000
      vertex  3.827715e+001  9.342256e+001  3.000000e+000
      vertex  3.704362e+001  9.355543e+001  3.000000e+000
    endloop
  endfacet
  facet normal -1.070930e-001 -9.942490e-001  -0.000000e+000
    outer loop
      vertex  3.827715e+001  9.342256e+001  0.000000e+000
      vertex  3.704362e+001  9.355543e+001  3.000000e+000
      vertex  3.704362e+001  9.355543e+001  0.000000e+000
    endloop
  endfacet
  facet normal  6.273126e-001 -7.787676e-001  0.000000e+000
    outer loop
      vertex  3.704362e+001  9.355543e+001  0.000000e+000
      vertex  3.704362e+001  9.355543e+001  3.000000e+000
      vertex  3.607744e+001  9.277715e+001  3.000000e+000
    endloop
  endfacet
  facet normal  6.273126e-001 -7.787676e-001  0.000000e+000
    outer loop
      vertex  3.704362e+001  9.355543e+001  0.000000e+000
      vertex  3.607744e+001  9.277715e+001  3.000000e+000
      vertex  3.607744e+001  9.277715e+001  0.000000e+000
    endloop
  endfacet
  facet normal  7.787673e-001  6.273128e-001  -0.000000e+000
    outer loop
      vertex  3.672285e+001  1.077439e+000  3.000000e+000
      vertex  3.594457e+001  2.043624e+000  0.000000e+000
      vertex  3.594457e+001  2.043624e+000  3.000000e+000
    endloop
  endfacet
  facet normal  9.942487e-001 -1.070960e-001  0.000000e+000
    outer loop
      vertex  3.594457e+001  2.043624e+000  3.000000e+000
      vertex  3.594457e+001  2.043624e+000  0.000000e+000
      vertex  3.607744e+001  3.277149e+000  0.000000e+000
    endloop
  endfacet
  facet normal  9.942487e-001 -1.070960e-001  0.000000e+000
    outer loop
      vertex  3.594457e+001  2.043624e+000  3.000000e+000
      vertex  3.607744e+001  3.277149e+000  0.000000e+000
      vertex  3.607744e+001  3.277149e+000  3.000000e+000
    endloop
  endfacet
  facet normal  7.787673e-001  6.273128e-001  0.000000e+000
    outer loop
      vertex  3.594457e+001  2.043624e+000  0.000000e+000
      vertex  3.672285e+001  1.077439e+000  3.000000e+000
      vertex  3.672285e+001  1.077439e+000  0.000000e+000
    endloop
  endfacet
  facet normal  1.070952e-001  9.942488e-001  -0.000000e+000
    outer loop
      vertex  3.672285e+001  1.077439e+000  0.000000e+000
      vertex  3.672285e+001  1.077439e+000  3.000000e+000
      vertex  3.795638e+001  9.445701e-001  3.000000e+000
    endloop
  endfacet
  facet normal  1.070952e-001  9.942488e-001  0.000000e+000
    outer loop
      vertex  3.672285e+001  1.077439e+000  0.000000e+000
      vertex  3.795638e+001  9.445701e-001  3.000000e+000
      vertex  3.795638e+001  9.445701e-001  0.000000e+000
    endloop
  endfacet
  facet normal -6.273121e-001  7.787681e-001  0.000000e+000
    outer loop
      vertex  3.795638e+001  9.445701e-001  0.000000e+000
      vertex  3.795638e+001  9.445701e-001  3.000000e+000
      vertex  3.892256e+001  1.722851e+000  3.000000e+000
    endloop
  endfacet
  facet normal -6.273121e-001  7.787681e-001  0.000000e+000
    outer loop
      vertex  3.795638e+001  9.445701e-001  0.000000e+000
      vertex  3.892256e+001  1.722851e+000  3.000000e+000
      vertex  3.892256e+001  1.722851e+000  0.000000e+000
    endloop
  endfacet
  facet normal -7.787674e-001 -6.273128e-001  0.000000e+000
    outer loop
      vertex  3.827715e+001  3.922561e+000  3.000000e+000
      vertex  3.905543e+001  2.956376e+000  0.000000e+000
      vertex  3.905543e+001  2.956376e+000  3.000000e+000
    endloop
  endfacet
  facet normal -9.942487e-001  1.070960e-001  0.000000e+000
    outer loop
      vertex  3.905543e+001  2.956376e+000  3.000000e+000
      vertex  3.905543e+001  2.956376e+000  0.000000e+000
      vertex  3.892256e+001  1.722851e+000  0.000000e+000
    endloop
  endfacet
  facet normal -9.942487e-001  1.070960e-001  0.000000e+000
    outer loop
      vertex  3.905543e+001  2.956376e+000  3.000000e+000
      vertex  3.892256e+001  1.722851e+000  0.000000e+000
      vertex  3.892256e+001  1.722851e+000  3.000000e+000
    endloop
  endfacet
  facet normal -7.787674e-001 -6.273128e-001  -0.000000e+000
    outer loop
      vertex  3.905543e+001  2.956376e+000  0.000000e+000
      vertex  3.827715e+001  3.922561e+000  3.000000e+000
      vertex  3.827715e+001  3.922561e+000  0.000000e+000
    endloop
  endfacet
  facet normal -1.070951e-001 -9.942488e-001  0.000000e+000
    outer loop
      vertex  3.827715e+001  3.922561e+000  0.000000e+000
      vertex  3.827715e+001  3.922561e+000  3.000000e+000
      vertex  3.704362e+001  4.055430e+000  3.000000e+000
    endloop
  endfacet
  facet normal -1.070951e-001 -9.942488e-001  -0.000000e+000
    outer loop
      vertex  3.827715e+001  3.922561e+000  0.000000e+000
      vertex  3.704362e+001  4.055430e+000  3.000000e+000
      vertex  3.704362e+001  4.055430e+000  0.000000e+000
    endloop
  endfacet
  facet normal  6.273121e-001 -7.787680e-001  0.000000e+000
    outer loop
      vertex  3.704362e+001  4.055430e+000  0.000000e+000
      vertex  3.704362e+001  4.055430e+000  3.000000e+000
      vertex  3.607744e+001  3.277149e+000  3.000000e+000
    endloop
  endfacet
  facet normal  6.273121e-001 -7.787680e-001  0.000000e+000
    outer loop
      vertex  3.704362e+001  4.055430e+000  0.000000e+000
      vertex  3.607744e+001  3.277149e+000  3.000000e+000
      vertex  3.607744e+001  3.277149e+000  0.000000e+000
    endloop
  endfacet
  facet normal  7.787678e-001  6.273123e-001  -0.000000e+000
    outer loop
      vertex  1.722851e+000  1.077439e+000  3.000000e+000
      vertex  9.445701e-001  2.043624e+000  0.000000e+000
      vertex  9.445701e-001  2.043624e+000  3.000000e+000
    endloop
  endfacet
  facet normal  9.942488e-001 -1.070952e-001  0.000000e+000
    outer loop
      vertex  9.445701e-001  2.043624e+000  3.000000e+000
      vertex  9.445701e-001  2.043624e+000  0.000000e+000
      vertex  1.077439e+000  3.277149e+000  0.000000e+000
    endloop
  endfacet
  facet normal  9.942488e-001 -1.070952e-001  0.000000e+000
    outer loop
      vertex  9.445701e-001  2.043624e+000  3.000000e+000
      vertex  1.077439e+000  3.277149e+000  0.000000e+000
      vertex  1.077439e+000  3.277149e+000  3.000000e+000
    endloop
  endfacet
  facet normal  7.787678e-001  6.273123e-001  0.000000e+000
    outer loop
      vertex  9.445701e-001  2.043624e+000  0.000000e+000
      vertex  1.722851e+000  1.077439e+000  3.000000e+000
      vertex  1.722851e+000  1.077439e+000  0.000000e+000
    endloop
  endfacet
  facet normal  1.070952e-001  9.942488e-001  -0.000000e+000
    outer loop
      vertex  1.722851e+000  1.077439e+000  0.000000e+000
      vertex  1.722851e+000  1.077439e+000  3.000000e+000
      vertex  2.956376e+000  9.445701e-001  3.000000e+000
    endloop
  endfacet
  facet normal  1.070952e-001  9.942488e-001  0.000000e+000
    outer loop
      vertex  1.722851e+000  1.077439e+000  0.000000e+000
      vertex  2.956376e+000  9.445701e-001  3.000000e+000
      vertex  2.956376e+000  9.445701e-001  0.000000e+000
    endloop
  endfacet
  facet normal -6.273122e-001  7.787678e-001  0.000000e+000
    outer loop
      vertex  2.956376e+000  9.445701e-001  0.000000e+000
      vertex  2.956376e+000  9.445701e-001  3.000000e+000
      vertex  3.922561e+000  1.722851e+000  3.000000e+000
    endloop
  endfacet
  facet normal -6.273122e-001  7.787678e-001  0.000000e+000
    outer loop
      vertex  2.956376e+000  9.445701e-001  0.000000e+000
      vertex  3.922561e+000  1.722851e+000  3.000000e+000
      vertex  3.922561e+000  1.722851e+000  0.000000e+000
    endloop
  endfacet
  facet normal -7.787678e-001 -6.273124e-001  0.000000e+000
    outer loop
      vertex  3.277149e+000  3.922561e+000  3.000000e+000
      vertex  4.055430e+000  2.956376e+000  0.000000e+000
      vertex  4.055430e+000  2.956376e+000  3.000000e+000
    endloop
  endfacet
  facet normal -9.942488e-001  1.070951e-001  0.000000e+000
    outer loop
      vertex  4.055430e+000  2.956376e+000  3.000000e+000
      vertex  4.055430e+000  2.956376e+000  0.000000e+000
      vertex  3.922561e+000  1.722851e+000  0.000000e+000
    endloop
  endfacet
  facet normal -9.942488e-001  1.070951e-001  0.000000e+000
    outer loop
      vertex  4.055430e+000  2.956376e+000  3.000000e+000
      vertex  3.922561e+000  1.722851e+000  0.000000e+000
      vertex  3.922561e+000  1.722851e+000  3.000000e+000
    endloop
  endfacet
  facet normal -7.787678e-001 -6.273124e-001  -0.000000e+000
    outer loop
      vertex  4.055430e+000  2.956376e+000  0.000000e+000
      vertex  3.277149e+000  3.922561e+000  3.000000e+000
      vertex  3.277149e+000  3.922561e+000  0.000000e+000
    endloop
  endfacet
  facet normal -1.070951e-001 -9.942488e-001  0.000000e+000
    outer loop
      vertex  3.277149e+000  3.922561e+000  0.000000e+000
      vertex  3.277149e+000  3.922561e+000  3.000000e+000
      vertex  2.043624e+000  4.055430e+000  3.000000e+000
    endloop
  endfacet
  facet normal -1.070951e-001 -9.942488e-001  -0.000000e+000
    outer loop
      vertex  3.277149e+000  3.922561e+000  0.000000e+000
      vertex  2.043624e+000  4.055430e+000  3.000000e+000
      vertex  2.043624e+000  4.055430e+000  0.000000e+000
    endloop
  endfacet
  facet normal  6.273124e-001 -7.787677e-001  0.000000e+000
    outer loop
      vertex  2.043624e+000  4.055430e+000  0.000000e+000
      vertex  2.043624e+000  4.055430e+000  3.000000e+000
      vertex  1.077439e+000  3.277149e+000  3.000000e+000
    endloop
  endfacet
  facet normal  6.273124e-001 -7.787677e-001  0.000000e+000
    outer loop
      vertex  2.043624e+000  4.055430e+000  0.000000e+000
      vertex  1.077439e+000  3.277149e+000  3.000000e+000
      vertex  1.077439e+000  3.277149e+000  0.000000e+000
    endloop
  endfacet
  facet normal  7.787676e-001  6.273126e-001  -0.000000e+000
    outer loop
      vertex  3.672285e+001  9.607744e+001  3.000000e+000
      vertex  3.594457e+001  9.704362e+001  0.000000e+000
      vertex  3.594457e+001  9.704362e+001  3.000000e+000
    endloop
  endfacet
  facet normal  9.942486e-001 -1.070963e-001  0.000000e+000
    outer loop
      vertex  3.594457e+001  9.704362e+001  3.000000e+000
      vertex  3.594457e+001  9.704362e+001  0.000000e+000
      vertex  3.607744e+001  9.827715e+001  0.000000e+000
    endloop
  endfacet
  facet normal  9.942486e-001 -1.070963e-001  0.000000e+000
    outer loop
      vertex  3.594457e+001  9.704362e+001  3.000000e+000
      vertex  3.607744e+001  9.827715e+001  0.000000e+000
      vertex  3.607744e+001  9.827715e+001  3.000000e+000
    endloop
  endfacet
  facet normal  7.787676e-001  6.273126e-001  0.000000e+000
    outer loop
      vertex  3.594457e+001  9.704362e+001  0.000000e+000
      vertex  3.672285e+001  9.607744e+001  3.000000e+000
      vertex  3.672285e+001  9.607744e+001  0.000000e+000
    endloop
  endfacet
  facet normal  1.070930e-001  9.942490e-001  -0.000000e+000
    outer loop
      vertex  3.672285e+001  9.607744e+001  0.000000e+000
      vertex  3.672285e+001  9.607744e+001  3.000000e+000
      vertex  3.795638e+001  9.594457e+001  3.000000e+000
    endloop
  endfacet
  facet normal  1.070930e-001  9.942490e-001  0.000000e+000
    outer loop
      vertex  3.672285e+001  9.607744e+001  0.000000e+000
      vertex  3.795638e+001  9.594457e+001  3.000000e+000
      vertex  3.795638e+001  9.594457e+001  0.000000e+000
    endloop
  endfacet
  facet normal -6.273126e-001  7.787676e-001  0.000000e+000
    outer loop
      vertex  3.795638e+001  9.594457e+001  0.000000e+000
      vertex  3.795638e+001  9.594457e+001  3.000000e+000
      vertex  3.892256e+001  9.672285e+001  3.000000e+000
    endloop
  endfacet
  facet normal -6.273126e-001  7.787676e-001  0.000000e+000
    outer loop
      vertex  3.795638e+001  9.594457e+001  0.000000e+000
      vertex  3.892256e+001  9.672285e+001  3.000000e+000
      vertex  3.892256e+001  9.672285e+001  0.000000e+000
    endloop
  endfacet
  facet normal -7.787676e-001 -6.273126e-001  0.000000e+000
    outer loop
      vertex  3.827715e+001  9.892256e+001  3.000000e+000
      vertex  3.905543e+001  9.795638e+001  0.000000e+000
      vertex  3.905543e+001  9.795638e+001  3.000000e+000
    endloop
  endfacet
  facet normal -9.942486e-001  1.070963e-001  0.000000e+000
    outer loop
      vertex  3.905543e+001  9.795638e+001  3.000000e+000
      vertex  3.905543e+001  9.795638e+001  0.000000e+000
      vertex  3.892256e+001  9.672285e+001  0.000000e+000
    endloop
  endfacet
  facet normal -9.942486e-001  1.070963e-001  0.000000e+000
    outer loop
      vertex  3.905543e+001  9.795638e+001  3.000000e+000
      vertex  3.892256e+001  9.672285e+001  0.000000e+000
      vertex  3.892256e+001  9.672285e+001  3.000000e+000
    endloop
  endfacet
  facet normal -7.787676e-001 -6.273126e-001  -0.000000e+000
    outer loop
      vertex  3.905543e+001  9.795638e+001  0.000000e+000
      vertex  3.827715e+001  9.892256e+001  3.000000e+000
      vertex  3.827715e+001  9.892256e+001  0.000000e+000
    endloop
  endfacet
  facet normal -1.070930e-001 -9.942490e-001  0.000000e+000
    outer loop
      vertex  3.827715e+001  9.892256e+001  0.000000e+000
      vertex  3.827715e+001  9.892256e+001  3.000000e+000
      vertex  3.704362e+001  9.905543e+001  3.000000e+000
    endloop
  endfacet
  facet normal -1.070930e-001 -9.942490e-001  -0.000000e+000
    outer loop
      vertex  3.827715e+001  9.892256e+001  0.000000e+000
      vertex  3.704362e+001  9.905543e+001  3.000000e+000
      vertex  3.704362e+001  9.905543e+001  0.000000e+000
    endloop
  endfacet
  facet normal  6.273126e-001 -7.787676e-001  0.000000e+000
    outer loop
      vertex  3.704362e+001  9.905543e+001  0.000000e+000
      vertex  3.704362e+001  9.905543e+001  3.000000e+000
      vertex  3.607744e+001  9.827715e+001  3.000000e+000
    endloop
  endfacet
  facet normal  6.273126e-001 -7.787676e-001  0.000000e+000
    outer loop
      vertex  3.704362e+001  9.905543e+001  0.000000e+000
      vertex  3.607744e+001  9.827715e+001  3.000000e+000
      vertex  3.607744e+001  9.827715e+001  0.000000e+000
    endloop
  endfacet
  facet normal  7.787681e-001  6.273121e-001  -0.000000e+000
    outer loop
      vertex  1.722851e+000  9.607744e+001  3.000000e+000
      vertex  9.445701e-001  9.704362e+001  0.000000e+000
      vertex  9.445701e-001  9.704362e+001  3.000000e+000
    endloop
  endfacet
  facet normal  9.942488e-001 -1.070955e-001  0.000000e+000
    outer loop
      vertex  9.445701e-001  9.704362e+001  3.000000e+000
      vertex  9.445701e-001  9.704362e+001  0.000000e+000
      vertex  1.077439e+000  9.827715e+001  0.000000e+000
    endloop
  endfacet
  facet normal  9.942488e-001 -1.070955e-001  0.000000e+000
    outer loop
      vertex  9.445701e-001  9.704362e+001  3.000000e+000
      vertex  1.077439e+000  9.827715e+001  0.000000e+000
      vertex  1.077439e+000  9.827715e+001  3.000000e+000
    endloop
  endfacet
  facet normal  7.787681e-001  6.273121e-001  0.000000e+000
    outer loop
      vertex  9.445701e-001  9.704362e+001  0.000000e+000
      vertex  1.722851e+000  9.607744e+001  3.000000e+000
      vertex  1.722851e+000  9.607744e+001  0.000000e+000
    endloop
  endfacet
  facet normal  1.070930e-001  9.942490e-001  -0.000000e+000
    outer loop
      vertex  1.722851e+000  9.607744e+001  0.000000e+000
      vertex  1.722851e+000  9.607744e+001  3.000000e+000
      vertex  2.956376e+000  9.594457e+001  3.000000e+000
    endloop
  endfacet
  facet normal  1.070930e-001  9.942490e-001  0.000000e+000
    outer loop
      vertex  1.722851e+000  9.607744e+001  0.000000e+000
      vertex  2.956376e+000  9.594457e+001  3.000000e+000
      vertex  2.956376e+000  9.594457e+001  0.000000e+000
    endloop
  endfacet
  facet normal -6.273128e-001  7.787674e-001  0.000000e+000
    outer loop
      vertex  2.956376e+000  9.594457e+001  0.000000e+000
      vertex  2.956376e+000  9.594457e+001  3.000000e+000
      vertex  3.922561e+000  9.672285e+001  3.000000e+000
    endloop
  endfacet
  facet normal -6.273128e-001  7.787674e-001  0.000000e+000
    outer loop
      vertex  2.956376e+000  9.594457e+001  0.000000e+000
      vertex  3.922561e+000  9.672285e+001  3.000000e+000
      vertex  3.922561e+000  9.672285e+001  0.000000e+000
    endloop
  endfacet
  facet normal -7.787680e-001 -6.273121e-001  0.000000e+000
    outer loop
      vertex  3.277149e+000  9.892256e+001  3.000000e+000
      vertex  4.055430e+000  9.795638e+001  0.000000e+000
      vertex  4.055430e+000  9.795638e+001  3.000000e+000
    endloop
  endfacet
  facet normal -9.942488e-001  1.070954e-001  0.000000e+000
    outer loop
      vertex  4.055430e+000  9.795638e+001  3.000000e+000
      vertex  4.055430e+000  9.795638e+001  0.000000e+000
      vertex  3.922561e+000  9.672285e+001  0.000000e+000
    endloop
  endfacet
  facet normal -9.942488e-001  1.070954e-001  0.000000e+000
    outer loop
      vertex  4.055430e+000  9.795638e+001  3.000000e+000
      vertex  3.922561e+000  9.672285e+001  0.000000e+000
      vertex  3.922561e+000  9.672285e+001  3.000000e+000
    endloop
  endfacet
  facet normal -7.787680e-001 -6.273121e-001  -0.000000e+000
    outer loop
      vertex  4.055430e+000  9.795638e+001  0.000000e+000
      vertex  3.277149e+000  9.892256e+001  3.000000e+000
      vertex  3.277149e+000  9.892256e+001  0.000000e+000
    endloop
  endfacet
  facet normal -1.070930e-001 -9.942490e-001  0.000000e+000
    outer loop
      vertex  3.277149e+000  9.892256e+001  0.000000e+000
      vertex  3.277149e+000  9.892256e+001  3.000000e+000
      vertex  2.043624e+000  9.905543e+001  3.000000e+000
    endloop
  endfacet
  facet normal -1.070930e-001 -9.942490e-001  -0.000000e+000
    outer loop
      vertex  3.277149e+000  9.892256e+001  0.000000e+000
      vertex  2.043624e+000  9.905543e+001  3.000000e+000
      vertex  2.043624e+000  9.905543e+001  0.000000e+000
    endloop
  endfacet
  facet normal  6.273128e-001 -7.787673e-001  0.000000e+000
    outer loop
      vertex  2.043624e+000  9.905543e+001  0.000000e+000
      vertex  2.043624e+000  9.905543e+001  3.000000e+000
      vertex  1.077439e+000  9.827715e+001  3.000000e+000
    endloop
  endfacet
  facet normal  6.273128e-001 -7.787673e-001  0.000000e+000
    outer loop
      vertex  2.043624e+000  9.905543e+001  0.000000e+000
      vertex  1.077439e+000  9.827715e+001  3.000000e+000
      vertex  1.077439e+000  9.827715e+001  0.000000e+000
    endloop
  endfacet
  facet normal -1.000000e+000  0.000000e+000  0.000000e+000
    outer loop
      vertex  0.000000e+000  1.000000e+002  3.000000e+000
      vertex  0.000000e+000  1.000000e+002  0.000000e+000
      vertex  0.000000e+000  0.000000e+000  3.000000e+000
    endloop
  endfacet
  facet normal -1.000000e+000  0.000000e+000  0.000000e+000
    outer loop
      vertex  0.000000e+000  0.000000e+000  3.000000e+000
      vertex  0.000000e+000  1.000000e+002  0.000000e+000
      vertex  0.000000e+000  0.000000e+000  0.000000e+000
    endloop
  endfacet
  facet normal  0.000000e+000  1.000000e+000  -0.000000e+000
    outer loop
      vertex  4.000000e+001  1.000000e+002  3.000000e+000
      vertex  4.000000e+001  1.000000e+002  0.000000e+000
      vertex  0.000000e+000  1.000000e+002  3.000000e+000
    endloop
  endfacet
  facet normal  0.000000e+000  1.000000e+000  0.000000e+000
    outer loop
      vertex  0.000000e+000  1.000000e+002  3.000000e+000
      vertex  4.000000e+001  1.000000e+002  0.000000e+000
      vertex  0.000000e+000  1.000000e+002  0.000000e+000
    endloop
  endfacet
  facet normal  1.000000e+000  0.000000e+000  0.000000e+000
    outer loop
      vertex  4.000000e+001  0.000000e+000  3.000000e+000
      vertex  4.000000e+001  0.000000e+000  0.000000e+000
      vertex  4.000000e+001  1.000000e+002  3.000000e+000
    endloop
  endfacet
  facet normal  1.000000e+000  0.000000e+000  0.000000e+000
    outer loop
      vertex  4.000000e+001  1.000000e+002  3.000000e+000
      vertex  4.000000e+001  0.000000e+000  0.000000e+000
      vertex  4.000000e+001  1.000000e+002  0.000000e+000
    endloop
  endfacet
  facet normal  0.000000e+000 -1.000000e+000  0.000000e+000
    outer loop
      vertex  0.000000e+000  0.000000e+000  3.000000e+000
      vertex  0.000000e+000  0.000000e+000  0.000000e+000
      vertex  4.000000e+001  0.000000e+000  3.000000e+000
    endloop
  endfacet
  facet normal  0.000000e+000 -1.000000e+000  -0.000000e+000
    outer loop
      vertex  4.000000e+001  0.000000e+000  3.000000e+000
      vertex  0.000000e+000  0.000000e+000  0.000000e+000
      vertex  4.000000e+001  0.000000e+000  0.000000e+000
    endloop
  endfacet
endsolid CATIA STL
