solid CATIA STL
  facet normal  0.000000e+000  0.000000e+000 -1.000000e+000
    outer loop
      vertex  1.000000e+001  2.000000e+001 -1.500000e+001
      vertex  6.555430e+000 -1.704362e+001 -1.500000e+001
      vertex  5.777149e+000 -1.607744e+001 -1.500000e+001
    endloop
  endfacet
  facet normal  0.000000e+000  0.000000e+000 -1.000000e+000
    outer loop
      vertex  1.000000e+001  2.000000e+001 -1.500000e+001
      vertex  5.777149e+000 -1.607744e+001 -1.500000e+001
      vertex  6.422561e+000  1.682285e+001 -1.500000e+001
    endloop
  endfacet
  facet normal  0.000000e+000  0.000000e+000 -9.999999e-001
    outer loop
      vertex  1.000000e+001  2.000000e+001 -1.500000e+001
      vertex  6.422561e+000  1.682285e+001 -1.500000e+001
      vertex  6.555430e+000  1.805638e+001 -1.500000e+001
    endloop
  endfacet
  facet normal  0.000000e+000  0.000000e+000 -1.000000e+000
    outer loop
      vertex  1.000000e+001  2.000000e+001 -1.500000e+001
      vertex  6.555430e+000  1.805638e+001 -1.500000e+001
      vertex  5.777149e+000  1.902256e+001 -1.500000e+001
    endloop
  endfacet
  facet normal  0.000000e+000  0.000000e+000 -1.000000e+000
    outer loop
      vertex  1.000000e+001  2.000000e+001 -1.500000e+001
      vertex  5.777149e+000  1.902256e+001 -1.500000e+001
      vertex  4.543624e+000  1.915543e+001 -1.500000e+001
    endloop
  endfacet
  facet normal  0.000000e+000  0.000000e+000 -1.000000e+000
    outer loop
      vertex  1.000000e+001  2.000000e+001 -1.500000e+001
      vertex  4.543624e+000  1.915543e+001 -1.500000e+001
      vertex  0.000000e+000  2.000000e+001 -1.500000e+001
    endloop
  endfacet
  facet normal  0.000000e+000  0.000000e+000 -1.000000e+000
    outer loop
      vertex  0.000000e+000 -2.000000e+001 -1.500000e+001
      vertex  0.000000e+000  2.000000e+001 -1.500000e+001
      vertex  3.444570e+000 -1.795638e+001 -1.500000e+001
    endloop
  endfacet
  facet normal  0.000000e+000  -0.000000e+000 -1.000000e+000
    outer loop
      vertex  0.000000e+000 -2.000000e+001 -1.500000e+001
      vertex  3.444570e+000 -1.795638e+001 -1.500000e+001
      vertex  4.222851e+000 -1.892256e+001 -1.500000e+001
    endloop
  endfacet
  facet normal  0.000000e+000  -0.000000e+000 -9.999999e-001
    outer loop
      vertex  0.000000e+000 -2.000000e+001 -1.500000e+001
      vertex  4.222851e+000 -1.892256e+001 -1.500000e+001
      vertex  5.456376e+000 -1.905543e+001 -1.500000e+001
    endloop
  endfacet
  facet normal  0.000000e+000  -0.000000e+000 -1.000000e+000
    outer loop
      vertex  0.000000e+000 -2.000000e+001 -1.500000e+001
      vertex  5.456376e+000 -1.905543e+001 -1.500000e+001
      vertex  1.000000e+001 -2.000000e+001 -1.500000e+001
    endloop
  endfacet
  facet normal  -0.000000e+000  0.000000e+000 -1.000000e+000
    outer loop
      vertex  0.000000e+000  2.000000e+001 -1.500000e+001
      vertex  4.543624e+000  1.915543e+001 -1.500000e+001
      vertex  3.577439e+000  1.837715e+001 -1.500000e+001
    endloop
  endfacet
  facet normal  -0.000000e+000  0.000000e+000 -1.000000e+000
    outer loop
      vertex  0.000000e+000  2.000000e+001 -1.500000e+001
      vertex  3.577439e+000  1.837715e+001 -1.500000e+001
      vertex  3.444570e+000  1.714363e+001 -1.500000e+001
    endloop
  endfacet
  facet normal  -0.000000e+000  -0.000000e+000 -1.000000e+000
    outer loop
      vertex  0.000000e+000  2.000000e+001 -1.500000e+001
      vertex  3.444570e+000  1.714363e+001 -1.500000e+001
      vertex  4.222851e+000  1.617744e+001 -1.500000e+001
    endloop
  endfacet
  facet normal  -0.000000e+000  -0.000000e+000 -1.000000e+000
    outer loop
      vertex  0.000000e+000  2.000000e+001 -1.500000e+001
      vertex  4.222851e+000  1.617744e+001 -1.500000e+001
      vertex  4.543624e+000 -1.594457e+001 -1.500000e+001
    endloop
  endfacet
  facet normal  -0.000000e+000  0.000000e+000 -1.000000e+000
    outer loop
      vertex  0.000000e+000  2.000000e+001 -1.500000e+001
      vertex  4.543624e+000 -1.594457e+001 -1.500000e+001
      vertex  3.577439e+000 -1.672285e+001 -1.500000e+001
    endloop
  endfacet
  facet normal  -0.000000e+000  0.000000e+000 -1.000000e+000
    outer loop
      vertex  0.000000e+000  2.000000e+001 -1.500000e+001
      vertex  3.577439e+000 -1.672285e+001 -1.500000e+001
      vertex  3.444570e+000 -1.795638e+001 -1.500000e+001
    endloop
  endfacet
  facet normal  0.000000e+000  0.000000e+000 -1.000000e+000
    outer loop
      vertex  1.000000e+001 -2.000000e+001 -1.500000e+001
      vertex  5.456376e+000 -1.905543e+001 -1.500000e+001
      vertex  6.422561e+000 -1.827715e+001 -1.500000e+001
    endloop
  endfacet
  facet normal  0.000000e+000  0.000000e+000 -1.000000e+000
    outer loop
      vertex  1.000000e+001 -2.000000e+001 -1.500000e+001
      vertex  6.422561e+000 -1.827715e+001 -1.500000e+001
      vertex  6.555430e+000 -1.704362e+001 -1.500000e+001
    endloop
  endfacet
  facet normal  0.000000e+000  0.000000e+000 -1.000000e+000
    outer loop
      vertex  1.000000e+001 -2.000000e+001 -1.500000e+001
      vertex  6.555430e+000 -1.704362e+001 -1.500000e+001
      vertex  1.000000e+001  2.000000e+001 -1.500000e+001
    endloop
  endfacet
  facet normal  0.000000e+000  0.000000e+000 -9.999999e-001
    outer loop
      vertex  6.422561e+000  1.682285e+001 -1.500000e+001
      vertex  5.777149e+000 -1.607744e+001 -1.500000e+001
      vertex  5.456376e+000  1.604457e+001 -1.500000e+001
    endloop
  endfacet
  facet normal  0.000000e+000  -0.000000e+000 -1.000000e+000
    outer loop
      vertex  5.456376e+000  1.604457e+001 -1.500000e+001
      vertex  5.777149e+000 -1.607744e+001 -1.500000e+001
      vertex  4.543624e+000 -1.594457e+001 -1.500000e+001
    endloop
  endfacet
  facet normal  0.000000e+000  0.000000e+000 -1.000000e+000
    outer loop
      vertex  5.456376e+000  1.604457e+001 -1.500000e+001
      vertex  4.543624e+000 -1.594457e+001 -1.500000e+001
      vertex  4.222851e+000  1.617744e+001 -1.500000e+001
    endloop
  endfacet
  facet normal  0.000000e+000  0.000000e+000  1.000000e+000
    outer loop
      vertex  0.000000e+000 -2.000000e+001 -1.200000e+001
      vertex  1.000000e+001 -2.000000e+001 -1.200000e+001
      vertex  5.456376e+000 -1.905543e+001 -1.200000e+001
    endloop
  endfacet
  facet normal  0.000000e+000  0.000000e+000  9.999999e-001
    outer loop
      vertex  0.000000e+000 -2.000000e+001 -1.200000e+001
      vertex  5.456376e+000 -1.905543e+001 -1.200000e+001
      vertex  4.222851e+000 -1.892256e+001 -1.200000e+001
    endloop
  endfacet
  facet normal  0.000000e+000  0.000000e+000  1.000000e+000
    outer loop
      vertex  0.000000e+000 -2.000000e+001 -1.200000e+001
      vertex  4.222851e+000 -1.892256e+001 -1.200000e+001
      vertex  3.444570e+000 -1.795638e+001 -1.200000e+001
    endloop
  endfacet
  facet normal  0.000000e+000  -0.000000e+000  1.000000e+000
    outer loop
      vertex  0.000000e+000 -2.000000e+001 -1.200000e+001
      vertex  3.444570e+000 -1.795638e+001 -1.200000e+001
      vertex  3.577439e+000 -1.672285e+001 -1.200000e+001
    endloop
  endfacet
  facet normal  0.000000e+000  0.000000e+000  1.000000e+000
    outer loop
      vertex  0.000000e+000 -2.000000e+001 -1.200000e+001
      vertex  3.577439e+000 -1.672285e+001 -1.200000e+001
      vertex  0.000000e+000 -1.500000e+001 -1.200000e+001
    endloop
  endfacet
  facet normal  0.000000e+000  0.000000e+000  1.000000e+000
    outer loop
      vertex  1.000000e+001 -2.000000e+001 -1.200000e+001
      vertex  1.000000e+001 -1.500000e+001 -1.200000e+001
      vertex  5.777149e+000 -1.607744e+001 -1.200000e+001
    endloop
  endfacet
  facet normal  0.000000e+000  0.000000e+000  1.000000e+000
    outer loop
      vertex  1.000000e+001 -2.000000e+001 -1.200000e+001
      vertex  5.777149e+000 -1.607744e+001 -1.200000e+001
      vertex  6.555430e+000 -1.704362e+001 -1.200000e+001
    endloop
  endfacet
  facet normal  0.000000e+000  0.000000e+000  1.000000e+000
    outer loop
      vertex  1.000000e+001 -2.000000e+001 -1.200000e+001
      vertex  6.555430e+000 -1.704362e+001 -1.200000e+001
      vertex  6.422561e+000 -1.827715e+001 -1.200000e+001
    endloop
  endfacet
  facet normal  0.000000e+000  0.000000e+000  1.000000e+000
    outer loop
      vertex  1.000000e+001 -2.000000e+001 -1.200000e+001
      vertex  6.422561e+000 -1.827715e+001 -1.200000e+001
      vertex  5.456376e+000 -1.905543e+001 -1.200000e+001
    endloop
  endfacet
  facet normal  0.000000e+000  0.000000e+000  1.000000e+000
    outer loop
      vertex  3.577439e+000 -1.672285e+001 -1.200000e+001
      vertex  4.543624e+000 -1.594457e+001 -1.200000e+001
      vertex  0.000000e+000 -1.500000e+001 -1.200000e+001
    endloop
  endfacet
  facet normal  0.000000e+000  0.000000e+000  1.000000e+000
    outer loop
      vertex  0.000000e+000 -1.500000e+001 -1.200000e+001
      vertex  4.543624e+000 -1.594457e+001 -1.200000e+001
      vertex  5.777149e+000 -1.607744e+001 -1.200000e+001
    endloop
  endfacet
  facet normal  0.000000e+000  -0.000000e+000  1.000000e+000
    outer loop
      vertex  0.000000e+000 -1.500000e+001 -1.200000e+001
      vertex  5.777149e+000 -1.607744e+001 -1.200000e+001
      vertex  1.000000e+001 -1.500000e+001 -1.200000e+001
    endloop
  endfacet
  facet normal  7.787680e-001  6.273121e-001  -0.000000e+000
    outer loop
      vertex  4.222851e+000 -1.892256e+001 -1.200000e+001
      vertex  3.444570e+000 -1.795638e+001 -1.500000e+001
      vertex  3.444570e+000 -1.795638e+001 -1.200000e+001
    endloop
  endfacet
  facet normal  9.942488e-001 -1.070951e-001  0.000000e+000
    outer loop
      vertex  3.444570e+000 -1.795638e+001 -1.200000e+001
      vertex  3.444570e+000 -1.795638e+001 -1.500000e+001
      vertex  3.577439e+000 -1.672285e+001 -1.500000e+001
    endloop
  endfacet
  facet normal  9.942488e-001 -1.070951e-001  0.000000e+000
    outer loop
      vertex  3.444570e+000 -1.795638e+001 -1.200000e+001
      vertex  3.577439e+000 -1.672285e+001 -1.500000e+001
      vertex  3.577439e+000 -1.672285e+001 -1.200000e+001
    endloop
  endfacet
  facet normal  7.787680e-001  6.273121e-001  0.000000e+000
    outer loop
      vertex  3.444570e+000 -1.795638e+001 -1.500000e+001
      vertex  4.222851e+000 -1.892256e+001 -1.200000e+001
      vertex  4.222851e+000 -1.892256e+001 -1.500000e+001
    endloop
  endfacet
  facet normal  1.070945e-001  9.942488e-001  -0.000000e+000
    outer loop
      vertex  4.222851e+000 -1.892256e+001 -1.500000e+001
      vertex  4.222851e+000 -1.892256e+001 -1.200000e+001
      vertex  5.456376e+000 -1.905543e+001 -1.200000e+001
    endloop
  endfacet
  facet normal  1.070945e-001  9.942488e-001  0.000000e+000
    outer loop
      vertex  4.222851e+000 -1.892256e+001 -1.500000e+001
      vertex  5.456376e+000 -1.905543e+001 -1.200000e+001
      vertex  5.456376e+000 -1.905543e+001 -1.500000e+001
    endloop
  endfacet
  facet normal -6.273119e-001  7.787680e-001  0.000000e+000
    outer loop
      vertex  5.456376e+000 -1.905543e+001 -1.500000e+001
      vertex  5.456376e+000 -1.905543e+001 -1.200000e+001
      vertex  6.422561e+000 -1.827715e+001 -1.200000e+001
    endloop
  endfacet
  facet normal -6.273119e-001  7.787680e-001  0.000000e+000
    outer loop
      vertex  5.456376e+000 -1.905543e+001 -1.500000e+001
      vertex  6.422561e+000 -1.827715e+001 -1.200000e+001
      vertex  6.422561e+000 -1.827715e+001 -1.500000e+001
    endloop
  endfacet
  facet normal -7.787680e-001 -6.273121e-001  0.000000e+000
    outer loop
      vertex  5.777149e+000 -1.607744e+001 -1.200000e+001
      vertex  6.555430e+000 -1.704362e+001 -1.500000e+001
      vertex  6.555430e+000 -1.704362e+001 -1.200000e+001
    endloop
  endfacet
  facet normal -9.942488e-001  1.070953e-001  0.000000e+000
    outer loop
      vertex  6.555430e+000 -1.704362e+001 -1.200000e+001
      vertex  6.555430e+000 -1.704362e+001 -1.500000e+001
      vertex  6.422561e+000 -1.827715e+001 -1.500000e+001
    endloop
  endfacet
  facet normal -9.942488e-001  1.070953e-001  0.000000e+000
    outer loop
      vertex  6.555430e+000 -1.704362e+001 -1.200000e+001
      vertex  6.422561e+000 -1.827715e+001 -1.500000e+001
      vertex  6.422561e+000 -1.827715e+001 -1.200000e+001
    endloop
  endfacet
  facet normal -7.787680e-001 -6.273121e-001  -0.000000e+000
    outer loop
      vertex  6.555430e+000 -1.704362e+001 -1.500000e+001
      vertex  5.777149e+000 -1.607744e+001 -1.200000e+001
      vertex  5.777149e+000 -1.607744e+001 -1.500000e+001
    endloop
  endfacet
  facet normal -1.070953e-001 -9.942488e-001  0.000000e+000
    outer loop
      vertex  5.777149e+000 -1.607744e+001 -1.500000e+001
      vertex  5.777149e+000 -1.607744e+001 -1.200000e+001
      vertex  4.543624e+000 -1.594457e+001 -1.200000e+001
    endloop
  endfacet
  facet normal -1.070953e-001 -9.942488e-001  -0.000000e+000
    outer loop
      vertex  5.777149e+000 -1.607744e+001 -1.500000e+001
      vertex  4.543624e+000 -1.594457e+001 -1.200000e+001
      vertex  4.543624e+000 -1.594457e+001 -1.500000e+001
    endloop
  endfacet
  facet normal  6.273124e-001 -7.787678e-001  0.000000e+000
    outer loop
      vertex  4.543624e+000 -1.594457e+001 -1.500000e+001
      vertex  4.543624e+000 -1.594457e+001 -1.200000e+001
      vertex  3.577439e+000 -1.672285e+001 -1.200000e+001
    endloop
  endfacet
  facet normal  6.273124e-001 -7.787678e-001  0.000000e+000
    outer loop
      vertex  4.543624e+000 -1.594457e+001 -1.500000e+001
      vertex  3.577439e+000 -1.672285e+001 -1.200000e+001
      vertex  3.577439e+000 -1.672285e+001 -1.500000e+001
    endloop
  endfacet
  facet normal  0.000000e+000  0.000000e+000  1.000000e+000
    outer loop
      vertex  0.000000e+000  1.500000e+001 -1.200000e+001
      vertex  1.000000e+001  1.500000e+001 -1.200000e+001
      vertex  5.456376e+000  1.604457e+001 -1.200000e+001
    endloop
  endfacet
  facet normal  0.000000e+000  0.000000e+000  1.000000e+000
    outer loop
      vertex  0.000000e+000  1.500000e+001 -1.200000e+001
      vertex  5.456376e+000  1.604457e+001 -1.200000e+001
      vertex  4.222851e+000  1.617744e+001 -1.200000e+001
    endloop
  endfacet
  facet normal  0.000000e+000  0.000000e+000  1.000000e+000
    outer loop
      vertex  0.000000e+000  1.500000e+001 -1.200000e+001
      vertex  4.222851e+000  1.617744e+001 -1.200000e+001
      vertex  3.444570e+000  1.714363e+001 -1.200000e+001
    endloop
  endfacet
  facet normal  0.000000e+000  -0.000000e+000  1.000000e+000
    outer loop
      vertex  0.000000e+000  1.500000e+001 -1.200000e+001
      vertex  3.444570e+000  1.714363e+001 -1.200000e+001
      vertex  3.577439e+000  1.837715e+001 -1.200000e+001
    endloop
  endfacet
  facet normal  0.000000e+000  0.000000e+000  1.000000e+000
    outer loop
      vertex  0.000000e+000  1.500000e+001 -1.200000e+001
      vertex  3.577439e+000  1.837715e+001 -1.200000e+001
      vertex  0.000000e+000  2.000000e+001 -1.200000e+001
    endloop
  endfacet
  facet normal  0.000000e+000  0.000000e+000  1.000000e+000
    outer loop
      vertex  1.000000e+001  1.500000e+001 -1.200000e+001
      vertex  1.000000e+001  2.000000e+001 -1.200000e+001
      vertex  5.777149e+000  1.902256e+001 -1.200000e+001
    endloop
  endfacet
  facet normal  0.000000e+000  0.000000e+000  1.000000e+000
    outer loop
      vertex  1.000000e+001  1.500000e+001 -1.200000e+001
      vertex  5.777149e+000  1.902256e+001 -1.200000e+001
      vertex  6.555430e+000  1.805638e+001 -1.200000e+001
    endloop
  endfacet
  facet normal  0.000000e+000  0.000000e+000  1.000000e+000
    outer loop
      vertex  1.000000e+001  1.500000e+001 -1.200000e+001
      vertex  6.555430e+000  1.805638e+001 -1.200000e+001
      vertex  6.422561e+000  1.682285e+001 -1.200000e+001
    endloop
  endfacet
  facet normal  0.000000e+000  0.000000e+000  1.000000e+000
    outer loop
      vertex  1.000000e+001  1.500000e+001 -1.200000e+001
      vertex  6.422561e+000  1.682285e+001 -1.200000e+001
      vertex  5.456376e+000  1.604457e+001 -1.200000e+001
    endloop
  endfacet
  facet normal  0.000000e+000  0.000000e+000  1.000000e+000
    outer loop
      vertex  3.577439e+000  1.837715e+001 -1.200000e+001
      vertex  4.543624e+000  1.915543e+001 -1.200000e+001
      vertex  0.000000e+000  2.000000e+001 -1.200000e+001
    endloop
  endfacet
  facet normal  0.000000e+000  0.000000e+000  1.000000e+000
    outer loop
      vertex  0.000000e+000  2.000000e+001 -1.200000e+001
      vertex  4.543624e+000  1.915543e+001 -1.200000e+001
      vertex  5.777149e+000  1.902256e+001 -1.200000e+001
    endloop
  endfacet
  facet normal  0.000000e+000  -0.000000e+000  1.000000e+000
    outer loop
      vertex  0.000000e+000  2.000000e+001 -1.200000e+001
      vertex  5.777149e+000  1.902256e+001 -1.200000e+001
      vertex  1.000000e+001  2.000000e+001 -1.200000e+001
    endloop
  endfacet
  facet normal  7.787680e-001  6.273121e-001  -0.000000e+000
    outer loop
      vertex  4.222851e+000  1.617744e+001 -1.200000e+001
      vertex  3.444570e+000  1.714363e+001 -1.500000e+001
      vertex  3.444570e+000  1.714363e+001 -1.200000e+001
    endloop
  endfacet
  facet normal  9.942488e-001 -1.070951e-001  0.000000e+000
    outer loop
      vertex  3.444570e+000  1.714363e+001 -1.200000e+001
      vertex  3.444570e+000  1.714363e+001 -1.500000e+001
      vertex  3.577439e+000  1.837715e+001 -1.500000e+001
    endloop
  endfacet
  facet normal  9.942488e-001 -1.070951e-001  0.000000e+000
    outer loop
      vertex  3.444570e+000  1.714363e+001 -1.200000e+001
      vertex  3.577439e+000  1.837715e+001 -1.500000e+001
      vertex  3.577439e+000  1.837715e+001 -1.200000e+001
    endloop
  endfacet
  facet normal  7.787680e-001  6.273121e-001  0.000000e+000
    outer loop
      vertex  3.444570e+000  1.714363e+001 -1.500000e+001
      vertex  4.222851e+000  1.617744e+001 -1.200000e+001
      vertex  4.222851e+000  1.617744e+001 -1.500000e+001
    endloop
  endfacet
  facet normal  1.070945e-001  9.942488e-001  -0.000000e+000
    outer loop
      vertex  4.222851e+000  1.617744e+001 -1.500000e+001
      vertex  4.222851e+000  1.617744e+001 -1.200000e+001
      vertex  5.456376e+000  1.604457e+001 -1.200000e+001
    endloop
  endfacet
  facet normal  1.070945e-001  9.942488e-001  0.000000e+000
    outer loop
      vertex  4.222851e+000  1.617744e+001 -1.500000e+001
      vertex  5.456376e+000  1.604457e+001 -1.200000e+001
      vertex  5.456376e+000  1.604457e+001 -1.500000e+001
    endloop
  endfacet
  facet normal -6.273119e-001  7.787680e-001  0.000000e+000
    outer loop
      vertex  5.456376e+000  1.604457e+001 -1.500000e+001
      vertex  5.456376e+000  1.604457e+001 -1.200000e+001
      vertex  6.422561e+000  1.682285e+001 -1.200000e+001
    endloop
  endfacet
  facet normal -6.273119e-001  7.787680e-001  0.000000e+000
    outer loop
      vertex  5.456376e+000  1.604457e+001 -1.500000e+001
      vertex  6.422561e+000  1.682285e+001 -1.200000e+001
      vertex  6.422561e+000  1.682285e+001 -1.500000e+001
    endloop
  endfacet
  facet normal -7.787680e-001 -6.273121e-001  0.000000e+000
    outer loop
      vertex  5.777149e+000  1.902256e+001 -1.200000e+001
      vertex  6.555430e+000  1.805638e+001 -1.500000e+001
      vertex  6.555430e+000  1.805638e+001 -1.200000e+001
    endloop
  endfacet
  facet normal -9.942488e-001  1.070953e-001  0.000000e+000
    outer loop
      vertex  6.555430e+000  1.805638e+001 -1.200000e+001
      vertex  6.555430e+000  1.805638e+001 -1.500000e+001
      vertex  6.422561e+000  1.682285e+001 -1.500000e+001
    endloop
  endfacet
  facet normal -9.942488e-001  1.070953e-001  0.000000e+000
    outer loop
      vertex  6.555430e+000  1.805638e+001 -1.200000e+001
      vertex  6.422561e+000  1.682285e+001 -1.500000e+001
      vertex  6.422561e+000  1.682285e+001 -1.200000e+001
    endloop
  endfacet
  facet normal -7.787680e-001 -6.273121e-001  -0.000000e+000
    outer loop
      vertex  6.555430e+000  1.805638e+001 -1.500000e+001
      vertex  5.777149e+000  1.902256e+001 -1.200000e+001
      vertex  5.777149e+000  1.902256e+001 -1.500000e+001
    endloop
  endfacet
  facet normal -1.070945e-001 -9.942488e-001  0.000000e+000
    outer loop
      vertex  5.777149e+000  1.902256e+001 -1.500000e+001
      vertex  5.777149e+000  1.902256e+001 -1.200000e+001
      vertex  4.543624e+000  1.915543e+001 -1.200000e+001
    endloop
  endfacet
  facet normal -1.070945e-001 -9.942488e-001  -0.000000e+000
    outer loop
      vertex  5.777149e+000  1.902256e+001 -1.500000e+001
      vertex  4.543624e+000  1.915543e+001 -1.200000e+001
      vertex  4.543624e+000  1.915543e+001 -1.500000e+001
    endloop
  endfacet
  facet normal  6.273119e-001 -7.787681e-001  0.000000e+000
    outer loop
      vertex  4.543624e+000  1.915543e+001 -1.500000e+001
      vertex  4.543624e+000  1.915543e+001 -1.200000e+001
      vertex  3.577439e+000  1.837715e+001 -1.200000e+001
    endloop
  endfacet
  facet normal  6.273119e-001 -7.787681e-001  0.000000e+000
    outer loop
      vertex  4.543624e+000  1.915543e+001 -1.500000e+001
      vertex  3.577439e+000  1.837715e+001 -1.200000e+001
      vertex  3.577439e+000  1.837715e+001 -1.500000e+001
    endloop
  endfacet
  facet normal -1.000000e+000  0.000000e+000  -0.000000e+000
    outer loop
      vertex  0.000000e+000 -1.953542e+000  1.107909e+001
      vertex  0.000000e+000  4.249154e-015  1.500000e+001
      vertex  0.000000e+000  1.953542e+000  1.107909e+001
    endloop
  endfacet
  facet normal -1.000000e+000  0.000000e+000  0.000000e+000
    outer loop
      vertex  0.000000e+000 -2.000000e+001 -1.500000e+001
      vertex  0.000000e+000 -2.000000e+001 -1.200000e+001
      vertex  0.000000e+000 -1.500000e+001 -1.200000e+001
    endloop
  endfacet
  facet normal -1.000000e+000  0.000000e+000  -0.000000e+000
    outer loop
      vertex  0.000000e+000 -2.000000e+001 -1.500000e+001
      vertex  0.000000e+000 -1.500000e+001 -1.200000e+001
      vertex  0.000000e+000 -1.953542e+000 -1.107909e+001
    endloop
  endfacet
  facet normal -1.000000e+000  0.000000e+000  -0.000000e+000
    outer loop
      vertex  0.000000e+000 -2.000000e+001 -1.500000e+001
      vertex  0.000000e+000 -1.953542e+000 -1.107909e+001
      vertex  0.000000e+000  1.953542e+000 -1.107909e+001
    endloop
  endfacet
  facet normal -1.000000e+000  0.000000e+000  -0.000000e+000
    outer loop
      vertex  0.000000e+000 -2.000000e+001 -1.500000e+001
      vertex  0.000000e+000  1.953542e+000 -1.107909e+001
      vertex  0.000000e+000  1.500000e+001 -1.200000e+001
    endloop
  endfacet
  facet normal -1.000000e+000  0.000000e+000  -0.000000e+000
    outer loop
      vertex  0.000000e+000 -2.000000e+001 -1.500000e+001
      vertex  0.000000e+000  1.500000e+001 -1.200000e+001
      vertex  0.000000e+000  2.000000e+001 -1.200000e+001
    endloop
  endfacet
  facet normal -1.000000e+000  0.000000e+000  -0.000000e+000
    outer loop
      vertex  0.000000e+000 -2.000000e+001 -1.500000e+001
      vertex  0.000000e+000  2.000000e+001 -1.200000e+001
      vertex  0.000000e+000  2.000000e+001 -1.500000e+001
    endloop
  endfacet
  facet normal -1.000000e+000  0.000000e+000  0.000000e+000
    outer loop
      vertex  0.000000e+000 -1.500000e+001 -1.200000e+001
      vertex  0.000000e+000 -1.500000e+001  8.498309e-015
      vertex  0.000000e+000 -1.125000e+001  1.377728e-015
    endloop
  endfacet
  facet normal -1.000000e+000  0.000000e+000  -0.000000e+000
    outer loop
      vertex  0.000000e+000 -1.500000e+001 -1.200000e+001
      vertex  0.000000e+000 -1.125000e+001  1.377728e-015
      vertex  0.000000e+000 -1.057154e+001 -3.847727e+000
    endloop
  endfacet
  facet normal -9.999999e-001  0.000000e+000  -0.000000e+000
    outer loop
      vertex  0.000000e+000 -1.500000e+001 -1.200000e+001
      vertex  0.000000e+000 -1.057154e+001 -3.847727e+000
      vertex  0.000000e+000 -8.618000e+000 -7.231360e+000
    endloop
  endfacet
  facet normal -9.999999e-001  0.000000e+000  -0.000000e+000
    outer loop
      vertex  0.000000e+000 -1.500000e+001 -1.200000e+001
      vertex  0.000000e+000 -8.618000e+000 -7.231360e+000
      vertex  0.000000e+000 -5.625000e+000 -9.742785e+000
    endloop
  endfacet
  facet normal -1.000000e+000  0.000000e+000  -0.000000e+000
    outer loop
      vertex  0.000000e+000 -1.500000e+001 -1.200000e+001
      vertex  0.000000e+000 -5.625000e+000 -9.742785e+000
      vertex  0.000000e+000 -1.953542e+000 -1.107909e+001
    endloop
  endfacet
  facet normal -1.000000e+000  0.000000e+000  0.000000e+000
    outer loop
      vertex  0.000000e+000  1.500000e+001 -1.200000e+001
      vertex  0.000000e+000  1.953542e+000 -1.107909e+001
      vertex  0.000000e+000  5.625000e+000 -9.742785e+000
    endloop
  endfacet
  facet normal -9.999999e-001  0.000000e+000  0.000000e+000
    outer loop
      vertex  0.000000e+000  1.500000e+001 -1.200000e+001
      vertex  0.000000e+000  5.625000e+000 -9.742785e+000
      vertex  0.000000e+000  8.618000e+000 -7.231360e+000
    endloop
  endfacet
  facet normal -9.999999e-001  0.000000e+000  0.000000e+000
    outer loop
      vertex  0.000000e+000  1.500000e+001 -1.200000e+001
      vertex  0.000000e+000  8.618000e+000 -7.231360e+000
      vertex  0.000000e+000  1.057154e+001 -3.847727e+000
    endloop
  endfacet
  facet normal -1.000000e+000  0.000000e+000  0.000000e+000
    outer loop
      vertex  0.000000e+000  1.500000e+001 -1.200000e+001
      vertex  0.000000e+000  1.057154e+001 -3.847727e+000
      vertex  0.000000e+000  1.125000e+001  0.000000e+000
    endloop
  endfacet
  facet normal -1.000000e+000  0.000000e+000  0.000000e+000
    outer loop
      vertex  0.000000e+000  1.500000e+001 -1.200000e+001
      vertex  0.000000e+000  1.125000e+001  0.000000e+000
      vertex  0.000000e+000  1.500000e+001  0.000000e+000
    endloop
  endfacet
  facet normal -1.000000e+000  0.000000e+000  0.000000e+000
    outer loop
      vertex  0.000000e+000 -1.057154e+001  3.847727e+000
      vertex  0.000000e+000 -1.426585e+001  4.635255e+000
      vertex  0.000000e+000 -8.618000e+000  7.231360e+000
    endloop
  endfacet
  facet normal -1.000000e+000  -0.000000e+000  0.000000e+000
    outer loop
      vertex  0.000000e+000 -8.618000e+000  7.231360e+000
      vertex  0.000000e+000 -1.426585e+001  4.635255e+000
      vertex  0.000000e+000 -1.213525e+001  8.816779e+000
    endloop
  endfacet
  facet normal -1.000000e+000  0.000000e+000  0.000000e+000
    outer loop
      vertex  0.000000e+000 -8.618000e+000  7.231360e+000
      vertex  0.000000e+000 -1.213525e+001  8.816779e+000
      vertex  0.000000e+000 -5.625000e+000  9.742785e+000
    endloop
  endfacet
  facet normal -1.000000e+000  -0.000000e+000  0.000000e+000
    outer loop
      vertex  0.000000e+000 -5.625000e+000  9.742785e+000
      vertex  0.000000e+000 -1.213525e+001  8.816779e+000
      vertex  0.000000e+000 -8.816779e+000  1.213525e+001
    endloop
  endfacet
  facet normal -1.000000e+000  0.000000e+000  0.000000e+000
    outer loop
      vertex  0.000000e+000 -5.625000e+000  9.742785e+000
      vertex  0.000000e+000 -8.816779e+000  1.213525e+001
      vertex  0.000000e+000 -1.953542e+000  1.107909e+001
    endloop
  endfacet
  facet normal -9.999999e-001  0.000000e+000  0.000000e+000
    outer loop
      vertex  0.000000e+000 -1.953542e+000  1.107909e+001
      vertex  0.000000e+000 -8.816779e+000  1.213525e+001
      vertex  0.000000e+000 -4.635255e+000  1.426585e+001
    endloop
  endfacet
  facet normal -1.000000e+000  0.000000e+000  0.000000e+000
    outer loop
      vertex  0.000000e+000 -1.953542e+000  1.107909e+001
      vertex  0.000000e+000 -4.635255e+000  1.426585e+001
      vertex  0.000000e+000  4.249154e-015  1.500000e+001
    endloop
  endfacet
  facet normal -1.000000e+000  0.000000e+000  0.000000e+000
    outer loop
      vertex  0.000000e+000  1.057154e+001  3.847727e+000
      vertex  0.000000e+000  8.618000e+000  7.231360e+000
      vertex  0.000000e+000  1.426585e+001  4.635255e+000
    endloop
  endfacet
  facet normal -1.000000e+000  0.000000e+000  0.000000e+000
    outer loop
      vertex  0.000000e+000  1.426585e+001  4.635255e+000
      vertex  0.000000e+000  8.618000e+000  7.231360e+000
      vertex  0.000000e+000  5.625000e+000  9.742785e+000
    endloop
  endfacet
  facet normal -9.999999e-001  0.000000e+000  0.000000e+000
    outer loop
      vertex  0.000000e+000  1.426585e+001  4.635255e+000
      vertex  0.000000e+000  5.625000e+000  9.742785e+000
      vertex  0.000000e+000  1.213525e+001  8.816779e+000
    endloop
  endfacet
  facet normal -1.000000e+000  0.000000e+000  0.000000e+000
    outer loop
      vertex  0.000000e+000  1.213525e+001  8.816779e+000
      vertex  0.000000e+000  5.625000e+000  9.742785e+000
      vertex  0.000000e+000  1.953542e+000  1.107909e+001
    endloop
  endfacet
  facet normal -1.000000e+000  0.000000e+000  0.000000e+000
    outer loop
      vertex  0.000000e+000  1.213525e+001  8.816779e+000
      vertex  0.000000e+000  1.953542e+000  1.107909e+001
      vertex  0.000000e+000  8.816779e+000  1.213525e+001
    endloop
  endfacet
  facet normal -1.000000e+000  -0.000000e+000  0.000000e+000
    outer loop
      vertex  0.000000e+000  8.816779e+000  1.213525e+001
      vertex  0.000000e+000  1.953542e+000  1.107909e+001
      vertex  0.000000e+000  4.249154e-015  1.500000e+001
    endloop
  endfacet
  facet normal -1.000000e+000  0.000000e+000  0.000000e+000
    outer loop
      vertex  0.000000e+000  8.816779e+000  1.213525e+001
      vertex  0.000000e+000  4.249154e-015  1.500000e+001
      vertex  0.000000e+000  4.635255e+000  1.426585e+001
    endloop
  endfacet
  facet normal -1.000000e+000  0.000000e+000  -0.000000e+000
    outer loop
      vertex  0.000000e+000 -1.500000e+001  8.498309e-015
      vertex  0.000000e+000 -1.426585e+001  4.635255e+000
      vertex  0.000000e+000 -1.125000e+001  1.377728e-015
    endloop
  endfacet
  facet normal -9.999999e-001  0.000000e+000  0.000000e+000
    outer loop
      vertex  0.000000e+000 -1.125000e+001  1.377728e-015
      vertex  0.000000e+000 -1.426585e+001  4.635255e+000
      vertex  0.000000e+000 -1.057154e+001  3.847727e+000
    endloop
  endfacet
  facet normal -9.999999e-001  0.000000e+000  0.000000e+000
    outer loop
      vertex  0.000000e+000  1.057154e+001  3.847727e+000
      vertex  0.000000e+000  1.426585e+001  4.635255e+000
      vertex  0.000000e+000  1.125000e+001  0.000000e+000
    endloop
  endfacet
  facet normal -1.000000e+000  0.000000e+000  0.000000e+000
    outer loop
      vertex  0.000000e+000  1.125000e+001  0.000000e+000
      vertex  0.000000e+000  1.426585e+001  4.635255e+000
      vertex  0.000000e+000  1.500000e+001  0.000000e+000
    endloop
  endfacet
  facet normal  1.000000e+000  0.000000e+000  0.000000e+000
    outer loop
      vertex  1.000000e+001  1.953542e+000  1.107909e+001
      vertex  1.000000e+001  4.249154e-015  1.500000e+001
      vertex  1.000000e+001 -1.953542e+000  1.107909e+001
    endloop
  endfacet
  facet normal  1.000000e+000  0.000000e+000  -0.000000e+000
    outer loop
      vertex  1.000000e+001 -2.000000e+001 -1.500000e+001
      vertex  1.000000e+001  2.000000e+001 -1.500000e+001
      vertex  1.000000e+001  2.000000e+001 -1.200000e+001
    endloop
  endfacet
  facet normal  1.000000e+000  0.000000e+000  0.000000e+000
    outer loop
      vertex  1.000000e+001 -2.000000e+001 -1.500000e+001
      vertex  1.000000e+001  2.000000e+001 -1.200000e+001
      vertex  1.000000e+001  1.500000e+001 -1.200000e+001
    endloop
  endfacet
  facet normal  1.000000e+000  0.000000e+000  0.000000e+000
    outer loop
      vertex  1.000000e+001 -2.000000e+001 -1.500000e+001
      vertex  1.000000e+001  1.500000e+001 -1.200000e+001
      vertex  1.000000e+001  1.953542e+000 -1.107909e+001
    endloop
  endfacet
  facet normal  1.000000e+000  0.000000e+000  0.000000e+000
    outer loop
      vertex  1.000000e+001 -2.000000e+001 -1.500000e+001
      vertex  1.000000e+001  1.953542e+000 -1.107909e+001
      vertex  1.000000e+001 -1.953542e+000 -1.107909e+001
    endloop
  endfacet
  facet normal  1.000000e+000  0.000000e+000  0.000000e+000
    outer loop
      vertex  1.000000e+001 -2.000000e+001 -1.500000e+001
      vertex  1.000000e+001 -1.953542e+000 -1.107909e+001
      vertex  1.000000e+001 -1.500000e+001 -1.200000e+001
    endloop
  endfacet
  facet normal  1.000000e+000  0.000000e+000  0.000000e+000
    outer loop
      vertex  1.000000e+001 -2.000000e+001 -1.500000e+001
      vertex  1.000000e+001 -1.500000e+001 -1.200000e+001
      vertex  1.000000e+001 -2.000000e+001 -1.200000e+001
    endloop
  endfacet
  facet normal  1.000000e+000  0.000000e+000  0.000000e+000
    outer loop
      vertex  1.000000e+001 -1.500000e+001 -1.200000e+001
      vertex  1.000000e+001 -1.953542e+000 -1.107909e+001
      vertex  1.000000e+001 -5.625000e+000 -9.742785e+000
    endloop
  endfacet
  facet normal  9.999999e-001  0.000000e+000  0.000000e+000
    outer loop
      vertex  1.000000e+001 -1.500000e+001 -1.200000e+001
      vertex  1.000000e+001 -5.625000e+000 -9.742785e+000
      vertex  1.000000e+001 -8.618000e+000 -7.231360e+000
    endloop
  endfacet
  facet normal  9.999999e-001  0.000000e+000  0.000000e+000
    outer loop
      vertex  1.000000e+001 -1.500000e+001 -1.200000e+001
      vertex  1.000000e+001 -8.618000e+000 -7.231360e+000
      vertex  1.000000e+001 -1.057154e+001 -3.847727e+000
    endloop
  endfacet
  facet normal  1.000000e+000  0.000000e+000  0.000000e+000
    outer loop
      vertex  1.000000e+001 -1.500000e+001 -1.200000e+001
      vertex  1.000000e+001 -1.057154e+001 -3.847727e+000
      vertex  1.000000e+001 -1.125000e+001  1.377728e-015
    endloop
  endfacet
  facet normal  1.000000e+000  0.000000e+000  0.000000e+000
    outer loop
      vertex  1.000000e+001 -1.500000e+001 -1.200000e+001
      vertex  1.000000e+001 -1.125000e+001  1.377728e-015
      vertex  1.000000e+001 -1.500000e+001  8.498309e-015
    endloop
  endfacet
  facet normal  1.000000e+000  0.000000e+000  0.000000e+000
    outer loop
      vertex  1.000000e+001  1.500000e+001 -1.200000e+001
      vertex  1.000000e+001  1.500000e+001  0.000000e+000
      vertex  1.000000e+001  1.125000e+001  0.000000e+000
    endloop
  endfacet
  facet normal  1.000000e+000  0.000000e+000  0.000000e+000
    outer loop
      vertex  1.000000e+001  1.500000e+001 -1.200000e+001
      vertex  1.000000e+001  1.125000e+001  0.000000e+000
      vertex  1.000000e+001  1.057154e+001 -3.847727e+000
    endloop
  endfacet
  facet normal  9.999999e-001  0.000000e+000  0.000000e+000
    outer loop
      vertex  1.000000e+001  1.500000e+001 -1.200000e+001
      vertex  1.000000e+001  1.057154e+001 -3.847727e+000
      vertex  1.000000e+001  8.618000e+000 -7.231360e+000
    endloop
  endfacet
  facet normal  9.999999e-001  0.000000e+000  0.000000e+000
    outer loop
      vertex  1.000000e+001  1.500000e+001 -1.200000e+001
      vertex  1.000000e+001  8.618000e+000 -7.231360e+000
      vertex  1.000000e+001  5.625000e+000 -9.742785e+000
    endloop
  endfacet
  facet normal  1.000000e+000  0.000000e+000  0.000000e+000
    outer loop
      vertex  1.000000e+001  1.500000e+001 -1.200000e+001
      vertex  1.000000e+001  5.625000e+000 -9.742785e+000
      vertex  1.000000e+001  1.953542e+000 -1.107909e+001
    endloop
  endfacet
  facet normal  1.000000e+000  -0.000000e+000  0.000000e+000
    outer loop
      vertex  1.000000e+001  4.249154e-015  1.500000e+001
      vertex  1.000000e+001 -4.635255e+000  1.426585e+001
      vertex  1.000000e+001 -1.953542e+000  1.107909e+001
    endloop
  endfacet
  facet normal  9.999999e-001  0.000000e+000  0.000000e+000
    outer loop
      vertex  1.000000e+001 -1.953542e+000  1.107909e+001
      vertex  1.000000e+001 -4.635255e+000  1.426585e+001
      vertex  1.000000e+001 -8.816779e+000  1.213525e+001
    endloop
  endfacet
  facet normal  1.000000e+000  0.000000e+000  0.000000e+000
    outer loop
      vertex  1.000000e+001 -1.953542e+000  1.107909e+001
      vertex  1.000000e+001 -8.816779e+000  1.213525e+001
      vertex  1.000000e+001 -5.625000e+000  9.742785e+000
    endloop
  endfacet
  facet normal  1.000000e+000  0.000000e+000  0.000000e+000
    outer loop
      vertex  1.000000e+001 -5.625000e+000  9.742785e+000
      vertex  1.000000e+001 -8.816779e+000  1.213525e+001
      vertex  1.000000e+001 -1.213525e+001  8.816779e+000
    endloop
  endfacet
  facet normal  1.000000e+000  -0.000000e+000  0.000000e+000
    outer loop
      vertex  1.000000e+001 -5.625000e+000  9.742785e+000
      vertex  1.000000e+001 -1.213525e+001  8.816779e+000
      vertex  1.000000e+001 -8.618000e+000  7.231360e+000
    endloop
  endfacet
  facet normal  1.000000e+000  0.000000e+000  0.000000e+000
    outer loop
      vertex  1.000000e+001 -8.618000e+000  7.231360e+000
      vertex  1.000000e+001 -1.213525e+001  8.816779e+000
      vertex  1.000000e+001 -1.426585e+001  4.635255e+000
    endloop
  endfacet
  facet normal  1.000000e+000  -0.000000e+000  0.000000e+000
    outer loop
      vertex  1.000000e+001 -8.618000e+000  7.231360e+000
      vertex  1.000000e+001 -1.426585e+001  4.635255e+000
      vertex  1.000000e+001 -1.057154e+001  3.847727e+000
    endloop
  endfacet
  facet normal  1.000000e+000  0.000000e+000  0.000000e+000
    outer loop
      vertex  1.000000e+001  4.635255e+000  1.426585e+001
      vertex  1.000000e+001  4.249154e-015  1.500000e+001
      vertex  1.000000e+001  8.816779e+000  1.213525e+001
    endloop
  endfacet
  facet normal  1.000000e+000  0.000000e+000  0.000000e+000
    outer loop
      vertex  1.000000e+001  8.816779e+000  1.213525e+001
      vertex  1.000000e+001  4.249154e-015  1.500000e+001
      vertex  1.000000e+001  1.953542e+000  1.107909e+001
    endloop
  endfacet
  facet normal  1.000000e+000  -0.000000e+000  0.000000e+000
    outer loop
      vertex  1.000000e+001  8.816779e+000  1.213525e+001
      vertex  1.000000e+001  1.953542e+000  1.107909e+001
      vertex  1.000000e+001  1.213525e+001  8.816779e+000
    endloop
  endfacet
  facet normal  1.000000e+000  0.000000e+000  0.000000e+000
    outer loop
      vertex  1.000000e+001  1.213525e+001  8.816779e+000
      vertex  1.000000e+001  1.953542e+000  1.107909e+001
      vertex  1.000000e+001  5.625000e+000  9.742785e+000
    endloop
  endfacet
  facet normal  9.999999e-001  0.000000e+000  0.000000e+000
    outer loop
      vertex  1.000000e+001  1.213525e+001  8.816779e+000
      vertex  1.000000e+001  5.625000e+000  9.742785e+000
      vertex  1.000000e+001  1.426585e+001  4.635255e+000
    endloop
  endfacet
  facet normal  1.000000e+000  0.000000e+000  0.000000e+000
    outer loop
      vertex  1.000000e+001  1.426585e+001  4.635255e+000
      vertex  1.000000e+001  5.625000e+000  9.742785e+000
      vertex  1.000000e+001  8.618000e+000  7.231360e+000
    endloop
  endfacet
  facet normal  1.000000e+000  0.000000e+000  0.000000e+000
    outer loop
      vertex  1.000000e+001  1.426585e+001  4.635255e+000
      vertex  1.000000e+001  8.618000e+000  7.231360e+000
      vertex  1.000000e+001  1.057154e+001  3.847727e+000
    endloop
  endfacet
  facet normal  1.000000e+000  0.000000e+000  0.000000e+000
    outer loop
      vertex  1.000000e+001 -1.500000e+001  8.498309e-015
      vertex  1.000000e+001 -1.125000e+001  1.377728e-015
      vertex  1.000000e+001 -1.426585e+001  4.635255e+000
    endloop
  endfacet
  facet normal  9.999999e-001  0.000000e+000  0.000000e+000
    outer loop
      vertex  1.000000e+001 -1.426585e+001  4.635255e+000
      vertex  1.000000e+001 -1.125000e+001  1.377728e-015
      vertex  1.000000e+001 -1.057154e+001  3.847727e+000
    endloop
  endfacet
  facet normal  9.999999e-001  0.000000e+000  -0.000000e+000
    outer loop
      vertex  1.000000e+001  1.057154e+001  3.847727e+000
      vertex  1.000000e+001  1.125000e+001  0.000000e+000
      vertex  1.000000e+001  1.426585e+001  4.635255e+000
    endloop
  endfacet
  facet normal  1.000000e+000  0.000000e+000  0.000000e+000
    outer loop
      vertex  1.000000e+001  1.426585e+001  4.635255e+000
      vertex  1.000000e+001  1.125000e+001  0.000000e+000
      vertex  1.000000e+001  1.500000e+001  0.000000e+000
    endloop
  endfacet
  facet normal  0.000000e+000  1.000000e+000  -0.000000e+000
    outer loop
      vertex  1.000000e+001  1.500000e+001  0.000000e+000
      vertex  1.000000e+001  1.500000e+001 -1.200000e+001
      vertex  0.000000e+000  1.500000e+001  0.000000e+000
    endloop
  endfacet
  facet normal  0.000000e+000  1.000000e+000  0.000000e+000
    outer loop
      vertex  0.000000e+000  1.500000e+001  0.000000e+000
      vertex  1.000000e+001  1.500000e+001 -1.200000e+001
      vertex  0.000000e+000  1.500000e+001 -1.200000e+001
    endloop
  endfacet
  facet normal  0.000000e+000 -1.000000e+000  0.000000e+000
    outer loop
      vertex  1.000000e+001 -1.500000e+001  8.498309e-015
      vertex  0.000000e+000 -1.500000e+001  8.498309e-015
      vertex  1.000000e+001 -1.500000e+001 -1.200000e+001
    endloop
  endfacet
  facet normal  0.000000e+000 -1.000000e+000  0.000000e+000
    outer loop
      vertex  1.000000e+001 -1.500000e+001 -1.200000e+001
      vertex  0.000000e+000 -1.500000e+001  8.498309e-015
      vertex  0.000000e+000 -1.500000e+001 -1.200000e+001
    endloop
  endfacet
  facet normal  0.000000e+000 -1.000000e+000  -0.000000e+000
    outer loop
      vertex  1.000000e+001 -2.000000e+001 -1.500000e+001
      vertex  1.000000e+001 -2.000000e+001 -1.200000e+001
      vertex  0.000000e+000 -2.000000e+001 -1.500000e+001
    endloop
  endfacet
  facet normal  0.000000e+000 -1.000000e+000  0.000000e+000
    outer loop
      vertex  0.000000e+000 -2.000000e+001 -1.500000e+001
      vertex  1.000000e+001 -2.000000e+001 -1.200000e+001
      vertex  0.000000e+000 -2.000000e+001 -1.200000e+001
    endloop
  endfacet
  facet normal  0.000000e+000  1.000000e+000  0.000000e+000
    outer loop
      vertex  0.000000e+000  2.000000e+001 -1.500000e+001
      vertex  0.000000e+000  2.000000e+001 -1.200000e+001
      vertex  1.000000e+001  2.000000e+001 -1.500000e+001
    endloop
  endfacet
  facet normal  0.000000e+000  1.000000e+000  -0.000000e+000
    outer loop
      vertex  1.000000e+001  2.000000e+001 -1.500000e+001
      vertex  0.000000e+000  2.000000e+001 -1.200000e+001
      vertex  1.000000e+001  2.000000e+001 -1.200000e+001
    endloop
  endfacet
  facet normal  0.000000e+000  3.420202e-001 -9.396926e-001
    outer loop
      vertex  0.000000e+000 -1.953542e+000  1.107909e+001
      vertex  1.000000e+001 -5.625000e+000  9.742785e+000
      vertex  0.000000e+000 -5.625000e+000  9.742785e+000
    endloop
  endfacet
  facet normal  0.000000e+000  6.427876e-001 -7.660445e-001
    outer loop
      vertex  0.000000e+000 -5.625000e+000  9.742785e+000
      vertex  1.000000e+001 -5.625000e+000  9.742785e+000
      vertex  1.000000e+001 -8.618000e+000  7.231360e+000
    endloop
  endfacet
  facet normal  0.000000e+000  6.427876e-001 -7.660445e-001
    outer loop
      vertex  0.000000e+000 -5.625000e+000  9.742785e+000
      vertex  1.000000e+001 -8.618000e+000  7.231360e+000
      vertex  0.000000e+000 -8.618000e+000  7.231360e+000
    endloop
  endfacet
  facet normal  0.000000e+000  8.660254e-001 -4.999999e-001
    outer loop
      vertex  0.000000e+000 -8.618000e+000  7.231360e+000
      vertex  1.000000e+001 -8.618000e+000  7.231360e+000
      vertex  1.000000e+001 -1.057154e+001  3.847727e+000
    endloop
  endfacet
  facet normal  0.000000e+000  8.660254e-001 -4.999999e-001
    outer loop
      vertex  0.000000e+000 -8.618000e+000  7.231360e+000
      vertex  1.000000e+001 -1.057154e+001  3.847727e+000
      vertex  0.000000e+000 -1.057154e+001  3.847727e+000
    endloop
  endfacet
  facet normal  0.000000e+000  9.848077e-001 -1.736482e-001
    outer loop
      vertex  0.000000e+000 -1.057154e+001  3.847727e+000
      vertex  1.000000e+001 -1.057154e+001  3.847727e+000
      vertex  1.000000e+001 -1.125000e+001  1.377728e-015
    endloop
  endfacet
  facet normal  0.000000e+000  9.848077e-001 -1.736482e-001
    outer loop
      vertex  0.000000e+000 -1.057154e+001  3.847727e+000
      vertex  1.000000e+001 -1.125000e+001  1.377728e-015
      vertex  0.000000e+000 -1.125000e+001  1.377728e-015
    endloop
  endfacet
  facet normal  0.000000e+000  3.420202e-001 -9.396926e-001
    outer loop
      vertex  1.000000e+001 -5.625000e+000  9.742785e+000
      vertex  0.000000e+000 -1.953542e+000  1.107909e+001
      vertex  1.000000e+001 -1.953542e+000  1.107909e+001
    endloop
  endfacet
  facet normal  0.000000e+000  0.000000e+000 -1.000000e+000
    outer loop
      vertex  1.000000e+001 -1.953542e+000  1.107909e+001
      vertex  0.000000e+000 -1.953542e+000  1.107909e+001
      vertex  0.000000e+000  1.953542e+000  1.107909e+001
    endloop
  endfacet
  facet normal  0.000000e+000  0.000000e+000 -1.000000e+000
    outer loop
      vertex  1.000000e+001 -1.953542e+000  1.107909e+001
      vertex  0.000000e+000  1.953542e+000  1.107909e+001
      vertex  1.000000e+001  1.953542e+000  1.107909e+001
    endloop
  endfacet
  facet normal  -0.000000e+000 -3.420202e-001 -9.396926e-001
    outer loop
      vertex  1.000000e+001  1.953542e+000  1.107909e+001
      vertex  0.000000e+000  1.953542e+000  1.107909e+001
      vertex  0.000000e+000  5.625000e+000  9.742785e+000
    endloop
  endfacet
  facet normal  0.000000e+000 -3.420202e-001 -9.396926e-001
    outer loop
      vertex  1.000000e+001  1.953542e+000  1.107909e+001
      vertex  0.000000e+000  5.625000e+000  9.742785e+000
      vertex  1.000000e+001  5.625000e+000  9.742785e+000
    endloop
  endfacet
  facet normal  -0.000000e+000 -6.427876e-001 -7.660445e-001
    outer loop
      vertex  1.000000e+001  5.625000e+000  9.742785e+000
      vertex  0.000000e+000  5.625000e+000  9.742785e+000
      vertex  0.000000e+000  8.618000e+000  7.231360e+000
    endloop
  endfacet
  facet normal  0.000000e+000 -6.427876e-001 -7.660445e-001
    outer loop
      vertex  1.000000e+001  5.625000e+000  9.742785e+000
      vertex  0.000000e+000  8.618000e+000  7.231360e+000
      vertex  1.000000e+001  8.618000e+000  7.231360e+000
    endloop
  endfacet
  facet normal  -0.000000e+000 -8.660254e-001 -4.999999e-001
    outer loop
      vertex  1.000000e+001  8.618000e+000  7.231360e+000
      vertex  0.000000e+000  8.618000e+000  7.231360e+000
      vertex  0.000000e+000  1.057154e+001  3.847727e+000
    endloop
  endfacet
  facet normal  0.000000e+000 -8.660254e-001 -4.999999e-001
    outer loop
      vertex  1.000000e+001  8.618000e+000  7.231360e+000
      vertex  0.000000e+000  1.057154e+001  3.847727e+000
      vertex  1.000000e+001  1.057154e+001  3.847727e+000
    endloop
  endfacet
  facet normal  -0.000000e+000 -9.848077e-001 -1.736482e-001
    outer loop
      vertex  1.000000e+001  1.057154e+001  3.847727e+000
      vertex  0.000000e+000  1.057154e+001  3.847727e+000
      vertex  0.000000e+000  1.125000e+001  0.000000e+000
    endloop
  endfacet
  facet normal  0.000000e+000 -9.848077e-001 -1.736482e-001
    outer loop
      vertex  1.000000e+001  1.057154e+001  3.847727e+000
      vertex  0.000000e+000  1.125000e+001  0.000000e+000
      vertex  1.000000e+001  1.125000e+001  0.000000e+000
    endloop
  endfacet
  facet normal  0.000000e+000 -3.420202e-001  9.396926e-001
    outer loop
      vertex  0.000000e+000  1.953542e+000 -1.107909e+001
      vertex  1.000000e+001  5.625000e+000 -9.742785e+000
      vertex  0.000000e+000  5.625000e+000 -9.742785e+000
    endloop
  endfacet
  facet normal  0.000000e+000 -6.427876e-001  7.660445e-001
    outer loop
      vertex  0.000000e+000  5.625000e+000 -9.742785e+000
      vertex  1.000000e+001  5.625000e+000 -9.742785e+000
      vertex  1.000000e+001  8.618000e+000 -7.231360e+000
    endloop
  endfacet
  facet normal  0.000000e+000 -6.427876e-001  7.660445e-001
    outer loop
      vertex  0.000000e+000  5.625000e+000 -9.742785e+000
      vertex  1.000000e+001  8.618000e+000 -7.231360e+000
      vertex  0.000000e+000  8.618000e+000 -7.231360e+000
    endloop
  endfacet
  facet normal  0.000000e+000 -8.660254e-001  4.999999e-001
    outer loop
      vertex  0.000000e+000  8.618000e+000 -7.231360e+000
      vertex  1.000000e+001  8.618000e+000 -7.231360e+000
      vertex  1.000000e+001  1.057154e+001 -3.847727e+000
    endloop
  endfacet
  facet normal  0.000000e+000 -8.660254e-001  4.999999e-001
    outer loop
      vertex  0.000000e+000  8.618000e+000 -7.231360e+000
      vertex  1.000000e+001  1.057154e+001 -3.847727e+000
      vertex  0.000000e+000  1.057154e+001 -3.847727e+000
    endloop
  endfacet
  facet normal  0.000000e+000 -9.848077e-001  1.736482e-001
    outer loop
      vertex  0.000000e+000  1.057154e+001 -3.847727e+000
      vertex  1.000000e+001  1.057154e+001 -3.847727e+000
      vertex  1.000000e+001  1.125000e+001  0.000000e+000
    endloop
  endfacet
  facet normal  0.000000e+000 -9.848077e-001  1.736482e-001
    outer loop
      vertex  0.000000e+000  1.057154e+001 -3.847727e+000
      vertex  1.000000e+001  1.125000e+001  0.000000e+000
      vertex  0.000000e+000  1.125000e+001  0.000000e+000
    endloop
  endfacet
  facet normal  0.000000e+000 -3.420202e-001  9.396926e-001
    outer loop
      vertex  1.000000e+001  5.625000e+000 -9.742785e+000
      vertex  0.000000e+000  1.953542e+000 -1.107909e+001
      vertex  1.000000e+001  1.953542e+000 -1.107909e+001
    endloop
  endfacet
  facet normal  0.000000e+000  0.000000e+000  1.000000e+000
    outer loop
      vertex  1.000000e+001  1.953542e+000 -1.107909e+001
      vertex  0.000000e+000  1.953542e+000 -1.107909e+001
      vertex  0.000000e+000 -1.953542e+000 -1.107909e+001
    endloop
  endfacet
  facet normal  0.000000e+000  0.000000e+000  1.000000e+000
    outer loop
      vertex  1.000000e+001  1.953542e+000 -1.107909e+001
      vertex  0.000000e+000 -1.953542e+000 -1.107909e+001
      vertex  1.000000e+001 -1.953542e+000 -1.107909e+001
    endloop
  endfacet
  facet normal  0.000000e+000  3.420202e-001  9.396926e-001
    outer loop
      vertex  1.000000e+001 -1.953542e+000 -1.107909e+001
      vertex  0.000000e+000 -1.953542e+000 -1.107909e+001
      vertex  0.000000e+000 -5.625000e+000 -9.742785e+000
    endloop
  endfacet
  facet normal  -0.000000e+000  3.420202e-001  9.396926e-001
    outer loop
      vertex  1.000000e+001 -1.953542e+000 -1.107909e+001
      vertex  0.000000e+000 -5.625000e+000 -9.742785e+000
      vertex  1.000000e+001 -5.625000e+000 -9.742785e+000
    endloop
  endfacet
  facet normal  0.000000e+000  6.427876e-001  7.660445e-001
    outer loop
      vertex  1.000000e+001 -5.625000e+000 -9.742785e+000
      vertex  0.000000e+000 -5.625000e+000 -9.742785e+000
      vertex  0.000000e+000 -8.618000e+000 -7.231360e+000
    endloop
  endfacet
  facet normal  -0.000000e+000  6.427876e-001  7.660445e-001
    outer loop
      vertex  1.000000e+001 -5.625000e+000 -9.742785e+000
      vertex  0.000000e+000 -8.618000e+000 -7.231360e+000
      vertex  1.000000e+001 -8.618000e+000 -7.231360e+000
    endloop
  endfacet
  facet normal  0.000000e+000  8.660254e-001  4.999999e-001
    outer loop
      vertex  1.000000e+001 -8.618000e+000 -7.231360e+000
      vertex  0.000000e+000 -8.618000e+000 -7.231360e+000
      vertex  0.000000e+000 -1.057154e+001 -3.847727e+000
    endloop
  endfacet
  facet normal  -0.000000e+000  8.660254e-001  4.999999e-001
    outer loop
      vertex  1.000000e+001 -8.618000e+000 -7.231360e+000
      vertex  0.000000e+000 -1.057154e+001 -3.847727e+000
      vertex  1.000000e+001 -1.057154e+001 -3.847727e+000
    endloop
  endfacet
  facet normal  0.000000e+000  9.848077e-001  1.736482e-001
    outer loop
      vertex  1.000000e+001 -1.057154e+001 -3.847727e+000
      vertex  0.000000e+000 -1.057154e+001 -3.847727e+000
      vertex  0.000000e+000 -1.125000e+001  1.377728e-015
    endloop
  endfacet
  facet normal  -0.000000e+000  9.848077e-001  1.736482e-001
    outer loop
      vertex  1.000000e+001 -1.057154e+001 -3.847727e+000
      vertex  0.000000e+000 -1.125000e+001  1.377728e-015
      vertex  1.000000e+001 -1.125000e+001  1.377728e-015
    endloop
  endfacet
  facet normal  0.000000e+000 -9.876883e-001  1.564344e-001
    outer loop
      vertex  0.000000e+000 -1.500000e+001  8.498309e-015
      vertex  1.000000e+001 -1.500000e+001  8.498309e-015
      vertex  0.000000e+000 -1.426585e+001  4.635255e+000
    endloop
  endfacet
  facet normal  0.000000e+000 -9.876883e-001  1.564344e-001
    outer loop
      vertex  0.000000e+000 -1.426585e+001  4.635255e+000
      vertex  1.000000e+001 -1.500000e+001  8.498309e-015
      vertex  1.000000e+001 -1.426585e+001  4.635255e+000
    endloop
  endfacet
  facet normal  0.000000e+000 -8.910066e-001  4.539906e-001
    outer loop
      vertex  0.000000e+000 -1.426585e+001  4.635255e+000
      vertex  1.000000e+001 -1.426585e+001  4.635255e+000
      vertex  0.000000e+000 -1.213525e+001  8.816779e+000
    endloop
  endfacet
  facet normal  0.000000e+000 -8.910066e-001  4.539906e-001
    outer loop
      vertex  0.000000e+000 -1.213525e+001  8.816779e+000
      vertex  1.000000e+001 -1.426585e+001  4.635255e+000
      vertex  1.000000e+001 -1.213525e+001  8.816779e+000
    endloop
  endfacet
  facet normal  0.000000e+000 -7.071067e-001  7.071067e-001
    outer loop
      vertex  0.000000e+000 -1.213525e+001  8.816779e+000
      vertex  1.000000e+001 -1.213525e+001  8.816779e+000
      vertex  0.000000e+000 -8.816779e+000  1.213525e+001
    endloop
  endfacet
  facet normal  0.000000e+000 -7.071067e-001  7.071067e-001
    outer loop
      vertex  0.000000e+000 -8.816779e+000  1.213525e+001
      vertex  1.000000e+001 -1.213525e+001  8.816779e+000
      vertex  1.000000e+001 -8.816779e+000  1.213525e+001
    endloop
  endfacet
  facet normal  0.000000e+000 -4.539906e-001  8.910066e-001
    outer loop
      vertex  0.000000e+000 -8.816779e+000  1.213525e+001
      vertex  1.000000e+001 -8.816779e+000  1.213525e+001
      vertex  0.000000e+000 -4.635255e+000  1.426585e+001
    endloop
  endfacet
  facet normal  0.000000e+000 -4.539906e-001  8.910066e-001
    outer loop
      vertex  0.000000e+000 -4.635255e+000  1.426585e+001
      vertex  1.000000e+001 -8.816779e+000  1.213525e+001
      vertex  1.000000e+001 -4.635255e+000  1.426585e+001
    endloop
  endfacet
  facet normal  0.000000e+000 -1.564344e-001  9.876883e-001
    outer loop
      vertex  0.000000e+000 -4.635255e+000  1.426585e+001
      vertex  1.000000e+001 -4.635255e+000  1.426585e+001
      vertex  0.000000e+000  4.249154e-015  1.500000e+001
    endloop
  endfacet
  facet normal  0.000000e+000 -1.564344e-001  9.876883e-001
    outer loop
      vertex  0.000000e+000  4.249154e-015  1.500000e+001
      vertex  1.000000e+001 -4.635255e+000  1.426585e+001
      vertex  1.000000e+001  4.249154e-015  1.500000e+001
    endloop
  endfacet
  facet normal  0.000000e+000  1.564344e-001  9.876883e-001
    outer loop
      vertex  0.000000e+000  4.249154e-015  1.500000e+001
      vertex  1.000000e+001  4.249154e-015  1.500000e+001
      vertex  0.000000e+000  4.635255e+000  1.426585e+001
    endloop
  endfacet
  facet normal  -0.000000e+000  1.564344e-001  9.876883e-001
    outer loop
      vertex  0.000000e+000  4.635255e+000  1.426585e+001
      vertex  1.000000e+001  4.249154e-015  1.500000e+001
      vertex  1.000000e+001  4.635255e+000  1.426585e+001
    endloop
  endfacet
  facet normal  0.000000e+000  4.539906e-001  8.910066e-001
    outer loop
      vertex  0.000000e+000  4.635255e+000  1.426585e+001
      vertex  1.000000e+001  4.635255e+000  1.426585e+001
      vertex  0.000000e+000  8.816779e+000  1.213525e+001
    endloop
  endfacet
  facet normal  -0.000000e+000  4.539906e-001  8.910066e-001
    outer loop
      vertex  0.000000e+000  8.816779e+000  1.213525e+001
      vertex  1.000000e+001  4.635255e+000  1.426585e+001
      vertex  1.000000e+001  8.816779e+000  1.213525e+001
    endloop
  endfacet
  facet normal  0.000000e+000  7.071067e-001  7.071067e-001
    outer loop
      vertex  0.000000e+000  8.816779e+000  1.213525e+001
      vertex  1.000000e+001  8.816779e+000  1.213525e+001
      vertex  0.000000e+000  1.213525e+001  8.816779e+000
    endloop
  endfacet
  facet normal  -0.000000e+000  7.071067e-001  7.071067e-001
    outer loop
      vertex  0.000000e+000  1.213525e+001  8.816779e+000
      vertex  1.000000e+001  8.816779e+000  1.213525e+001
      vertex  1.000000e+001  1.213525e+001  8.816779e+000
    endloop
  endfacet
  facet normal  0.000000e+000  8.910066e-001  4.539906e-001
    outer loop
      vertex  0.000000e+000  1.213525e+001  8.816779e+000
      vertex  1.000000e+001  1.213525e+001  8.816779e+000
      vertex  0.000000e+000  1.426585e+001  4.635255e+000
    endloop
  endfacet
  facet normal  -0.000000e+000  8.910066e-001  4.539906e-001
    outer loop
      vertex  0.000000e+000  1.426585e+001  4.635255e+000
      vertex  1.000000e+001  1.213525e+001  8.816779e+000
      vertex  1.000000e+001  1.426585e+001  4.635255e+000
    endloop
  endfacet
  facet normal  0.000000e+000  9.876883e-001  1.564344e-001
    outer loop
      vertex  0.000000e+000  1.426585e+001  4.635255e+000
      vertex  1.000000e+001  1.426585e+001  4.635255e+000
      vertex  0.000000e+000  1.500000e+001  0.000000e+000
    endloop
  endfacet
  facet normal  -0.000000e+000  9.876883e-001  1.564344e-001
    outer loop
      vertex  0.000000e+000  1.500000e+001  0.000000e+000
      vertex  1.000000e+001  1.426585e+001  4.635255e+000
      vertex  1.000000e+001  1.500000e+001  0.000000e+000
    endloop
  endfacet
endsolid CATIA STL
