solid CATIA STL
  facet normal  0.000000e+000  1.000000e+000  0.000000e+000
    outer loop
      vertex  2.950000e+000  8.000000e+000  3.612708e-016
      vertex  5.320552e+000  8.000000e+000 -1.585593e+000
      vertex  2.386600e+000  8.000000e+000 -1.733966e+000
    endloop
  endfacet
  facet normal  0.000000e+000  1.000000e+000  -0.000000e+000
    outer loop
      vertex  3.622421e+000  8.000000e+000 -4.093175e+001
      vertex  2.104566e+000  8.000000e+000 -4.122161e+001
      vertex  7.000275e-001  8.000000e+000 -4.108161e+001
    endloop
  endfacet
  facet normal  0.000000e+000  1.000000e+000  -0.000000e+000
    outer loop
      vertex  8.656532e+000  8.000000e+000 -1.950812e+001
      vertex  8.060729e+000  8.000000e+000 -2.662463e+001
      vertex  6.382692e+000  8.000000e+000 -3.376584e+001
    endloop
  endfacet
  facet normal  0.000000e+000  1.000000e+000  -0.000000e+000
    outer loop
      vertex  8.656532e+000  8.000000e+000 -1.950812e+001
      vertex  6.382692e+000  8.000000e+000 -3.376584e+001
      vertex  3.622421e+000  8.000000e+000 -4.093175e+001
    endloop
  endfacet
  facet normal  0.000000e+000  1.000000e+000  -0.000000e+000
    outer loop
      vertex  8.656532e+000  8.000000e+000 -1.950812e+001
      vertex  3.622421e+000  8.000000e+000 -4.093175e+001
      vertex  7.000275e-001  8.000000e+000 -4.108161e+001
    endloop
  endfacet
  facet normal  0.000000e+000  1.000000e+000  -0.000000e+000
    outer loop
      vertex  8.656532e+000  8.000000e+000 -1.950812e+001
      vertex  7.000275e-001  8.000000e+000 -4.108161e+001
      vertex -1.109981e-002  8.000000e+000 -2.568534e+001
    endloop
  endfacet
  facet normal  0.000000e+000  1.000000e+000  0.000000e+000
    outer loop
      vertex  8.656532e+000  8.000000e+000 -1.950812e+001
      vertex -1.109981e-002  8.000000e+000 -2.568534e+001
      vertex -2.220446e-016  8.000000e+000 -2.000000e+001
    endloop
  endfacet
  facet normal  0.000000e+000  1.000000e+000  0.000000e+000
    outer loop
      vertex  8.656532e+000  8.000000e+000 -1.950812e+001
      vertex -2.220446e-016  8.000000e+000 -2.000000e+001
      vertex  8.316662e+000  8.000000e+000 -1.351632e+001
    endloop
  endfacet
  facet normal  0.000000e+000  1.000000e+000  0.000000e+000
    outer loop
      vertex  7.204668e+000  8.000000e+000 -7.542147e+000
      vertex  8.316662e+000  8.000000e+000 -1.351632e+001
      vertex  9.116001e-001  8.000000e+000 -2.805617e+000
    endloop
  endfacet
  facet normal  -0.000000e+000  1.000000e+000  0.000000e+000
    outer loop
      vertex  7.204668e+000  8.000000e+000 -7.542147e+000
      vertex  9.116001e-001  8.000000e+000 -2.805617e+000
      vertex  2.386600e+000  8.000000e+000 -1.733966e+000
    endloop
  endfacet
  facet normal  -0.000000e+000  1.000000e+000  0.000000e+000
    outer loop
      vertex  7.204668e+000  8.000000e+000 -7.542147e+000
      vertex  2.386600e+000  8.000000e+000 -1.733966e+000
      vertex  5.320552e+000  8.000000e+000 -1.585593e+000
    endloop
  endfacet
  facet normal  0.000000e+000  1.000000e+000  -0.000000e+000
    outer loop
      vertex  1.046646e+000  8.000000e+000  1.898570e+001
      vertex -2.866763e+000  8.000000e+000  1.653149e+001
      vertex -7.075172e+000  8.000000e+000  1.898570e+001
    endloop
  endfacet
  facet normal  0.000000e+000  1.000000e+000  0.000000e+000
    outer loop
      vertex -7.075172e+000  8.000000e+000  1.898570e+001
      vertex -2.866763e+000  8.000000e+000  1.653149e+001
      vertex -7.021280e+000  8.000000e+000  1.640470e+001
    endloop
  endfacet
  facet normal  0.000000e+000  1.000000e+000  0.000000e+000
    outer loop
      vertex -5.932176e-001  8.000000e+000 -4.051045e+001
      vertex -1.772774e+000  8.000000e+000 -3.950801e+001
      vertex  7.000275e-001  8.000000e+000 -4.108161e+001
    endloop
  endfacet
  facet normal  0.000000e+000  1.000000e+000  0.000000e+000
    outer loop
      vertex  7.000275e-001  8.000000e+000 -4.108161e+001
      vertex -1.772774e+000  8.000000e+000 -3.950801e+001
      vertex -4.972123e-001  8.000000e+000 -3.138122e+001
    endloop
  endfacet
  facet normal  -0.000000e+000  1.000000e+000  0.000000e+000
    outer loop
      vertex  7.000275e-001  8.000000e+000 -4.108161e+001
      vertex -4.972123e-001  8.000000e+000 -3.138122e+001
      vertex -1.109981e-002  8.000000e+000 -2.568534e+001
    endloop
  endfacet
  facet normal  0.000000e+000  1.000000e+000  0.000000e+000
    outer loop
      vertex  8.316662e+000  8.000000e+000 -1.351632e+001
      vertex -2.220446e-016  8.000000e+000 -2.000000e+001
      vertex  9.116001e-001  8.000000e+000 -2.805617e+000
    endloop
  endfacet
  facet normal  0.000000e+000  1.000000e+000  0.000000e+000
    outer loop
      vertex  9.116001e-001  8.000000e+000 -2.805617e+000
      vertex -2.220446e-016  8.000000e+000 -2.000000e+001
      vertex -7.914106e-001  8.000000e+000 -1.330334e+001
    endloop
  endfacet
  facet normal  0.000000e+000  1.000000e+000  -0.000000e+000
    outer loop
      vertex  9.116001e-001  8.000000e+000 -2.805617e+000
      vertex -7.914106e-001  8.000000e+000 -1.330334e+001
      vertex -9.116001e-001  8.000000e+000 -2.805617e+000
    endloop
  endfacet
  facet normal  0.000000e+000  1.000000e+000  0.000000e+000
    outer loop
      vertex -9.116001e-001  8.000000e+000 -2.805617e+000
      vertex -7.914106e-001  8.000000e+000 -1.330334e+001
      vertex -2.587792e+000  8.000000e+000 -6.749350e+000
    endloop
  endfacet
  facet normal  0.000000e+000  9.999999e-001  0.000000e+000
    outer loop
      vertex -9.116001e-001  8.000000e+000 -2.805617e+000
      vertex -2.587792e+000  8.000000e+000 -6.749350e+000
      vertex -2.386600e+000  8.000000e+000 -1.733966e+000
    endloop
  endfacet
  facet normal  0.000000e+000  1.000000e+000  0.000000e+000
    outer loop
      vertex -3.437181e+000  8.000000e+000  1.449167e+001
      vertex -2.866763e+000  8.000000e+000  1.653149e+001
      vertex -9.116001e-001  8.000000e+000  2.805617e+000
    endloop
  endfacet
  facet normal  0.000000e+000  1.000000e+000  -0.000000e+000
    outer loop
      vertex -9.116001e-001  8.000000e+000  2.805617e+000
      vertex -2.866763e+000  8.000000e+000  1.653149e+001
      vertex  1.046646e+000  8.000000e+000  1.898570e+001
    endloop
  endfacet
  facet normal  0.000000e+000  1.000000e+000  0.000000e+000
    outer loop
      vertex -9.116001e-001  8.000000e+000  2.805617e+000
      vertex  1.046646e+000  8.000000e+000  1.898570e+001
      vertex  9.116001e-001  8.000000e+000  2.805617e+000
    endloop
  endfacet
  facet normal  0.000000e+000  1.000000e+000  0.000000e+000
    outer loop
      vertex  9.116001e-001  8.000000e+000  2.805617e+000
      vertex  1.046646e+000  8.000000e+000  1.898570e+001
      vertex  1.046646e+000  8.000000e+000  7.316197e+000
    endloop
  endfacet
  facet normal  0.000000e+000  1.000000e+000  0.000000e+000
    outer loop
      vertex  9.116001e-001  8.000000e+000  2.805617e+000
      vertex  1.046646e+000  8.000000e+000  7.316197e+000
      vertex  3.400759e+000  8.000000e+000  2.870259e+000
    endloop
  endfacet
  facet normal  -0.000000e+000  9.999999e-001  0.000000e+000
    outer loop
      vertex  5.320552e+000  8.000000e+000 -1.585593e+000
      vertex  2.950000e+000  8.000000e+000  3.612708e-016
      vertex  3.400759e+000  8.000000e+000  2.870259e+000
    endloop
  endfacet
  facet normal  0.000000e+000  1.000000e+000  0.000000e+000
    outer loop
      vertex  3.400759e+000  8.000000e+000  2.870259e+000
      vertex  2.950000e+000  8.000000e+000  3.612708e-016
      vertex  2.386600e+000  8.000000e+000  1.733966e+000
    endloop
  endfacet
  facet normal  0.000000e+000  1.000000e+000  -0.000000e+000
    outer loop
      vertex  3.400759e+000  8.000000e+000  2.870259e+000
      vertex  2.386600e+000  8.000000e+000  1.733966e+000
      vertex  9.116001e-001  8.000000e+000  2.805617e+000
    endloop
  endfacet
  facet normal  0.000000e+000  1.000000e+000  0.000000e+000
    outer loop
      vertex -2.386600e+000  8.000000e+000  1.733966e+000
      vertex -5.444061e+000  8.000000e+000 -3.593284e-001
      vertex -9.116001e-001  8.000000e+000  2.805617e+000
    endloop
  endfacet
  facet normal  0.000000e+000  1.000000e+000  0.000000e+000
    outer loop
      vertex -9.116001e-001  8.000000e+000  2.805617e+000
      vertex -5.444061e+000  8.000000e+000 -3.593284e-001
      vertex -6.828813e+000  8.000000e+000  1.105326e+001
    endloop
  endfacet
  facet normal  -0.000000e+000  1.000000e+000  0.000000e+000
    outer loop
      vertex -9.116001e-001  8.000000e+000  2.805617e+000
      vertex -6.828813e+000  8.000000e+000  1.105326e+001
      vertex -3.437181e+000  8.000000e+000  1.449167e+001
    endloop
  endfacet
  facet normal  0.000000e+000  1.000000e+000  -0.000000e+000
    outer loop
      vertex -2.386600e+000  8.000000e+000 -1.733966e+000
      vertex -2.587792e+000  8.000000e+000 -6.749350e+000
      vertex -2.950000e+000  8.000000e+000  0.000000e+000
    endloop
  endfacet
  facet normal  0.000000e+000  1.000000e+000  0.000000e+000
    outer loop
      vertex -2.950000e+000  8.000000e+000  0.000000e+000
      vertex -2.587792e+000  8.000000e+000 -6.749350e+000
      vertex -5.444061e+000  8.000000e+000 -3.593284e-001
    endloop
  endfacet
  facet normal  0.000000e+000  1.000000e+000  0.000000e+000
    outer loop
      vertex -2.950000e+000  8.000000e+000  0.000000e+000
      vertex -5.444061e+000  8.000000e+000 -3.593284e-001
      vertex -2.386600e+000  8.000000e+000  1.733966e+000
    endloop
  endfacet
  facet normal  -0.000000e+000 -1.000000e+000  0.000000e+000
    outer loop
      vertex  2.386600e+000  0.000000e+000 -1.733966e+000
      vertex  5.320552e+000  0.000000e+000 -1.585593e+000
      vertex  2.950000e+000  0.000000e+000  3.612708e-016
    endloop
  endfacet
  facet normal  0.000000e+000 -1.000000e+000  0.000000e+000
    outer loop
      vertex  7.000275e-001  0.000000e+000 -4.108161e+001
      vertex  2.104566e+000  0.000000e+000 -4.122161e+001
      vertex  3.622421e+000  0.000000e+000 -4.093175e+001
    endloop
  endfacet
  facet normal  0.000000e+000 -1.000000e+000  -0.000000e+000
    outer loop
      vertex  8.656532e+000  0.000000e+000 -1.950812e+001
      vertex  8.316662e+000  0.000000e+000 -1.351632e+001
      vertex -2.220446e-016  0.000000e+000 -2.000000e+001
    endloop
  endfacet
  facet normal  0.000000e+000 -1.000000e+000  -0.000000e+000
    outer loop
      vertex  8.656532e+000  0.000000e+000 -1.950812e+001
      vertex -2.220446e-016  0.000000e+000 -2.000000e+001
      vertex -1.109981e-002  0.000000e+000 -2.568534e+001
    endloop
  endfacet
  facet normal  0.000000e+000 -1.000000e+000  0.000000e+000
    outer loop
      vertex  8.656532e+000  0.000000e+000 -1.950812e+001
      vertex -1.109981e-002  0.000000e+000 -2.568534e+001
      vertex  7.000275e-001  0.000000e+000 -4.108161e+001
    endloop
  endfacet
  facet normal  0.000000e+000 -1.000000e+000  0.000000e+000
    outer loop
      vertex  8.656532e+000  0.000000e+000 -1.950812e+001
      vertex  7.000275e-001  0.000000e+000 -4.108161e+001
      vertex  3.622421e+000  0.000000e+000 -4.093175e+001
    endloop
  endfacet
  facet normal  0.000000e+000 -1.000000e+000  0.000000e+000
    outer loop
      vertex  8.656532e+000  0.000000e+000 -1.950812e+001
      vertex  3.622421e+000  0.000000e+000 -4.093175e+001
      vertex  6.382692e+000  0.000000e+000 -3.376584e+001
    endloop
  endfacet
  facet normal  0.000000e+000 -1.000000e+000  0.000000e+000
    outer loop
      vertex  8.656532e+000  0.000000e+000 -1.950812e+001
      vertex  6.382692e+000  0.000000e+000 -3.376584e+001
      vertex  8.060729e+000  0.000000e+000 -2.662463e+001
    endloop
  endfacet
  facet normal  0.000000e+000 -1.000000e+000  -0.000000e+000
    outer loop
      vertex  7.204668e+000  0.000000e+000 -7.542147e+000
      vertex  5.320552e+000  0.000000e+000 -1.585593e+000
      vertex  2.386600e+000  0.000000e+000 -1.733966e+000
    endloop
  endfacet
  facet normal  0.000000e+000 -1.000000e+000  -0.000000e+000
    outer loop
      vertex  7.204668e+000  0.000000e+000 -7.542147e+000
      vertex  2.386600e+000  0.000000e+000 -1.733966e+000
      vertex  9.116001e-001  0.000000e+000 -2.805617e+000
    endloop
  endfacet
  facet normal  0.000000e+000 -1.000000e+000  0.000000e+000
    outer loop
      vertex  7.204668e+000  0.000000e+000 -7.542147e+000
      vertex  9.116001e-001  0.000000e+000 -2.805617e+000
      vertex  8.316662e+000  0.000000e+000 -1.351632e+001
    endloop
  endfacet
  facet normal  0.000000e+000 -1.000000e+000  0.000000e+000
    outer loop
      vertex  1.046646e+000  0.000000e+000  1.898570e+001
      vertex -7.075172e+000  0.000000e+000  1.898570e+001
      vertex -2.866763e+000  0.000000e+000  1.653149e+001
    endloop
  endfacet
  facet normal  -0.000000e+000 -1.000000e+000  0.000000e+000
    outer loop
      vertex -2.866763e+000  0.000000e+000  1.653149e+001
      vertex -7.075172e+000  0.000000e+000  1.898570e+001
      vertex -7.021280e+000  0.000000e+000  1.640470e+001
    endloop
  endfacet
  facet normal  0.000000e+000 -1.000000e+000  0.000000e+000
    outer loop
      vertex -1.109981e-002  0.000000e+000 -2.568534e+001
      vertex -4.972123e-001  0.000000e+000 -3.138122e+001
      vertex  7.000275e-001  0.000000e+000 -4.108161e+001
    endloop
  endfacet
  facet normal  0.000000e+000 -1.000000e+000  0.000000e+000
    outer loop
      vertex  7.000275e-001  0.000000e+000 -4.108161e+001
      vertex -4.972123e-001  0.000000e+000 -3.138122e+001
      vertex -1.772774e+000  0.000000e+000 -3.950801e+001
    endloop
  endfacet
  facet normal  0.000000e+000 -1.000000e+000  0.000000e+000
    outer loop
      vertex  7.000275e-001  0.000000e+000 -4.108161e+001
      vertex -1.772774e+000  0.000000e+000 -3.950801e+001
      vertex -5.932176e-001  0.000000e+000 -4.051045e+001
    endloop
  endfacet
  facet normal  0.000000e+000 -9.999999e-001  0.000000e+000
    outer loop
      vertex -2.386600e+000  0.000000e+000 -1.733966e+000
      vertex -2.587792e+000  0.000000e+000 -6.749350e+000
      vertex -9.116001e-001  0.000000e+000 -2.805617e+000
    endloop
  endfacet
  facet normal  0.000000e+000 -1.000000e+000  -0.000000e+000
    outer loop
      vertex -9.116001e-001  0.000000e+000 -2.805617e+000
      vertex -2.587792e+000  0.000000e+000 -6.749350e+000
      vertex -7.914106e-001  0.000000e+000 -1.330334e+001
    endloop
  endfacet
  facet normal  0.000000e+000 -1.000000e+000  0.000000e+000
    outer loop
      vertex -9.116001e-001  0.000000e+000 -2.805617e+000
      vertex -7.914106e-001  0.000000e+000 -1.330334e+001
      vertex  9.116001e-001  0.000000e+000 -2.805617e+000
    endloop
  endfacet
  facet normal  0.000000e+000 -1.000000e+000  0.000000e+000
    outer loop
      vertex  9.116001e-001  0.000000e+000 -2.805617e+000
      vertex -7.914106e-001  0.000000e+000 -1.330334e+001
      vertex -2.220446e-016  0.000000e+000 -2.000000e+001
    endloop
  endfacet
  facet normal  0.000000e+000 -1.000000e+000  0.000000e+000
    outer loop
      vertex  9.116001e-001  0.000000e+000 -2.805617e+000
      vertex -2.220446e-016  0.000000e+000 -2.000000e+001
      vertex  8.316662e+000  0.000000e+000 -1.351632e+001
    endloop
  endfacet
  facet normal  0.000000e+000 -1.000000e+000  -0.000000e+000
    outer loop
      vertex  3.400759e+000  0.000000e+000  2.870259e+000
      vertex  1.046646e+000  0.000000e+000  7.316197e+000
      vertex  9.116001e-001  0.000000e+000  2.805617e+000
    endloop
  endfacet
  facet normal  0.000000e+000 -1.000000e+000  0.000000e+000
    outer loop
      vertex  9.116001e-001  0.000000e+000  2.805617e+000
      vertex  1.046646e+000  0.000000e+000  7.316197e+000
      vertex  1.046646e+000  0.000000e+000  1.898570e+001
    endloop
  endfacet
  facet normal  0.000000e+000 -1.000000e+000  0.000000e+000
    outer loop
      vertex  9.116001e-001  0.000000e+000  2.805617e+000
      vertex  1.046646e+000  0.000000e+000  1.898570e+001
      vertex -9.116001e-001  0.000000e+000  2.805617e+000
    endloop
  endfacet
  facet normal  0.000000e+000 -1.000000e+000  0.000000e+000
    outer loop
      vertex -9.116001e-001  0.000000e+000  2.805617e+000
      vertex  1.046646e+000  0.000000e+000  1.898570e+001
      vertex -2.866763e+000  0.000000e+000  1.653149e+001
    endloop
  endfacet
  facet normal  0.000000e+000 -1.000000e+000  -0.000000e+000
    outer loop
      vertex -9.116001e-001  0.000000e+000  2.805617e+000
      vertex -2.866763e+000  0.000000e+000  1.653149e+001
      vertex -3.437181e+000  0.000000e+000  1.449167e+001
    endloop
  endfacet
  facet normal  0.000000e+000 -1.000000e+000  0.000000e+000
    outer loop
      vertex  9.116001e-001  0.000000e+000  2.805617e+000
      vertex  2.386600e+000  0.000000e+000  1.733966e+000
      vertex  3.400759e+000  0.000000e+000  2.870259e+000
    endloop
  endfacet
  facet normal  0.000000e+000 -1.000000e+000  0.000000e+000
    outer loop
      vertex  3.400759e+000  0.000000e+000  2.870259e+000
      vertex  2.386600e+000  0.000000e+000  1.733966e+000
      vertex  2.950000e+000  0.000000e+000  3.612708e-016
    endloop
  endfacet
  facet normal  0.000000e+000 -9.999999e-001  0.000000e+000
    outer loop
      vertex  3.400759e+000  0.000000e+000  2.870259e+000
      vertex  2.950000e+000  0.000000e+000  3.612708e-016
      vertex  5.320552e+000  0.000000e+000 -1.585593e+000
    endloop
  endfacet
  facet normal  0.000000e+000 -1.000000e+000  0.000000e+000
    outer loop
      vertex -3.437181e+000  0.000000e+000  1.449167e+001
      vertex -6.828813e+000  0.000000e+000  1.105326e+001
      vertex -9.116001e-001  0.000000e+000  2.805617e+000
    endloop
  endfacet
  facet normal  -0.000000e+000 -1.000000e+000  0.000000e+000
    outer loop
      vertex -9.116001e-001  0.000000e+000  2.805617e+000
      vertex -6.828813e+000  0.000000e+000  1.105326e+001
      vertex -5.444061e+000  0.000000e+000 -3.593284e-001
    endloop
  endfacet
  facet normal  0.000000e+000 -1.000000e+000  0.000000e+000
    outer loop
      vertex -9.116001e-001  0.000000e+000  2.805617e+000
      vertex -5.444061e+000  0.000000e+000 -3.593284e-001
      vertex -2.386600e+000  0.000000e+000  1.733966e+000
    endloop
  endfacet
  facet normal  0.000000e+000 -1.000000e+000  0.000000e+000
    outer loop
      vertex -2.386600e+000  0.000000e+000  1.733966e+000
      vertex -5.444061e+000  0.000000e+000 -3.593284e-001
      vertex -2.950000e+000  0.000000e+000  0.000000e+000
    endloop
  endfacet
  facet normal  0.000000e+000 -1.000000e+000  -0.000000e+000
    outer loop
      vertex -2.950000e+000  0.000000e+000  0.000000e+000
      vertex -5.444061e+000  0.000000e+000 -3.593284e-001
      vertex -2.587792e+000  0.000000e+000 -6.749350e+000
    endloop
  endfacet
  facet normal  0.000000e+000 -1.000000e+000  0.000000e+000
    outer loop
      vertex -2.950000e+000  0.000000e+000  0.000000e+000
      vertex -2.587792e+000  0.000000e+000 -6.749350e+000
      vertex -2.386600e+000  0.000000e+000 -1.733966e+000
    endloop
  endfacet
  facet normal -5.877853e-001  -0.000000e+000 -8.090171e-001
    outer loop
      vertex  9.116001e-001  0.000000e+000  2.805617e+000
      vertex  2.386600e+000  8.000000e+000  1.733966e+000
      vertex  2.386600e+000  0.000000e+000  1.733966e+000
    endloop
  endfacet
  facet normal -9.510565e-001  0.000000e+000 -3.090171e-001
    outer loop
      vertex  2.386600e+000  0.000000e+000  1.733966e+000
      vertex  2.386600e+000  8.000000e+000  1.733966e+000
      vertex  2.950000e+000  8.000000e+000  3.612708e-016
    endloop
  endfacet
  facet normal -9.510565e-001  -0.000000e+000 -3.090171e-001
    outer loop
      vertex  2.386600e+000  0.000000e+000  1.733966e+000
      vertex  2.950000e+000  8.000000e+000  3.612708e-016
      vertex  2.950000e+000  0.000000e+000  3.612708e-016
    endloop
  endfacet
  facet normal -5.877853e-001  0.000000e+000 -8.090171e-001
    outer loop
      vertex  2.386600e+000  8.000000e+000  1.733966e+000
      vertex  9.116001e-001  0.000000e+000  2.805617e+000
      vertex  9.116001e-001  8.000000e+000  2.805617e+000
    endloop
  endfacet
  facet normal  0.000000e+000  -0.000000e+000 -1.000000e+000
    outer loop
      vertex  9.116001e-001  8.000000e+000  2.805617e+000
      vertex  9.116001e-001  0.000000e+000  2.805617e+000
      vertex -9.116001e-001  0.000000e+000  2.805617e+000
    endloop
  endfacet
  facet normal  0.000000e+000  0.000000e+000 -1.000000e+000
    outer loop
      vertex  9.116001e-001  8.000000e+000  2.805617e+000
      vertex -9.116001e-001  0.000000e+000  2.805617e+000
      vertex -9.116001e-001  8.000000e+000  2.805617e+000
    endloop
  endfacet
  facet normal  5.877853e-001  0.000000e+000 -8.090171e-001
    outer loop
      vertex -9.116001e-001  8.000000e+000  2.805617e+000
      vertex -9.116001e-001  0.000000e+000  2.805617e+000
      vertex -2.386600e+000  0.000000e+000  1.733966e+000
    endloop
  endfacet
  facet normal  5.877853e-001  0.000000e+000 -8.090171e-001
    outer loop
      vertex -9.116001e-001  8.000000e+000  2.805617e+000
      vertex -2.386600e+000  0.000000e+000  1.733966e+000
      vertex -2.386600e+000  8.000000e+000  1.733966e+000
    endloop
  endfacet
  facet normal  9.510565e-001  0.000000e+000 -3.090171e-001
    outer loop
      vertex -2.386600e+000  8.000000e+000  1.733966e+000
      vertex -2.386600e+000  0.000000e+000  1.733966e+000
      vertex -2.950000e+000  0.000000e+000  0.000000e+000
    endloop
  endfacet
  facet normal  9.510565e-001  0.000000e+000 -3.090171e-001
    outer loop
      vertex -2.386600e+000  8.000000e+000  1.733966e+000
      vertex -2.950000e+000  0.000000e+000  0.000000e+000
      vertex -2.950000e+000  8.000000e+000  0.000000e+000
    endloop
  endfacet
  facet normal  5.877853e-001  0.000000e+000  8.090171e-001
    outer loop
      vertex -9.116001e-001  0.000000e+000 -2.805617e+000
      vertex -2.386600e+000  8.000000e+000 -1.733966e+000
      vertex -2.386600e+000  0.000000e+000 -1.733966e+000
    endloop
  endfacet
  facet normal  9.510565e-001  -0.000000e+000  3.090171e-001
    outer loop
      vertex -2.386600e+000  0.000000e+000 -1.733966e+000
      vertex -2.386600e+000  8.000000e+000 -1.733966e+000
      vertex -2.950000e+000  8.000000e+000  0.000000e+000
    endloop
  endfacet
  facet normal  9.510565e-001  0.000000e+000  3.090171e-001
    outer loop
      vertex -2.386600e+000  0.000000e+000 -1.733966e+000
      vertex -2.950000e+000  8.000000e+000  0.000000e+000
      vertex -2.950000e+000  0.000000e+000  0.000000e+000
    endloop
  endfacet
  facet normal  5.877853e-001  -0.000000e+000  8.090171e-001
    outer loop
      vertex -2.386600e+000  8.000000e+000 -1.733966e+000
      vertex -9.116001e-001  0.000000e+000 -2.805617e+000
      vertex -9.116001e-001  8.000000e+000 -2.805617e+000
    endloop
  endfacet
  facet normal  0.000000e+000  0.000000e+000  1.000000e+000
    outer loop
      vertex -9.116001e-001  8.000000e+000 -2.805617e+000
      vertex -9.116001e-001  0.000000e+000 -2.805617e+000
      vertex  9.116001e-001  0.000000e+000 -2.805617e+000
    endloop
  endfacet
  facet normal  0.000000e+000  -0.000000e+000  1.000000e+000
    outer loop
      vertex -9.116001e-001  8.000000e+000 -2.805617e+000
      vertex  9.116001e-001  0.000000e+000 -2.805617e+000
      vertex  9.116001e-001  8.000000e+000 -2.805617e+000
    endloop
  endfacet
  facet normal -5.877853e-001  0.000000e+000  8.090171e-001
    outer loop
      vertex  9.116001e-001  8.000000e+000 -2.805617e+000
      vertex  9.116001e-001  0.000000e+000 -2.805617e+000
      vertex  2.386600e+000  0.000000e+000 -1.733966e+000
    endloop
  endfacet
  facet normal -5.877853e-001  0.000000e+000  8.090171e-001
    outer loop
      vertex  9.116001e-001  8.000000e+000 -2.805617e+000
      vertex  2.386600e+000  0.000000e+000 -1.733966e+000
      vertex  2.386600e+000  8.000000e+000 -1.733966e+000
    endloop
  endfacet
  facet normal -9.510565e-001  0.000000e+000  3.090171e-001
    outer loop
      vertex  2.386600e+000  8.000000e+000 -1.733966e+000
      vertex  2.386600e+000  0.000000e+000 -1.733966e+000
      vertex  2.950000e+000  0.000000e+000  3.612708e-016
    endloop
  endfacet
  facet normal -9.510565e-001  0.000000e+000  3.090171e-001
    outer loop
      vertex  2.386600e+000  8.000000e+000 -1.733966e+000
      vertex  2.950000e+000  0.000000e+000  3.612708e-016
      vertex  2.950000e+000  8.000000e+000  3.612708e-016
    endloop
  endfacet
  facet normal -9.999981e-001  0.000000e+000  1.952354e-003
    outer loop
      vertex -2.220446e-016  0.000000e+000 -2.000000e+001
      vertex -1.109981e-002  8.000000e+000 -2.568534e+001
      vertex -1.109981e-002  0.000000e+000 -2.568534e+001
    endloop
  endfacet
  facet normal -9.963779e-001  0.000000e+000  8.503542e-002
    outer loop
      vertex -1.109981e-002  0.000000e+000 -2.568534e+001
      vertex -1.109981e-002  8.000000e+000 -2.568534e+001
      vertex -4.972123e-001  8.000000e+000 -3.138122e+001
    endloop
  endfacet
  facet normal -9.963779e-001  0.000000e+000  8.503542e-002
    outer loop
      vertex -1.109981e-002  0.000000e+000 -2.568534e+001
      vertex -4.972123e-001  8.000000e+000 -3.138122e+001
      vertex -4.972123e-001  0.000000e+000 -3.138122e+001
    endloop
  endfacet
  facet normal -9.879051e-001  0.000000e+000  1.550591e-001
    outer loop
      vertex -4.972123e-001  0.000000e+000 -3.138122e+001
      vertex -4.972123e-001  8.000000e+000 -3.138122e+001
      vertex -1.772774e+000  8.000000e+000 -3.950801e+001
    endloop
  endfacet
  facet normal -9.879051e-001  0.000000e+000  1.550591e-001
    outer loop
      vertex -4.972123e-001  0.000000e+000 -3.138122e+001
      vertex -1.772774e+000  8.000000e+000 -3.950801e+001
      vertex -1.772774e+000  0.000000e+000 -3.950801e+001
    endloop
  endfacet
  facet normal -9.999981e-001  0.000000e+000  1.952354e-003
    outer loop
      vertex -1.109981e-002  8.000000e+000 -2.568534e+001
      vertex -2.220446e-016  0.000000e+000 -2.000000e+001
      vertex -2.220446e-016  8.000000e+000 -2.000000e+001
    endloop
  endfacet
  facet normal -9.930890e-001  -0.000000e+000 -1.173632e-001
    outer loop
      vertex -2.220446e-016  8.000000e+000 -2.000000e+001
      vertex -2.220446e-016  0.000000e+000 -2.000000e+001
      vertex -7.914106e-001  0.000000e+000 -1.330334e+001
    endloop
  endfacet
  facet normal -9.930890e-001  0.000000e+000 -1.173632e-001
    outer loop
      vertex -2.220446e-016  8.000000e+000 -2.000000e+001
      vertex -7.914106e-001  0.000000e+000 -1.330334e+001
      vertex -7.914106e-001  8.000000e+000 -1.330334e+001
    endloop
  endfacet
  facet normal -9.644294e-001  -0.000000e+000 -2.643401e-001
    outer loop
      vertex -7.914106e-001  8.000000e+000 -1.330334e+001
      vertex -7.914106e-001  0.000000e+000 -1.330334e+001
      vertex -2.587792e+000  0.000000e+000 -6.749350e+000
    endloop
  endfacet
  facet normal -9.644294e-001  0.000000e+000 -2.643401e-001
    outer loop
      vertex -7.914106e-001  8.000000e+000 -1.330334e+001
      vertex -2.587792e+000  0.000000e+000 -6.749350e+000
      vertex -2.587792e+000  8.000000e+000 -6.749350e+000
    endloop
  endfacet
  facet normal -9.129474e-001  -0.000000e+000 -4.080775e-001
    outer loop
      vertex -2.587792e+000  8.000000e+000 -6.749350e+000
      vertex -2.587792e+000  0.000000e+000 -6.749350e+000
      vertex -5.444061e+000  0.000000e+000 -3.593284e-001
    endloop
  endfacet
  facet normal -9.129474e-001  0.000000e+000 -4.080775e-001
    outer loop
      vertex -2.587792e+000  8.000000e+000 -6.749350e+000
      vertex -5.444061e+000  0.000000e+000 -3.593284e-001
      vertex -5.444061e+000  8.000000e+000 -3.593284e-001
    endloop
  endfacet
  facet normal -9.918761e-002  -0.000000e+000 -9.950687e-001
    outer loop
      vertex  7.000275e-001  0.000000e+000 -4.108161e+001
      vertex  2.104566e+000  8.000000e+000 -4.122161e+001
      vertex  2.104566e+000  0.000000e+000 -4.122161e+001
    endloop
  endfacet
  facet normal  1.875770e-001  0.000000e+000 -9.822499e-001
    outer loop
      vertex  2.104566e+000  0.000000e+000 -4.122161e+001
      vertex  2.104566e+000  8.000000e+000 -4.122161e+001
      vertex  3.622421e+000  8.000000e+000 -4.093175e+001
    endloop
  endfacet
  facet normal  1.875770e-001  0.000000e+000 -9.822499e-001
    outer loop
      vertex  2.104566e+000  0.000000e+000 -4.122161e+001
      vertex  3.622421e+000  8.000000e+000 -4.093175e+001
      vertex  3.622421e+000  0.000000e+000 -4.093175e+001
    endloop
  endfacet
  facet normal -9.918761e-002  0.000000e+000 -9.950687e-001
    outer loop
      vertex  2.104566e+000  8.000000e+000 -4.122161e+001
      vertex  7.000275e-001  0.000000e+000 -4.108161e+001
      vertex  7.000275e-001  8.000000e+000 -4.108161e+001
    endloop
  endfacet
  facet normal -4.040014e-001  -0.000000e+000 -9.147584e-001
    outer loop
      vertex  7.000275e-001  8.000000e+000 -4.108161e+001
      vertex  7.000275e-001  0.000000e+000 -4.108161e+001
      vertex -5.932176e-001  0.000000e+000 -4.051045e+001
    endloop
  endfacet
  facet normal -4.040014e-001  0.000000e+000 -9.147584e-001
    outer loop
      vertex  7.000275e-001  8.000000e+000 -4.108161e+001
      vertex -5.932176e-001  0.000000e+000 -4.051045e+001
      vertex -5.932176e-001  8.000000e+000 -4.051045e+001
    endloop
  endfacet
  facet normal -6.475776e-001  -0.000000e+000 -7.619995e-001
    outer loop
      vertex -5.932176e-001  8.000000e+000 -4.051045e+001
      vertex -5.932176e-001  0.000000e+000 -4.051045e+001
      vertex -1.772774e+000  0.000000e+000 -3.950801e+001
    endloop
  endfacet
  facet normal -6.475776e-001  0.000000e+000 -7.619995e-001
    outer loop
      vertex -5.932176e-001  8.000000e+000 -4.051045e+001
      vertex -1.772774e+000  0.000000e+000 -3.950801e+001
      vertex -1.772774e+000  8.000000e+000 -3.950801e+001
    endloop
  endfacet
  facet normal  9.831147e-001  0.000000e+000  1.829905e-001
    outer loop
      vertex  8.316662e+000  0.000000e+000 -1.351632e+001
      vertex  7.204668e+000  8.000000e+000 -7.542147e+000
      vertex  7.204668e+000  0.000000e+000 -7.542147e+000
    endloop
  endfacet
  facet normal  9.534401e-001  -0.000000e+000  3.015824e-001
    outer loop
      vertex  7.204668e+000  0.000000e+000 -7.542147e+000
      vertex  7.204668e+000  8.000000e+000 -7.542147e+000
      vertex  5.320552e+000  8.000000e+000 -1.585593e+000
    endloop
  endfacet
  facet normal  9.534401e-001  0.000000e+000  3.015824e-001
    outer loop
      vertex  7.204668e+000  0.000000e+000 -7.542147e+000
      vertex  5.320552e+000  8.000000e+000 -1.585593e+000
      vertex  5.320552e+000  0.000000e+000 -1.585593e+000
    endloop
  endfacet
  facet normal  9.183865e-001  -0.000000e+000  3.956847e-001
    outer loop
      vertex  5.320552e+000  0.000000e+000 -1.585593e+000
      vertex  5.320552e+000  8.000000e+000 -1.585593e+000
      vertex  3.400759e+000  8.000000e+000  2.870259e+000
    endloop
  endfacet
  facet normal  9.183865e-001  0.000000e+000  3.956847e-001
    outer loop
      vertex  5.320552e+000  0.000000e+000 -1.585593e+000
      vertex  3.400759e+000  8.000000e+000  2.870259e+000
      vertex  3.400759e+000  0.000000e+000  2.870259e+000
    endloop
  endfacet
  facet normal  8.837567e-001  -0.000000e+000  4.679467e-001
    outer loop
      vertex  3.400759e+000  0.000000e+000  2.870259e+000
      vertex  3.400759e+000  8.000000e+000  2.870259e+000
      vertex  1.046646e+000  8.000000e+000  7.316197e+000
    endloop
  endfacet
  facet normal  8.837567e-001  0.000000e+000  4.679467e-001
    outer loop
      vertex  3.400759e+000  0.000000e+000  2.870259e+000
      vertex  1.046646e+000  8.000000e+000  7.316197e+000
      vertex  1.046646e+000  0.000000e+000  7.316197e+000
    endloop
  endfacet
  facet normal  9.831147e-001  -0.000000e+000  1.829905e-001
    outer loop
      vertex  7.204668e+000  8.000000e+000 -7.542147e+000
      vertex  8.316662e+000  0.000000e+000 -1.351632e+001
      vertex  8.316662e+000  8.000000e+000 -1.351632e+001
    endloop
  endfacet
  facet normal  9.983951e-001  0.000000e+000  5.663158e-002
    outer loop
      vertex  8.316662e+000  8.000000e+000 -1.351632e+001
      vertex  8.316662e+000  0.000000e+000 -1.351632e+001
      vertex  8.656532e+000  0.000000e+000 -1.950812e+001
    endloop
  endfacet
  facet normal  9.983951e-001  -0.000000e+000  5.663158e-002
    outer loop
      vertex  8.316662e+000  8.000000e+000 -1.351632e+001
      vertex  8.656532e+000  0.000000e+000 -1.950812e+001
      vertex  8.656532e+000  8.000000e+000 -1.950812e+001
    endloop
  endfacet
  facet normal  9.965137e-001  0.000000e+000 -8.342939e-002
    outer loop
      vertex  8.656532e+000  8.000000e+000 -1.950812e+001
      vertex  8.656532e+000  0.000000e+000 -1.950812e+001
      vertex  8.060729e+000  0.000000e+000 -2.662463e+001
    endloop
  endfacet
  facet normal  9.965137e-001  0.000000e+000 -8.342939e-002
    outer loop
      vertex  8.656532e+000  8.000000e+000 -1.950812e+001
      vertex  8.060729e+000  0.000000e+000 -2.662463e+001
      vertex  8.060729e+000  8.000000e+000 -2.662463e+001
    endloop
  endfacet
  facet normal  9.734854e-001  0.000000e+000 -2.287489e-001
    outer loop
      vertex  8.060729e+000  8.000000e+000 -2.662463e+001
      vertex  8.060729e+000  0.000000e+000 -2.662463e+001
      vertex  6.382692e+000  0.000000e+000 -3.376584e+001
    endloop
  endfacet
  facet normal  9.734854e-001  0.000000e+000 -2.287489e-001
    outer loop
      vertex  8.060729e+000  8.000000e+000 -2.662463e+001
      vertex  6.382692e+000  0.000000e+000 -3.376584e+001
      vertex  6.382692e+000  8.000000e+000 -3.376584e+001
    endloop
  endfacet
  facet normal  9.331642e-001  0.000000e+000 -3.594500e-001
    outer loop
      vertex  6.382692e+000  8.000000e+000 -3.376584e+001
      vertex  6.382692e+000  0.000000e+000 -3.376584e+001
      vertex  3.622421e+000  0.000000e+000 -4.093175e+001
    endloop
  endfacet
  facet normal  9.331642e-001  0.000000e+000 -3.594500e-001
    outer loop
      vertex  6.382692e+000  8.000000e+000 -3.376584e+001
      vertex  3.622421e+000  0.000000e+000 -4.093175e+001
      vertex  3.622421e+000  8.000000e+000 -4.093175e+001
    endloop
  endfacet
  facet normal  1.000000e+000  0.000000e+000  0.000000e+000
    outer loop
      vertex  1.046646e+000  8.000000e+000  7.316197e+000
      vertex  1.046646e+000  8.000000e+000  1.898570e+001
      vertex  1.046646e+000  0.000000e+000  7.316197e+000
    endloop
  endfacet
  facet normal  1.000000e+000  0.000000e+000  0.000000e+000
    outer loop
      vertex  1.046646e+000  0.000000e+000  7.316197e+000
      vertex  1.046646e+000  8.000000e+000  1.898570e+001
      vertex  1.046646e+000  0.000000e+000  1.898570e+001
    endloop
  endfacet
  facet normal  -0.000000e+000  0.000000e+000  1.000000e+000
    outer loop
      vertex  1.046646e+000  8.000000e+000  1.898570e+001
      vertex -7.075172e+000  8.000000e+000  1.898570e+001
      vertex  1.046646e+000  0.000000e+000  1.898570e+001
    endloop
  endfacet
  facet normal  0.000000e+000  0.000000e+000  1.000000e+000
    outer loop
      vertex  1.046646e+000  0.000000e+000  1.898570e+001
      vertex -7.075172e+000  8.000000e+000  1.898570e+001
      vertex -7.075172e+000  0.000000e+000  1.898570e+001
    endloop
  endfacet
  facet normal -9.997821e-001  -0.000000e+000 -2.087596e-002
    outer loop
      vertex -7.075172e+000  0.000000e+000  1.898570e+001
      vertex -7.075172e+000  8.000000e+000  1.898570e+001
      vertex -7.021280e+000  0.000000e+000  1.640470e+001
    endloop
  endfacet
  facet normal -9.997821e-001  0.000000e+000 -2.087596e-002
    outer loop
      vertex -7.021280e+000  0.000000e+000  1.640470e+001
      vertex -7.075172e+000  8.000000e+000  1.898570e+001
      vertex -7.021280e+000  8.000000e+000  1.640470e+001
    endloop
  endfacet
  facet normal  3.050555e-002  0.000000e+000 -9.995346e-001
    outer loop
      vertex -7.021280e+000  0.000000e+000  1.640470e+001
      vertex -7.021280e+000  8.000000e+000  1.640470e+001
      vertex -2.866763e+000  0.000000e+000  1.653149e+001
    endloop
  endfacet
  facet normal  3.050555e-002  0.000000e+000 -9.995346e-001
    outer loop
      vertex -2.866763e+000  0.000000e+000  1.653149e+001
      vertex -7.021280e+000  8.000000e+000  1.640470e+001
      vertex -2.866763e+000  8.000000e+000  1.653149e+001
    endloop
  endfacet
  facet normal -9.630538e-001  0.000000e+000  2.693090e-001
    outer loop
      vertex -2.866763e+000  0.000000e+000  1.653149e+001
      vertex -2.866763e+000  8.000000e+000  1.653149e+001
      vertex -3.437181e+000  0.000000e+000  1.449167e+001
    endloop
  endfacet
  facet normal -9.630538e-001  0.000000e+000  2.693090e-001
    outer loop
      vertex -3.437181e+000  0.000000e+000  1.449167e+001
      vertex -2.866763e+000  8.000000e+000  1.653149e+001
      vertex -3.437181e+000  8.000000e+000  1.449167e+001
    endloop
  endfacet
  facet normal -7.119328e-001  0.000000e+000  7.022475e-001
    outer loop
      vertex -3.437181e+000  0.000000e+000  1.449167e+001
      vertex -3.437181e+000  8.000000e+000  1.449167e+001
      vertex -6.828813e+000  0.000000e+000  1.105326e+001
    endloop
  endfacet
  facet normal -7.119328e-001  0.000000e+000  7.022475e-001
    outer loop
      vertex -6.828813e+000  0.000000e+000  1.105326e+001
      vertex -3.437181e+000  8.000000e+000  1.449167e+001
      vertex -6.828813e+000  8.000000e+000  1.105326e+001
    endloop
  endfacet
  facet normal -9.927191e-001  0.000000e+000 -1.204520e-001
    outer loop
      vertex -6.828813e+000  8.000000e+000  1.105326e+001
      vertex -5.444061e+000  8.000000e+000 -3.593284e-001
      vertex -6.828813e+000  0.000000e+000  1.105326e+001
    endloop
  endfacet
  facet normal -9.927191e-001  0.000000e+000 -1.204520e-001
    outer loop
      vertex -6.828813e+000  0.000000e+000  1.105326e+001
      vertex -5.444061e+000  8.000000e+000 -3.593284e-001
      vertex -5.444061e+000  0.000000e+000 -3.593284e-001
    endloop
  endfacet
endsolid CATIA STL
